<?xml version="1.0" encoding="UTF-8"?>
<svg id="Capa_2" data-name="Capa 2" xmlns="http://www.w3.org/2000/svg" viewBox="0 0 165.54 138.89">
  <defs>
    <style>
      .cls-1 {
        fill: #e1e2bf;
      }
    </style>
  </defs>
  <g id="Capa_1-2" data-name="Capa 1">
    <g id="Layer_32" data-name="Layer 32">
      <path class="cls-1" d="M2.19,117.42l2.69,.49,.09,.21-1.56,2.25c-.73,1.06-.6,2.5,.31,3.41l11.32,11.32c.91,.91,2.35,1.04,3.41,.31l2.25-1.56,.21,.09,.49,2.69c.23,1.27,1.33,2.19,2.62,2.19h16.02c1.29,0,2.39-.92,2.62-2.19l.49-2.69,.21-.09,2.25,1.56c1.06,.73,2.49,.6,3.41-.31l11.32-11.32c.91-.91,1.04-2.35,.31-3.41l-1.56-2.25,.09-.21,2.69-.49c1.27-.23,2.19-1.34,2.19-2.63v-5.34h10.68c.63,0,1.23-.22,1.71-.62l15.27-12.73h28.61c-5.29,5.85-8.22,13.46-8.22,21.36,0,1.47,1.2,2.67,2.67,2.67h8.19c1.44,11.71,12.09,20.03,23.8,18.6,11.71-1.44,20.03-12.09,18.6-23.8-.62-5.02-2.99-9.66-6.71-13.09,5.05-7.57,5.07-7.65,5.07-8.4,0-.87-.42-1.68-1.13-2.18-3.16-2.22-6.7-3.85-10.44-4.81v-25.05c.03-5.93-4.5-10.89-10.41-11.39l-.27-.02v-15.28c0-1.47-1.2-2.67-2.67-2.67v-5.34c0-4.42,3.59-8.01,8.01-8.01,1.47,0,2.67-1.2,2.67-2.67V5.34c0-1.47-1.2-2.67-2.67-2.67-13.26,.01-24.01,10.76-24.03,24.03v5.34c-1.47,0-2.67,1.2-2.67,2.67v13.35l-26.7-2.43V16.02h2.67c1.47,0,2.67-1.2,2.67-2.67v-2.67c0-5.9-4.78-10.68-10.68-10.68H45.38c-5.9,0-10.68,4.78-10.68,10.68v2.67c0,1.47,1.2,2.67,2.67,2.67h2.05l-9.57,45.47c-9.09,.4-17.84,3.54-25.09,9.02-.16,.1-.31,.21-.45,.33-1.05,.95-1.19,2.56-.3,3.67,.1,.12,.2,.23,.32,.33l7.17,7.17-7.77,7.78c-.91,.91-1.04,2.35-.31,3.41l1.56,2.25-.09,.21-2.69,.49C.92,96.38,0,97.48,0,98.77v16.02c0,1.29,.92,2.4,2.19,2.63Zm85.9-50.68v25.44l-11.03,9.19c-1.78-14.72-10.63-27.65-23.72-34.64h34.75Zm38.39,24.03h-33.05v-5.34h16.02c.48,0,.96-.13,1.37-.38l12.71-7.63h12.61v9.08c-3.44,.88-6.7,2.32-9.66,4.27Zm9.66-18.69h-13.35c-.48,0-.96,.13-1.37,.38l-12.71,7.63h-15.28v-13.35h42.71v5.34Zm24.03,45.38c0,8.85-7.17,16.02-16.02,16.02s-16.02-7.17-16.02-16.02,7.17-16.02,16.02-16.02c8.84,0,16.01,7.17,16.02,16.02Zm-5.83-18.76c-10.35-5.63-23.31-1.8-28.94,8.55-1.27,2.34-2.1,4.9-2.43,7.54h-5.39c1.48-14.68,14.58-25.37,29.26-23.89,3.68,.37,7.25,1.51,10.47,3.33-.92,1.37-2.07,3.11-2.98,4.46Zm-10.19-13.27c-.9,0-1.79,.06-2.67,.14v-18.82h5.34v18.8c-.88-.07-1.77-.11-2.67-.11Zm-16.02-58.73c.01-9.29,6.83-17.16,16.02-18.5v5.42c-6.21,1.28-10.67,6.74-10.68,13.08v5.34h-5.34v-5.34Zm-2.67,10.68h10.68v12.12l-10.68-.97v-11.15Zm15.81,17.95c3.15,.27,5.56,2.91,5.55,6.07h-53.39v-10.41l47.84,4.34Zm-53.18-8.14l-7.43-2.12,1.99-6.94-5.14-1.47-5.34,18.69,5.14,1.47,1.88-6.6,8.89,2.53v8.67h-24.03V16.02h24.03v31.16ZM45.38,5.34h42.71c2.95,0,5.34,2.39,5.34,5.34H40.04c0-2.95,2.39-5.34,5.34-5.34Zm13.35,10.68V61.4h-23.41l9.55-45.38h13.85Zm-26.7,50.72c21.06,.03,38.5,16.36,39.91,37.37h-7.87v-5.34c0-1.29-.92-2.4-2.19-2.63l-2.69-.49-.09-.21,1.56-2.25c.73-1.06,.6-2.5-.31-3.41l-11.32-11.32c-.91-.91-2.35-1.04-3.41-.31l-2.25,1.56-.21-.09-.49-2.69c-.23-1.27-1.33-2.19-2.62-2.19H24.03c-1.29,0-2.39,.92-2.62,2.19l-.49,2.69-.21,.09-2.25-1.56c-.96-.65-2.23-.6-3.14,.12l-5.09-5.09c6.48-4.23,14.06-6.48,21.81-6.45ZM5.34,101l1.98-.36c.95-.17,1.73-.84,2.04-1.75,.31-.87,.66-1.72,1.07-2.55,.42-.87,.34-1.89-.21-2.68l-1.15-1.66,8.17-8.17,1.66,1.15c.79,.54,1.81,.62,2.67,.21,.83-.41,1.68-.76,2.55-1.07,.91-.32,1.58-1.1,1.75-2.04l.38-1.98h11.56l.36,1.98c.17,.95,.84,1.73,1.75,2.04,.87,.31,1.73,.66,2.56,1.07,.86,.41,1.88,.33,2.67-.21l1.66-1.15,8.18,8.17-1.15,1.66c-.55,.79-.63,1.82-.21,2.68,.4,.83,.76,1.68,1.07,2.55,.32,.91,1.1,1.58,2.04,1.75l1.98,.36v11.56l-1.98,.36c-.95,.17-1.73,.84-2.04,1.75-.31,.87-.66,1.72-1.07,2.55-.42,.87-.34,1.89,.21,2.68l1.15,1.66-8.17,8.17-1.66-1.15c-.79-.54-1.81-.62-2.67-.21-.83,.4-1.69,.76-2.56,1.07-.91,.32-1.58,1.1-1.75,2.04l-.38,1.98h-11.56l-.36-1.98c-.17-.95-.84-1.73-1.75-2.04-.87-.31-1.73-.66-2.56-1.07-.86-.41-1.88-.33-2.67,.21l-1.66,1.15-8.18-8.17,1.15-1.66c.55-.79,.63-1.82,.21-2.68-.4-.83-.76-1.68-1.07-2.55-.32-.91-1.1-1.58-2.04-1.75l-1.98-.36v-11.56Z"/>
      <path class="cls-1" d="M32.03,125.47c10.32,0,18.69-8.37,18.69-18.69s-8.37-18.69-18.69-18.69-18.69,8.37-18.69,18.69c.01,10.32,8.37,18.68,18.69,18.69Zm0-32.03c7.37,0,13.35,5.98,13.35,13.35s-5.98,13.35-13.35,13.35-13.35-5.98-13.35-13.35c0-7.37,5.98-13.34,13.35-13.35Z"/>
      <path class="cls-1" d="M144.16,106.78c-5.9,0-10.68,4.78-10.68,10.68s4.78,10.68,10.68,10.68,10.68-4.78,10.68-10.68-4.78-10.68-10.68-10.68Zm0,16.02c-2.95,0-5.34-2.39-5.34-5.34s2.39-5.34,5.34-5.34,5.34,2.39,5.34,5.34-2.39,5.34-5.34,5.34Z"/>
    </g>
  </g>
</svg>