<?xml version="1.0" encoding="UTF-8"?>
<svg id="Capa_2" data-name="Capa 2" xmlns="http://www.w3.org/2000/svg" viewBox="0 0 230.85 192.84">
  <defs>
    <style>
      .cls-1 {
        fill: #686868;
        stroke: #686868;
        stroke-miterlimit: 10;
        stroke-width: 2px;
      }

      .cls-2 {
        fill: #e1e2bf;
      }
    </style>
  </defs>
  <g id="Capa_1-2" data-name="Capa 1">
    <ellipse class="cls-2" cx="94.77" cy="96.42" rx="94.77" ry="96.42"/>
    <g>
      <path class="cls-1" d="M150.01,52.74h-29.81c-1.19,0-2.16,.97-2.16,2.16s.97,2.16,2.16,2.16h29.81c1.19,0,2.16-.97,2.16-2.16,0-1.19-.97-2.16-2.16-2.16Z"/>
      <path class="cls-1" d="M190.52,125.32h-15.96c-1.19,0-2.16,.97-2.16,2.16s.97,2.16,2.16,2.16h15.96c1.19,0,2.16-.97,2.16-2.16s-.97-2.16-2.16-2.16Z"/>
      <path class="cls-1" d="M219.57,59.72c1.04,.58,2.36,.2,2.93-.84,4.23-7.65,6.77-15.42,7.35-22.47,.11-1.31-1.02-2.43-2.33-2.33-8.23,.67-17.25,4-25.88,9.37-.93-3.79-2.11-6.75-3.58-8.99-2.25-3.44-5.2-5.18-8.74-5.18H95.16c-4.46,0-7.83,1.43-10.01,4.26-4.23,5.48-2.03,14.11-1.93,14.48,.25,.95,1.11,1.61,2.09,1.61h18.99c1.93,12.28,1.83,29.74,1.74,45.8-.05,8.16-.09,16.6,.1,24.28,.03,1.19,1.02,2.13,2.21,2.1,1.19-.03,2.13-1.02,2.1-2.21-.19-7.62-.15-16.02-.1-24.15,.11-19.26,.21-37.78-2.48-50.29-.26-1.19-.55-2.38-.89-3.55-.95-3.27-2.16-5.98-3.7-8.02h86.03c3.91,0,6.69,4.05,8.48,12.38-2.33,1.64-4.6,3.42-6.8,5.32-4.92,4.25-9.47,9.1-13.38,14.35h-57.42c-1.19,0-2.16,.97-2.16,2.16s.97,2.16,2.16,2.16h54.41c-1.59,2.45-3.02,4.93-4.28,7.42h-50.13c-1.19,0-2.16,.97-2.16,2.16s.97,2.16,2.16,2.16h48.14c-1.04,2.49-1.9,4.97-2.56,7.42h-45.59c-1.19,0-2.16,.97-2.16,2.16s.97,2.16,2.16,2.16h44.62c-.18,1.03-.32,2.05-.42,3.05l-6.66,6.66c-.84,.84-.84,2.21,0,3.05,.82,.82,2.21,.84,3.05,0l6.66-6.66c4-.41,7.93-1.39,11.71-2.74,3.89-1.39,7.64-3.18,11.22-5.25,3.45-1.99,6.74-4.25,9.86-6.72,0,3.53-.02,7.11-.04,10.6-.09,15.51-.18,31.5,1.41,43.26h-71.56c-1.37,0-2.4,1.31-2.1,2.64,0,.02,0,.04,.01,.06,0,0,0,.02,0,.04,.12,.5,1.58,6.91-1.08,10.57,0,.01-.02,.02-.02,.03-1.53,2.08-4.24,2.7-6.69,2.69-5.24-.03-8.31-8.72-9.36-26.56-.07-1.19-1.09-2.1-2.28-2.03-1.19,.07-2.1,1.09-2.03,2.28,.84,14.25,3.16,30.62,13.7,30.62h94.15c4.46,0,7.83-1.43,10.01-4.26,4.23-5.49,2.03-14.11,1.93-14.48-.25-.95-1.11-1.61-2.09-1.61h-18.24c-1.63-11.48-1.54-27.61-1.45-43.23,.03-4.71,.05-9.56,.03-14.26,1.2-1.08,2.38-2.19,3.53-3.35,3.6-3.6,6.87-7.46,9.72-11.48,.69-.97,.46-2.32-.51-3.01-.97-.69-2.32-.46-3.01,.51-2.71,3.82-5.82,7.5-9.25,10.92-2.7,2.7-5.58,5.23-8.62,7.55-7.42,5.66-15.37,9.72-22.92,11.71-.24,.06-.49,.12-.73,.18l38.34-38.34c.84-.84,.84-2.21,0-3.05-.84-.84-2.21-.84-3.05,0l-38.34,38.34c.05-.22,.11-.45,.17-.67,2.2-8.43,6.43-16.12,11.72-22.98,0,0,0,0,0,0,.02-.02,.03-.04,.05-.06,4.93-6.45,10.79-12.2,17.33-17.01,8.59-6.3,17.81-10.47,26.26-11.76-.88,5.74-3.1,11.94-6.51,18.1-.58,1.04-.2,2.36,.84,2.93Zm-116.08-14.42h-16.39c-.1-.7-.19-1.57-.21-2.53-.04-1.96,.22-4.7,1.7-6.61,1.32-1.71,3.44-2.55,6.47-2.57l1.41,.16s.04,.01,.06,.02c2.85,.74,5.08,4.17,6.64,10.21,.12,.44,.22,.89,.32,1.34Zm118.93,97.69c.33,2.29,.57,6.49-1.48,9.14-1.34,1.74-3.49,2.58-6.59,2.58h-84.11c2.77-3.65,2.74-8.66,2.37-11.72h89.8Z"/>
    </g>
  </g>
</svg>