<?xml version="1.0" encoding="utf-8"?>
<!-- Generator: Adobe Illustrator 25.4.1, SVG Export Plug-In . SVG Version: 6.00 Build 0)  -->
<svg version="1.1" id="Capa_1" xmlns="http://www.w3.org/2000/svg" xmlns:xlink="http://www.w3.org/1999/xlink" x="0px" y="0px"
	 viewBox="0 0 512 512" style="enable-background:new 0 0 512 512;" xml:space="preserve">
<style type="text/css">
	.st0{fill:#F0F0F0;}
	.st1{fill-rule:evenodd;clip-rule:evenodd;fill:#0052B4;}
	.st2{fill-rule:evenodd;clip-rule:evenodd;fill:#D80027;}
</style>
<g id="_x33_6_Multicolor__x2F__Flag__x2F__mc_x5F_36_x5F_flag_x5F_united_x5F_kingdom">
	<g id="mc_36_flag_United-kingdom">
		<path id="Oval" class="st0" d="M256,512c141.4,0,256-114.6,256-256C512,114.6,397.4,0,256,0C114.6,0,0,114.6,0,256
			C0,397.4,114.6,512,256,512z"/>
		<g>
			<path id="Shape" class="st1" d="M411.9,52.9L411.9,52.9L411.9,52.9L411.9,52.9z M411.9,52.9c-26.2-20.1-56.3-35.3-89.1-44.1V142
				L411.9,52.9z M8.8,189.2c8.8-32.8,24-62.9,44.1-89.1l89.1,89.1H8.8z M459.1,100.2c20.4,26.5,35.4,56.8,44.1,89.1H370L459.1,100.2
				z M8.8,322.8L8.8,322.8L8.8,322.8L8.8,322.8z M8.8,322.8H142l-89.1,89.1C32.8,385.7,17.6,355.6,8.8,322.8z M100.2,459.1
				c26.2,20.1,56.3,35.3,89.1,44.1V370L100.2,459.1z M100.2,52.9c26.5-20.4,56.8-35.4,89.1-44.1V142L100.2,52.9z M322.8,503.2
				c32.3-8.7,62.6-23.7,89.1-44.1L322.8,370V503.2z M459.1,411.9L370,322.8h133.2C494.3,355.5,479.2,385.7,459.1,411.9z"/>
			<path id="Shape_2" class="st2" d="M509.8,222.6H289.4V2.2c-22.2-2.9-44.6-2.9-66.8,0v220.4H2.2c-2.9,22.2-2.9,44.6,0,66.8h220.4
				v220.4c22.2,2.9,44.6,2.9,66.8,0V289.4h220.4C512.7,267.2,512.7,244.8,509.8,222.6L509.8,222.6z M322.8,322.8L437,437l15-16.4
				l-97.8-97.8L322.8,322.8L322.8,322.8z M75,437l114.2-114.2h0v31.5l-97.8,97.8L75,437z M189.2,189.2L75,75l-15,16.4l97.8,97.8
				L189.2,189.2L189.2,189.2z M437,75L322.8,189.2l0,0v-31.5l97.8-97.8L437,75z"/>
		</g>
	</g>
</g>
</svg>
