<?xml version="1.0" encoding="UTF-8"?>
<svg id="Capa_2" data-name="Capa 2" xmlns="http://www.w3.org/2000/svg" viewBox="0 0 37.45 37.45">
  <defs>
    <style>
      .cls-1 {
        fill: #f0f0f0;
      }

      .cls-2 {
        fill: #338af3;
        fill-rule: evenodd;
      }

      .cls-3 {
        fill: none;
        stroke: #fff;
        stroke-miterlimit: 10;
        stroke-width: .94px;
      }
    </style>
  </defs>
  <g id="Capa_1-2" data-name="Capa 1">
    <g>
      <path class="cls-1" d="M18.67,36.72c9.94,0,18-8.06,18-18S28.61,.72,18.67,.72,.67,8.78,.67,18.72s8.06,18,18,18Z"/>
      <g>
        <path class="cls-2" d="M36.05,14.02H18.67v-4.69h15.36c.89,1.46,1.58,3.04,2.02,4.69Zm-6.19,18.79H7.47c-1.65-1.31-3.05-2.9-4.15-4.7h30.71c-1.1,1.8-2.5,3.39-4.15,4.7h0Z"/>
        <path class="cls-2" d="M11.63,2.15C17.71-.42,24.71,.53,29.88,4.63h-11.21v4.69h-7.04V2.15Zm-4.7,2.93c-1.42,1.22-2.64,2.65-3.62,4.25h3.62V5.08h0Zm11.74,13.64v-4.7h-7.04v4.7H6.93v-4.7H1.29c-.83,3.08-.83,6.32,0,9.4H36.05c.41-1.53,.62-3.11,.62-4.7H18.67Z"/>
      </g>
      <circle class="cls-3" cx="18.72" cy="18.72" r="18.26"/>
    </g>
  </g>
</svg>