<?xml version="1.0" encoding="UTF-8"?>
<svg id="Capa_2" data-name="Capa 2" xmlns="http://www.w3.org/2000/svg" viewBox="0 0 37.5 37.65">
  <defs>
    <style>
      .cls-1 {
        fill: none;
        stroke: #fff;
        stroke-miterlimit: 10;
        stroke-width: .94px;
      }

      .cls-2 {
        fill: #3c3ca3;
      }

      .cls-2, .cls-3, .cls-4 {
        fill-rule: evenodd;
      }

      .cls-3 {
        fill: #faefe1;
      }

      .cls-4 {
        fill: #f02449;
      }
    </style>
  </defs>
  <g id="Capa_1-2" data-name="Capa 1">
    <g>
      <g id="_лой_2-2" data-name=" лой 2-2">
        <g>
          <path class="cls-2" d="M37.46,20.42h0s-.01,.07-.02,.11c0,.06-.01,.12-.01,.18,0,.02,0,.05-.01,.08,0,.06-.01,.11-.02,.16-.03,.29-.07,.59-.11,.88-.01,.09-.03,.18-.04,.27,0,.03,0,.06-.01,.08-.01,.07-.02,.15-.04,.22-.02,.15-.05,.3-.08,.45,0,0,0,0,0,0-.03,.15-.07,.3-.1,.45,0,.03-.01,.06-.02,.08-.22,.95-.52,1.86-.89,2.75,0,.02-.01,.03-.02,.04-.07,.16-.14,.33-.21,.49-.38,.85-.82,1.67-1.33,2.45-.65,1.02-1.41,1.97-2.24,2.83-1.1,1.14-2.34,2.14-3.69,2.98-2.1,1.29-4.48,2.18-7.02,2.54-.03,0-.06,0-.08,.01-.2,.03-.4,.05-.6,.07-.21,.02-.43,.04-.65,.06-.2,.01-.39,.02-.59,.03-.04,0-.08,0-.12,0-.2,0-.41,.01-.61,.01-3.54,0-6.86-1-9.68-2.73-1.36-.83-2.6-1.83-3.69-2.98-.84-.87-1.59-1.82-2.25-2.83-.53-.82-1-1.69-1.39-2.59-.05-.11-.1-.23-.15-.35,0-.02-.01-.03-.02-.04-.37-.89-.66-1.8-.89-2.75,0-.03-.02-.06-.02-.08-.11-.48-.2-.97-.28-1.47-.03-.2-.05-.41-.07-.61-.03-.26-.05-.52-.07-.77,0-.05,0-.09-.01-.14,0-.01,0-.02,0-.04-.03-.39-.04-.79-.04-1.18,0-.34,0-.69,.03-1.03,.03-.69,.11-1.37,.23-2.04,.21-1.3,.57-2.55,1.04-3.74,.02-.04,.03-.07,.04-.11,.05-.11,.09-.3,.13-.41,1.3-3.06,3.4-5.75,6.04-7.75h0s0,.07,0,.07c.55-.31,1.11-.72,1.7-1.07,0,0,.02,0,.03,0C12.37,1.43,15.55,.54,18.94,.54c.32,0,.64,.02,.96,.04,.32,.02,.63,.05,.94,.08,.31,.03,.62,.08,.93,.12,.3,.05,.61,.1,.91,.16,7.24,1.49,12.96,7.21,14.45,14.44,.06,.3,.11,.6,.16,.91,.05,.31,.09,.62,.12,.93,.03,.31,.06,.62,.07,.94,.02,.32,.02,.64,.02,.95,0,.24,0,.47-.02,.7,0,.16-.01,.32-.02,.48,0,0,0,.02,0,.04,0,.03,0,.07,0,.1h0Z"/>
          <path class="cls-4" d="M37.5,19.11c0,.24,0,.47,0,.7,0,.21-.02,.41-.02,.61h0c0,.1-.02,.2-.03,.29,0,.02,0,.05-.01,.08,0,.06-.01,.11-.02,.16,0,.03,0,.06-.01,.09-.02,.25-.06,.49-.09,.73,0,.02,0,.04,0,.06-.01,.09-.02,.18-.04,.27,0,.03,0,.06-.01,.08-.01,.07-.02,.15-.04,.22-.02,.15-.05,.3-.08,.45,0,0,0,0,0,0-.03,.15-.07,.3-.1,.45,0,.03-.01,.06-.02,.08-1.59,6.71-6.82,12.02-13.5,13.7-.02,0-.04,0-.06,.02-.26,.07-.53,.12-.79,.18-.05,.01-.1,.02-.16,.03-.29,.06-.59,.11-.89,.15-.03,0-.06,0-.08,.01-.2,.03-.4,.05-.6,.07-.21,.02-.43,.04-.65,.06-.2,.01-.39,.02-.59,.03-.04,0-.08,0-.12,0-.2,0-.41,.01-.61,.01-3.54,0-6.86-1-9.68-2.73-1.36-.83-2.6-1.83-3.69-2.98-.84-.87-1.59-1.82-2.25-2.83-.53-.82-1-1.69-1.39-2.59-.05-.11-.1-.23-.15-.35,0-.02-.01-.03-.02-.04-.37-.89-.66-1.8-.89-2.75,0-.03-.02-.06-.02-.08-.11-.48-.2-.97-.28-1.47-.03-.2-.05-.41-.07-.61-.03-.26-.05-.52-.07-.77,0-.05,0-.06-.01-.11,0-.01,0,0,0,0H19.89V.61s.63,.02,.94,.06c.31,.03,.62,.06,.93,.11,.3,.05,.6,.1,.91,.16,7.25,1.48,12.97,7.19,14.45,14.44,.07,.3,.12,.6,.16,.9,.05,.31,.09,.62,.12,.93,.03,.31,.06,.62,.07,.94,.02,.32,.02,.64,.02,.95h0Z"/>
          <g>
            <g>
              <path class="cls-3" d="M27.96,2.9c1.46,.81,2.79,1.82,3.98,2.98h-12.06V2.9h8.08Z"/>
              <path class="cls-3" d="M34.31,8.71c.63,.94,1.19,1.93,1.64,2.98H19.88v-2.98h14.42Z"/>
              <path class="cls-3" d="M36.92,14.52c.25,.96,.41,1.96,.5,2.98H19.88v-2.98h17.04Z"/>
              <path class="cls-3" d="M37.45,20.35s0,.12-.02,.19c0,.15-.02,.28-.04,.42-.03,.29-.07,.58-.11,.87-.01,.09-.02,.17-.04,.26-.02,.1-.03,.22-.05,.32-.05,.31-.11,.6-.18,.93H.86c-.22-1-.38-2.33-.44-3H37.45Z"/>
              <path class="cls-3" d="M36.11,26.02c-.43,1-.95,2-1.55,3H3.32c-.6-1-1.13-2-1.56-3H36.11Z"/>
              <path class="cls-3" d="M32.33,32.02c-1.1,1-2.34,2.33-3.7,2.67H9.26c-1.36-.33-2.6-1.67-3.69-2.67h26.76Z"/>
            </g>
            <g>
              <g>
                <path class="cls-3" d="M9.6,4.01l.2,1.16-1.04-.55-1.04,.55,.17-1c.55-.31,1.11-.76,1.7-1.1l.84,.12-.84,.82h0Z"/>
                <path class="cls-3" d="M14.54,1.96l.52,1.05,1.16,.17-.84,.82,.2,1.16-1.04-.55-1.04,.55,.2-1.16-.84-.82,1.16-.17,.52-1.05Z"/>
              </g>
              <g>
                <path class="cls-3" d="M5.95,6.6l.52,1.05,1.16,.17-.84,.82,.2,1.16-1.04-.55-1.04,.55,.2-1.16-.84-.82,1.16-.17,.52-1.05Z"/>
                <path class="cls-3" d="M11.59,6.6l.52,1.05,1.16,.17-.84,.82,.2,1.16-1.04-.55-1.04,.55,.2-1.16-.84-.82,1.16-.17,.52-1.05Z"/>
                <path class="cls-3" d="M17.23,6.6l.52,1.05,1.16,.17-.84,.82,.2,1.16-1.04-.55-1.04,.55,.2-1.16-.84-.82,1.16-.17,.52-1.05Z"/>
              </g>
              <g>
                <path class="cls-3" d="M3.84,12.77l.2,1.16-1.04-.55-1.04,.55,.2-1.16-.48-.47c.06-.14,.12-.28,.18-.42l.63-.09,.52-1.05,.52,1.05,1.16,.17-.84,.82h0Z"/>
                <path class="cls-3" d="M8.77,10.73l.52,1.05,1.16,.17-.84,.82,.2,1.16-1.04-.55-1.04,.55,.2-1.16-.84-.82,1.16-.17,.52-1.05Z"/>
                <path class="cls-3" d="M14.54,10.73l.52,1.05,1.16,.17-.84,.82,.2,1.16-1.04-.55-1.04,.55,.2-1.16-.84-.82,1.16-.17,.52-1.05Z"/>
              </g>
              <g>
                <path class="cls-3" d="M1.14,17.41l.2,1.16-.93-.49c.03-.69,.11-1.37,.23-2.04l.19,.38,1.16,.17-.84,.82Z"/>
                <path class="cls-3" d="M5.95,15.37l.52,1.05,1.16,.17-.84,.82,.2,1.16-1.04-.55-1.04,.55,.2-1.16-.84-.82,1.16-.17,.52-1.05Z"/>
                <path class="cls-3" d="M11.59,15.37l.52,1.05,1.16,.17-.84,.82,.2,1.16-1.04-.55-1.04,.55,.2-1.16-.84-.82,1.16-.17,.52-1.05Z"/>
                <path class="cls-3" d="M17.23,15.37l.52,1.05,1.16,.17-.84,.82,.2,1.16-1.04-.55-1.04,.55,.2-1.16-.84-.82,1.16-.17,.52-1.05Z"/>
              </g>
            </g>
          </g>
        </g>
      </g>
      <circle class="cls-1" cx="18.72" cy="18.72" r="18.26"/>
    </g>
  </g>
</svg>