<?xml version="1.0" encoding="UTF-8"?>
<svg id="Capa_2" data-name="Capa 2" xmlns="http://www.w3.org/2000/svg" viewBox="0 0 169.67 169.38">
  <defs>
    <style>
      .cls-1 {
        fill: #e1e2bf;
      }
    </style>
  </defs>
  <g id="Capa_1-2" data-name="Capa 1">
    <g id="_9._Earth_on_hand" data-name=" 9. Earth on hand">
      <path class="cls-1" d="M154.24,119.77c-2.82,0-2.36,0-20.28,5.57,.15-1.5,.06-3.01-.25-4.48,29.66-14.5,41.41-49.03,33.61-72.8-7.27-22.29-20.35-35.27-31.29-40C75.97-24.63,13.9,49.12,55.62,102.66h-20.35v-3.53c0-1.95-1.58-3.53-3.53-3.53H3.53c-1.95,0-3.53,1.58-3.53,3.53v56.43c0,1.95,1.58,3.53,3.53,3.53H31.74c1.95,0,3.53-1.58,3.53-3.53,0-1.23-.32-1.16,1.02-.39,49.94,28.6,89.45,7.44,123.98-6.67,7.58-3.38,10.98-12.27,7.6-19.84-2.4-5.38-7.73-8.86-13.63-8.9ZM28.22,152.04H7.05v-49.38H28.22v49.38ZM134.28,15.23c12.11,7.07,21.17,18.38,25.43,31.74-22.64,10.58-8.5,26.98-15.52,37.49-1.56,2.37-3.91,4.1-6.63,4.9-3.81-4.44,5.01-12.84,.63-22.22-2.86-6.1-8.96-7.48-15.62-7.72-4.9,0-6.77-.21-8.04-6.63-.78-3.88,1.69-6.07,5.82-9.35,18.8-14.85-3.49-20.74,13.93-28.22Zm-30.23-7.79c1.41,2.22,3.53,6.7,1.45,10.05-3.53,5.11-10.26-1.94-16.89,1.41-6.63,3.35-3.46,9.7-1.69,13.23,8.11,17.07-3.28,8.85-11.36,12.87-8.08,4.02-4.13,16.4-7.83,18.27-8.08,4.13-13.51-6.45-15.8-15.8-.99-4.48,15.41-38.8,52.13-40.03ZM49.38,63.87c0-7.76,0,1.83,9.03,6.03,3.99,1.8,8.58,1.69,12.49-.28,8.25-4.13,4.16-16.4,7.83-18.23,2.79-1.38,11.78,.99,16.01-4.37,5.54-7.05-2.57-18.91-3.03-21.69,5.15-.63,13.58,5.29,19.65-3.81,2.56-4.15,2.83-9.32,.74-13.72,4.94,.53,9.79,1.72,14.43,3.53-5.79,3.47-8.17,10.65-5.61,16.89,1.16,3.84,.78,5.04-5.01,9.63-4.2,3.35-9.98,7.94-8.32,16.26,2.36,11.85,9.49,12.1,14.71,12.27,21.16,.78,.42,16.51,9.84,27.44,4.55,5.47,14.11,.53,17.92-5.4,9.52-14.11-4.97-25.43,11.32-34.35,4.37,24.8-8.22,49.5-30.86,60.52-5.36-6.14-9.77-4.87-29.87-4.87,1.55-4.44,1.83-5.57,3.53-5.96,7.72-1.66,11.6-9.45,7.05-15.87-4.55-6.42-11.75-2.68-12.8-4.76-4.27-8.57-18.8-14.5-25.64-6-3.1,4.16-3.67,9.69-1.48,14.39,1.53,2.55,3.76,4.61,6.42,5.93,8.11,5.04,4.76,5.43,9.1,12.27h-4.62c-5.04-3.37-10.76-5.6-16.75-6.53-10.33-10.48-16.1-24.61-16.05-39.33Zm44.58,43.63c-1.34-1.69-2.37-3.6-3.03-5.64-2.96-8.89-11.75-10.58-13.26-13.51-1.52-2.93-.35-8.32,4.23-8.32,4.18,.53,7.94,2.81,10.33,6.28,3.53,7.05,11.67,3.35,13.3,5.68,1.62,2.33-.28,4.34-2.79,4.87-5.75,1.27-7.02,5.54-8.78,10.65Zm63.49,34.53c-49.98,20.25-74.63,31.53-122.18,4.44v-36.75c23.24,0,31.92-1.52,43,5.85,2.47,1.66,.63,1.2,41.65,1.2,3.9,0,7.05,3.16,7.05,7.05s-3.16,7.05-7.05,7.05h-38.8c-1.95,0-3.53,1.58-3.53,3.53s1.58,3.53,3.53,3.53c39.75,0,43.03,1.31,48.5-3.88l22.04-6.7c4.26-1.1,8.61,1.46,9.71,5.72,.91,3.51-.66,7.18-3.82,8.95h-.11Z"/>
    </g>
  </g>
</svg>