<svg id="Capa_2" data-name="Capa 2" xmlns="http://www.w3.org/2000/svg" viewBox="0 0 254.36 81.77">
  <defs>
    <style>
      .cls-1{fill:#375542}.cls-2{fill:#636569}
    </style>
  </defs>
  <g id="Capa_1-2" data-name="Capa 1">
    <path class="cls-2" d="m97.72 40.01-3.05 8.14c0 .06 0 .12-.02.19a.37.37 0 0 1-.07.14v.14l-.09.37a1.4 1.4 0 0 0-.05.32c0 .77.26 1.4.79 1.9.52.49 1.13.74 1.8.74v.6h-9.11v-.65c.71.03 1.31-.12 1.8-.44s.91-1.07 1.25-2.24l8.09-21.09.07-.14c.02-.06.02-.12.02-.18.09-.28.17-.55.23-.83.06-.28.09-.52.09-.74 0-.37-.09-.7-.25-.99-.17-.29-.46-.44-.86-.44v-.69h9.85v.65c-.34.03-.62.2-.83.51a2 2 0 0 0-.37 1.02.4.4 0 0 0-.05.18v.18a2.78 2.78 0 0 0 .19.83c0 .06.02.12.05.18a.4.4 0 0 1 .05.18l7.82 21.69a9.53 9.53 0 0 0 .55 1.11c.19.31.43.6.74.88s.66.42 1.06.42v.6h-10.17v-.65c.8-.28 1.39-.69 1.78-1.25.39-.56.58-1.14.58-1.76 0-.43-.09-.89-.25-1.36a9.4 9.4 0 0 0-.67-1.46 13.13 13.13 0 0 0-4.37-4.07 12.94 12.94 0 0 0-6.59-1.94v-.05Zm5.09-1.64c1.39.45 2.74 1.35 4.07 2.71l-4.72-13.64-3.79 10.22c1.57.03 3.05.27 4.44.72ZM120.66 30.27c-1.33.58-2.43 1.95-3.32 4.11l-.62-.33 1.78-7.68a5.48 5.48 0 0 0 2.64.64l1.31.02 13.07-.04c.64.03 1.19.01 1.66-.04.47-.06.86-.23 1.16-.54l1.78 7.93-.58.29a6.26 6.26 0 0 0-2.95-4.12c-1.52-.91-3.49-1.36-5.89-1.36v20.37c0 .91.24 1.52.73 1.81.48.29 1.02.51 1.6.64 0 .03 0 .04.02.04h.06v.54h-9.46v-.58a3.5 3.5 0 0 0 1.78-.77c.42-.37.62-1.02.62-1.93V29.15c-2.27.17-4.07.54-5.39 1.12ZM157.13 29.44s.05-.01.06-.04a.37.37 0 0 0 .02-.12l.08-.27c.03-.1.04-.17.04-.23 0-.3-.13-.57-.39-.79-.26-.22-.6-.33-1.02-.33v-.62h7.59v.58c-.11.03-.23.05-.35.06a4.1 4.1 0 0 0-1.39.45 4.78 4.78 0 0 0-1.1.81.83.83 0 0 0-.15.25l-5.85 8.17 7.97 11.87c.75 1.22 1.38 1.99 1.89 2.3.51.32.99.48 1.43.48v.54h-10.37v-.58c.06.03.11.04.17.04h.21c.05.03.11.04.17.04h.17c.39 0 .73-.1 1.04-.29.3-.19.46-.5.46-.91a3.74 3.74 0 0 0-.67-1.87l-5.15-8.01-5.52 8.26-.15.29a8.87 8.87 0 0 0-.31.73c-.06.15-.08.28-.08.39 0 .44.21.78.62 1.02.41.24.89.35 1.41.35v.54h-8.13v-.58c.17.03.32.03.48 0 .15-.03.31-.08.48-.17.36-.17.75-.49 1.18-.98.43-.48 1.02-1.21 1.76-2.18l7.05-9.79-6.72-9.71c-.3-.44-.68-.8-1.14-1.08a3 3 0 0 0-1.6-.41v-.62h10.04v.58c-.11.03-.24.05-.37.06l-.42.06a3 3 0 0 0-.79.37c-.25.17-.37.41-.37.75 0 .17.04.35.12.56.08.21.19.42.33.64l3.32 4.9 3.94-5.52ZM181.9 26.7c4.65.3 8.09 1.8 10.33 4.48a13.44 13.44 0 0 1 3.36 8.8v.71a13.32 13.32 0 0 1-3.67 8.61c-2.34 2.59-5.61 3.88-9.81 3.88h-.5c-4.4-.17-7.74-1.6-10.04-4.32a13.68 13.68 0 0 1-3.49-8.92v-.5c.08-3.13 1.27-6 3.55-8.61 2.28-2.61 5.71-3.98 10.27-4.09v-.04Zm-8.55 15.81c.8 2.74 1.94 4.81 3.42 6.2a8.43 8.43 0 0 0 5.17 2.49l.5.02c.14 0 .27 0 .39-.02l.39-.02c.5-.08 1-.21 1.51-.39a8.17 8.17 0 0 0 4.85-3.82 9.8 9.8 0 0 0 1.39-5.25c0-1.19-.19-2.46-.58-3.82a18.4 18.4 0 0 0-1.78-4.11 8.94 8.94 0 0 0-7.73-4.68h-.12a7.76 7.76 0 0 0-5.41 2.45c-1.65 1.6-2.47 3.98-2.47 7.14 0 .47.04.99.12 1.56l.25 1.72c0 .08 0 .17.02.27l.06.31v-.04ZM218.66 29.73c0-.75-.2-1.23-.6-1.45a5.02 5.02 0 0 0-1.87-.56l-.31-.06v-.62h7.93v.58c-.61.17-1.16.38-1.66.64s-.75.77-.75 1.51v18.84c0 1.24.21 2.12.64 2.63.43.51 1.02.77 1.76.77v.54h-7.64v-.58c.8.03 1.42-.17 1.85-.6.43-.43.64-1.03.64-1.8V43.8a4.9 4.9 0 0 0-.21-1.64 2.55 2.55 0 0 0-.75-1.02 2.87 2.87 0 0 0-.54-.48l-.71-.52-12.16-10.12v18.92c0 1.02.21 1.72.64 2.1.43.37.91.64 1.43.81l.31.08.27.08h.08v.54h-7.88v-.58a3.46 3.46 0 0 0 1.8-.81c.43-.4.64-1.13.64-2.18V30.36c0-1.02-.21-1.69-.64-2.01a4.16 4.16 0 0 0-1.8-.68v-.62h10.37v.58c-.14.06-.26.11-.35.17-.1.06-.19.12-.27.21a.2.2 0 0 0-.06.1l-.02.1c0 .14.13.32.39.54l.89.75 8.55 6.97v-6.72ZM234.66 40.01l-3.05 8.14c0 .06 0 .12-.02.19s-.04.11-.07.14v.14l-.09.37a1.4 1.4 0 0 0-.05.32c0 .77.26 1.4.79 1.9.52.49 1.12.74 1.8.74v.6h-9.11v-.65c.71.03 1.31-.12 1.8-.44s.91-1.07 1.25-2.24L236 28.13l.07-.14c.02-.06.02-.12.02-.18.09-.28.17-.55.23-.83.06-.28.09-.52.09-.74 0-.37-.09-.7-.25-.99-.17-.29-.46-.44-.86-.44v-.69h9.85v.65c-.34.03-.62.2-.83.51a2 2 0 0 0-.37 1.02.4.4 0 0 0-.05.18v.18a2.78 2.78 0 0 0 .19.83c0 .06.02.12.05.18a.4.4 0 0 1 .05.18l7.82 21.69a9.53 9.53 0 0 0 .55 1.11c.19.31.43.6.74.88s.66.42 1.06.42v.6h-10.17v-.65c.8-.28 1.39-.69 1.78-1.25.39-.56.58-1.14.58-1.76 0-.43-.09-.89-.25-1.36a9.4 9.4 0 0 0-.67-1.46 13.13 13.13 0 0 0-4.37-4.07 12.94 12.94 0 0 0-6.59-1.94v-.05Zm5.09-1.64c1.39.45 2.74 1.35 4.07 2.71l-4.72-13.64-3.79 10.22c1.57.03 3.05.27 4.44.72ZM148.34 17.27c-.62 0-1.19-.1-1.71-.3a3.95 3.95 0 0 1-2.56-3.8c0-.6.11-1.14.32-1.64a4.09 4.09 0 0 1 2.26-2.16c.52-.2 1.09-.3 1.72-.3s1.21.1 1.74.31.97.52 1.34.93l-.71.71a3.1 3.1 0 0 0-2.32-.92c-.45 0-.88.08-1.28.23s-.73.37-1.02.64c-.29.27-.51.6-.66.98a3.27 3.27 0 0 0 0 2.45 2.92 2.92 0 0 0 1.67 1.63 3.87 3.87 0 0 0 2.5.03c.39-.13.76-.36 1.09-.67l.65.87a4 4 0 0 1-1.39.76c-.53.17-1.08.26-1.64.26Zm1.93-1.17v-2.98h1.1v3.13l-1.1-.15ZM155.85 17.18V9.16h3.13c.7 0 1.3.11 1.8.33.5.22.88.54 1.14.96.27.42.4.92.4 1.5s-.13 1.08-.4 1.49c-.27.42-.65.73-1.14.96-.5.22-1.1.33-1.8.33h-2.5l.51-.53v2.96h-1.14Zm1.14-2.85-.51-.56h2.46c.73 0 1.29-.16 1.67-.48.38-.32.57-.76.57-1.33s-.19-1.01-.57-1.33c-.38-.31-.93-.47-1.67-.47h-2.46l.51-.57v4.74Zm4.21 2.85-2.04-2.91h1.22l2.06 2.91h-1.25ZM169.78 17.27c-1.05 0-1.88-.3-2.48-.9-.6-.6-.9-1.48-.9-2.64V9.17h1.14v4.51c0 .89.2 1.55.59 1.96.39.41.95.62 1.67.62s1.28-.21 1.68-.62.59-1.06.59-1.96V9.17h1.11v4.56c0 1.16-.3 2.04-.9 2.64-.6.6-1.43.9-2.49.9ZM177.8 17.18V9.16h3.13c.7 0 1.3.11 1.8.33.5.22.88.54 1.15.96.27.42.4.92.4 1.5s-.13 1.08-.4 1.49c-.27.42-.65.74-1.15.96-.5.23-1.1.34-1.8.34h-2.5l.52-.54v2.96h-1.14Zm1.14-2.85-.52-.57h2.46c.73 0 1.29-.16 1.67-.47s.57-.76.57-1.33-.19-1.01-.57-1.33-.93-.47-1.67-.47h-2.46l.52-.57v4.74ZM191.98 17.27a4.5 4.5 0 0 1-3.06-1.17 3.91 3.91 0 0 1-1.21-2.93 3.91 3.91 0 0 1 2.56-3.79 4.73 4.73 0 0 1 4.75.85c.39.37.68.8.89 1.3.21.5.31 1.04.31 1.64s-.1 1.14-.31 1.64a3.91 3.91 0 0 1-2.24 2.16c-.51.2-1.08.3-1.69.3Zm0-1.02c.44 0 .85-.08 1.23-.23.38-.15.71-.37.98-.65.28-.28.5-.6.65-.98a3.27 3.27 0 0 0-.65-3.43 3.1 3.1 0 0 0-2.21-.88c-.44 0-.86.08-1.24.23s-.71.37-.99.65a3.02 3.02 0 0 0-.89 2.21c0 .45.08.85.23 1.22a3.04 3.04 0 0 0 2.89 1.86ZM107.53 66.63v-4.99h1.97c.53 0 .99.11 1.39.32a2.32 2.32 0 0 1 1.26 2.17c0 .48-.11.91-.33 1.29-.22.38-.53.67-.93.88-.4.21-.86.32-1.39.32h-1.97Zm.36-.33h1.58c.47 0 .88-.09 1.23-.28.35-.19.62-.44.81-.77s.29-.7.29-1.12-.1-.8-.29-1.12-.46-.58-.81-.77a2.54 2.54 0 0 0-1.23-.28h-1.58v4.33ZM115.2 66.3h3.08v.33h-3.44v-4.99h3.34v.33h-2.97v4.33Zm-.04-2.37h2.7v.32h-2.7v-.32ZM122.35 66.66c-.37 0-.72-.06-1.05-.19s-.59-.29-.77-.49l.16-.27c.17.18.41.32.7.45.3.12.61.18.94.18s.6-.04.82-.13.37-.21.47-.35c.1-.15.15-.31.15-.49 0-.21-.06-.38-.17-.51s-.26-.23-.45-.31a3.63 3.63 0 0 0-.61-.19l-.66-.17a3.36 3.36 0 0 1-.61-.23 1.13 1.13 0 0 1-.45-.39 1.13 1.13 0 0 1-.17-.64c0-.24.06-.46.19-.66.12-.2.32-.36.58-.49a2.86 2.86 0 0 1 1.83-.07c.27.08.5.19.69.33l-.14.29a2.43 2.43 0 0 0-2.16-.28 1 1 0 0 0-.46.36.89.89 0 0 0-.15.5c0 .21.06.38.17.51.11.13.26.23.45.31.19.08.39.14.61.19l.66.17c.22.06.42.14.61.23.19.1.33.22.45.38.11.16.17.37.17.63 0 .23-.06.45-.19.65s-.32.36-.59.48c-.26.12-.6.18-1.02.18ZM125.97 66.63l2.3-4.99h.36l2.3 4.99h-.39l-2.17-4.76h.16l-2.16 4.76h-.39Zm.84-1.4.12-.31h2.99l.12.31h-3.23ZM133.25 66.63v-4.99h1.79c.42 0 .78.07 1.08.2.3.13.53.32.69.57.16.25.24.55.24.91s-.08.65-.24.89c-.16.25-.39.44-.69.58-.3.14-.66.2-1.08.2h-1.59l.16-.17v1.8h-.36Zm.36-1.78-.16-.17h1.59c.54 0 .94-.12 1.22-.36s.42-.57.42-1-.14-.77-.42-1-.69-.35-1.22-.35h-1.59l.16-.18v3.06Zm3.1 1.78-1.3-1.81h.41l1.3 1.81h-.41ZM139.81 66.63v-4.99h1.79c.42 0 .78.07 1.08.2.3.13.53.32.69.57.16.25.24.55.24.91s-.08.65-.24.89c-.16.25-.39.44-.69.58-.3.14-.66.2-1.08.2h-1.59l.16-.17v1.8h-.36Zm.36-1.78-.16-.17h1.59c.54 0 .94-.12 1.22-.36s.42-.57.42-1-.14-.77-.42-1-.69-.35-1.22-.35h-1.59l.16-.18v3.06Zm3.1 1.78-1.3-1.81h.41l1.3 1.81h-.41ZM148.49 66.66a2.7 2.7 0 0 1-1.86-.72c-.24-.23-.42-.5-.55-.81-.13-.31-.19-.64-.19-1s.06-.7.19-1 .31-.58.55-.81.51-.41.83-.53a2.9 2.9 0 0 1 2.06 0 2.42 2.42 0 0 1 1.37 1.33c.13.31.2.64.2 1.01s-.07.7-.2 1.01c-.13.31-.31.57-.55.8a2.7 2.7 0 0 1-1.85.72Zm0-.33c.32 0 .61-.05.88-.16a2.12 2.12 0 0 0 1.35-2.03 2.25 2.25 0 0 0-.64-1.57c-.2-.2-.44-.35-.71-.46s-.57-.16-.88-.16-.61.05-.88.16a2.12 2.12 0 0 0-1.35 2.03c0 .31.06.6.17.87a2.1 2.1 0 0 0 1.18 1.16c.27.11.57.16.88.16ZM153.77 66.63v-4.99h.36v4.66H157v.33h-3.24ZM159.37 66.63v-4.99h.36v4.66h2.87v.33h-3.24ZM166.98 66.66a2.7 2.7 0 0 1-1.86-.72c-.24-.23-.42-.5-.55-.81-.13-.31-.19-.64-.19-1s.06-.7.19-1 .31-.58.55-.81.51-.41.83-.53a2.9 2.9 0 0 1 2.06 0 2.42 2.42 0 0 1 1.37 1.33c.13.31.2.64.2 1.01s-.07.7-.2 1.01c-.13.31-.31.57-.55.8a2.7 2.7 0 0 1-1.85.72Zm0-.33c.32 0 .61-.05.88-.16a2.12 2.12 0 0 0 1.35-2.03 2.25 2.25 0 0 0-.64-1.57c-.2-.2-.44-.35-.71-.46s-.57-.16-.88-.16-.61.05-.88.16a2.12 2.12 0 0 0-1.35 2.03c0 .31.06.6.17.87a2.1 2.1 0 0 0 1.18 1.16c.27.11.57.16.88.16ZM173.58 66.66c-.37 0-.72-.06-1.05-.19a2 2 0 0 1-.77-.49l.16-.27c.17.18.41.32.7.45.3.12.61.18.94.18s.6-.04.82-.13c.21-.09.37-.21.47-.35.1-.15.15-.31.15-.49 0-.21-.06-.38-.17-.51s-.26-.23-.45-.31a3.63 3.63 0 0 0-.61-.19l-.66-.17a3.36 3.36 0 0 1-.61-.23 1.13 1.13 0 0 1-.45-.39 1.13 1.13 0 0 1-.17-.64c0-.24.06-.46.19-.66.12-.2.32-.36.58-.49a2.86 2.86 0 0 1 1.83-.07c.27.08.5.19.69.33l-.14.29a2.43 2.43 0 0 0-2.16-.28 1 1 0 0 0-.46.36.89.89 0 0 0-.15.5c0 .21.06.38.17.51s.26.23.45.31c.19.08.39.14.61.19l.66.17c.22.06.42.14.61.23.19.1.33.22.45.38.11.16.17.37.17.63 0 .23-.06.45-.19.65s-.32.36-.59.48c-.26.12-.6.18-1.02.18ZM181.65 66.63h-.36v-4.99h3.34v.33h-2.97v4.66Zm-.04-2.53h2.7v.33h-2.7v-.33ZM187.21 66.63v-4.99H189c.42 0 .78.07 1.08.2s.53.32.69.57c.16.25.24.55.24.91s-.08.65-.24.89c-.16.25-.39.44-.69.58-.3.14-.66.2-1.08.2h-1.59l.16-.17v1.8h-.36Zm.36-1.78-.16-.17H189c.54 0 .94-.12 1.22-.36s.42-.57.42-1-.14-.77-.42-1-.69-.35-1.22-.35h-1.59l.16-.18v3.06Zm3.1 1.78-1.3-1.81h.41l1.3 1.81h-.41ZM195.72 66.66c-.62 0-1.1-.18-1.46-.54-.36-.36-.53-.9-.53-1.61v-2.87h.36v2.86c0 .62.14 1.08.43 1.38.29.3.69.45 1.21.45s.92-.15 1.2-.45c.29-.3.43-.76.43-1.38v-2.86h.36v2.87c0 .71-.18 1.25-.53 1.61-.36.36-.85.54-1.47.54ZM201.71 66.63v-4.66h-1.8v-.33h3.96v.33h-1.8v4.66h-.36ZM205.97 61.23l.99-.84h.51l-1.12.84h-.38Zm.22 5.4v-4.99h.36v4.99h-.36ZM211.83 66.66a2.7 2.7 0 0 1-1.85-.72 2.53 2.53 0 0 1-.73-1.81c0-.37.06-.7.19-1.01.13-.31.31-.57.55-.8a2.63 2.63 0 0 1 1.85-.72c.35 0 .68.06.99.17s.57.29.79.52l-.23.24a1.86 1.86 0 0 0-.71-.45 2.48 2.48 0 0 0-1.71.02 2.1 2.1 0 0 0-1.18 1.16 2.29 2.29 0 0 0 .47 2.44c.2.2.44.35.71.46s.57.16.89.16c.29 0 .56-.05.82-.14s.5-.25.71-.46l.23.24c-.22.23-.48.41-.79.52-.31.12-.64.17-.99.17ZM218.26 66.66a2.7 2.7 0 0 1-1.86-.72c-.24-.23-.42-.5-.55-.81-.13-.31-.19-.64-.19-1s.06-.7.19-1 .31-.58.55-.81.51-.41.83-.53a2.9 2.9 0 0 1 2.06 0 2.42 2.42 0 0 1 1.37 1.33c.13.31.2.64.2 1.01s-.07.7-.2 1.01c-.13.31-.31.57-.55.8a2.7 2.7 0 0 1-1.85.72Zm0-.33c.32 0 .61-.05.88-.16a2.12 2.12 0 0 0 1.35-2.03 2.25 2.25 0 0 0-.64-1.57c-.2-.2-.44-.35-.71-.46s-.57-.16-.88-.16-.61.05-.88.16a2.12 2.12 0 0 0-1.35 2.03c0 .31.06.6.17.87a2.1 2.1 0 0 0 1.18 1.16c.27.11.57.16.88.16ZM223.54 66.63v-4.99h.36v4.66h2.87v.33h-3.24ZM228.3 66.63l2.3-4.99h.36l2.3 4.99h-.39l-2.17-4.76h.16l-2.16 4.76h-.39Zm.84-1.4.12-.31h2.99l.12.31h-3.23ZM236.9 66.66c-.37 0-.72-.06-1.05-.19a2 2 0 0 1-.77-.49l.16-.27c.17.18.41.32.7.45.3.12.61.18.94.18s.6-.04.82-.13c.21-.09.37-.21.47-.35.1-.15.15-.31.15-.49 0-.21-.06-.38-.17-.51s-.26-.23-.45-.31a3.63 3.63 0 0 0-.61-.19l-.66-.17a3.36 3.36 0 0 1-.61-.23 1.13 1.13 0 0 1-.45-.39 1.13 1.13 0 0 1-.17-.64c0-.24.06-.46.19-.66.12-.2.32-.36.58-.49a2.86 2.86 0 0 1 1.83-.07c.27.08.5.19.69.33l-.14.29a2.43 2.43 0 0 0-2.16-.28 1 1 0 0 0-.46.36.89.89 0 0 0-.15.5c0 .21.06.38.17.51s.26.23.45.31c.19.08.39.14.61.19l.66.17c.22.06.42.14.61.23.19.1.33.22.45.38.11.16.17.37.17.63 0 .23-.06.45-.19.65s-.32.36-.59.48c-.26.12-.6.18-1.02.18Z"/>
    <path class="cls-1" d="m27.95 56.11.79.28c.69.24 1.46-.06 1.8-.71 1.24-2.35 4.26-7.82 7.23-11.03.49-.53.54-1.33.11-1.9l-.17-.23a1.47 1.47 0 0 0-2.28-.1c-1.84 2.05-5.35 6.18-7.55 10.15-1.48-.43-3.46-1.06-6.33-2.01-10.46-3.48-17.48-1.45-20.56-.07a1.67 1.67 0 0 0-.68 2.49l.04.06c.46.66 1.33.9 2.07.57.83-.37 2.07-.82 3.69-1.14 2.96-.58 7.86-.82 14.35 1.34 2.85.95 5.3 1.69 7.35 2.23l.14.07ZM31.82 12.43c.92.45 1.88.63 2.93.51-1.17-2.44-2.41-4.8-3.34-7.29l.14-.1 4.53 4.42c.08-.53.19-1.05.22-1.57a6.17 6.17 0 0 0-1.87-5.11A10.1 10.1 0 0 0 28.07.6c-.39-.04-.42.2-.44.47-.2 2.35-.1 4.67.7 6.91.67 1.86 1.59 3.54 3.48 4.46ZM30.87 22.25a6.22 6.22 0 0 0-5.32 1.39c-1.9 1.61-2.86 3.74-3.32 6.14-.07.39.16.44.43.49 2.34.43 4.69.55 7.03-.04 1.93-.49 3.71-1.26 4.82-3.08a5.3 5.3 0 0 0 .8-2.9c-2.57.94-5.06 1.96-7.65 2.66l-.09-.15 4.88-4.13c-.52-.13-1.04-.29-1.56-.38ZM44.62 25.29c.06.48.09.96.18 1.42a5.62 5.62 0 0 0 2.84 4.02 9.12 9.12 0 0 0 6.2.84c.35-.06.32-.27.28-.51a14.43 14.43 0 0 0-2.26-5.87c-1.03-1.46-2.23-2.71-4.1-3.07a4.74 4.74 0 0 0-2.68.25c1.6 1.86 3.24 3.62 4.65 5.57l-.1.13-5-2.78ZM47.16 16.17c3.39-1.13 4.38-4.38 4.38-4.38-4.8-.42-4.38 4.38-4.38 4.38ZM57.29 8.22l-4.59 2.95c.43.17.84.36 1.28.49 1.64.5 3.21.36 4.66-.57a8.7 8.7 0 0 0 3.5-4.82c.11-.32-.09-.39-.31-.46-1.94-.63-3.91-1-5.95-.76-1.69.2-3.28.65-4.43 2.06a4.47 4.47 0 0 0-1 2.36c2.28-.5 4.5-1.09 6.78-1.39l.06.14Z"/>
    <path class="cls-1" d="m74.7 53.51-.04-.06a1.58 1.58 0 0 0-1.94-.53c-.78.35-1.94.77-3.46 1.07-2.78.54-7.37.77-13.45-1.26l-1.84-.6a59.16 59.16 0 0 1-7.71-6.77c0-.02-.02-.04-.04-.06l-.27-.26a69.85 69.85 0 0 1-2.65-2.96l-1.29-1.66c-.3-.4-.34-.71-.1-1.15a16.08 16.08 0 0 0 1.87-4.63c.68-3.65-.08-7.06-1.67-10.35-.48-1-.47-1.17.37-1.87l.24-.18a11.68 11.68 0 0 1 6.36-2.21c1.88-.08 3.77.03 5.65.09a9.67 9.67 0 0 0 4.5-.88 8.72 8.72 0 0 0 3.8-3.4c.06-.1.02-.22-.08-.28L60.8 14.4c-.09-.05-.2-.02-.26.07a5.97 5.97 0 0 1-2.77 2.38c-1.13.46-2.29.59-3.57.46-.15-.02-.23-.19-.14-.31.65-.87 1.14-1.76 1.49-2.66h-.23c-.96 0-1.83-.32-2.52-.85a5.81 5.81 0 0 1-2.42 2.89c-1.45.92-3.11.82-4.8 1.15-.13.02-.25-.08-.23-.21.11-1.04.19-2 .34-2.95a5.49 5.49 0 0 1 3.3-4.28 6.78 6.78 0 0 1-.12-.65 4.48 4.48 0 0 1-.33-2.02l-.01-.17v-.16a7.6 7.6 0 0 0-.67.24c-.88.38-1.71.88-2.58 1.36a.2.2 0 0 1-.28-.11 12.46 12.46 0 0 0-3.5-5.69A11.48 11.48 0 0 0 35.57.04l-.32.28c0 .83-.01 1.59.02 2.34 0 .14.22.35.37.38 2.89.65 4.87 2.49 6.2 5 1.26 2.39 1.22 5.01.69 7.6a11.19 11.19 0 0 1-2.71 5.21.2.2 0 0 1-.27.02c-1.18-.99-1.67-2.37-2.06-3.74a15.19 15.19 0 0 1-.63-3.93 4.37 4.37 0 0 1-2.9 1.18h-.09c.16.52.28 1.05.38 1.6.08.44.12.9.18 1.48a.2.2 0 0 1-.24.21c-1.45-.35-2.77-.62-4.05-1.03-.69-.22-1.4-.6-1.93-1.09a5.57 5.57 0 0 1-1.79-4.29l.04.09a9.99 9.99 0 0 1 .47-3.87l.03-.05v-.06h-.02s-.05-.07-.1-.1L24.5 6.26a.2.2 0 0 0-.27.12c-1.25 3.81-1.33 7.39 1.5 10.62.11.12.02.32-.14.32-2.66.08-4.94-.45-6.48-2.81a.2.2 0 0 0-.27-.06l-2.23 1.34c-.1.06-.13.19-.06.28 1.54 2.09 4.17 3.86 6.61 4.11 1.79.18 3.63.04 5.44-.12 2.97-.27 5.68.3 8.03 2.19a11.85 11.85 0 0 1 3.79 12.82c-.13.4-.31.78-.51 1.24-.06.14-.26.16-.34.03-.22-.34-.4-.6-.54-.88-.88-1.81-.87-3.73-.63-5.66.05-.42.25-.89.12-1.26-.33-.96-.76-1.89-1.19-2.87-.07-.15-.28-.16-.35-.01v.02c-.16.35-.36.69-.46 1.06-1.13 3.88-1.09 7.69.65 11.41a29 29 0 0 0 6.07 8.34c1.52 1.58 3.15 3.14 4.65 4.51a14.2 14.2 0 0 0-10.3 4l.03.08a8.5 8.5 0 0 0-1.65 9.03l.15.37h.03a9.3 9.3 0 0 0 2.74 3.17 5.24 5.24 0 0 1-7.93-1.8c.91-.51 1.51-1.66 1.51-2.99 0-1.8-1.14-3.26-2.54-3.26-1.32 0-2.41 1.27-2.53 2.95a2.3 2.3 0 0 0-.02.6 8.25 8.25 0 0 0 12.3 7.63l.78-.48c.17-.13.51-.41.95-.9a5.43 5.43 0 0 1-1.13 8.67c-.55-.83-1.65-1.36-2.9-1.36-1.8 0-3.26 1.14-3.26 2.54 0 .34.08.67.25.98.23.56.66.99 1.19 1.24l-.04.12.54.11a8.55 8.55 0 0 0 9.53-5.13c.96-2.35.82-5-.37-7.23l.25.59-.71-1.38a8.59 8.59 0 0 0-1.59-1.6l.09-.16.03-.07.07-.18a5.21 5.21 0 0 1 9.24.62c-1 .45-1.7 1.67-1.7 3.08 0 1.8 1.14 3.26 2.54 3.26 1.23 0 2.28-1.12 2.5-2.67a8.3 8.3 0 0 0-5.17-9.33 8.21 8.21 0 0 0-6.27.16l-.37.16v.03a9.68 9.68 0 0 0-3.47 3.42 5.38 5.38 0 0 1-1.84-6.42l.01-.03.03.09s.23-.69.87-1.55c.19-.22.4-.42.62-.61l-.05-.05c1.68-1.74 5.1-3.58 11.68-1.75l.03.01.59.19c.24.17.52.26.81.27l1.34.45c9.81 3.27 16.38 1.36 19.27.06.9-.41 1.21-1.53.64-2.34Z"/>
  </g>
</svg>
