<svg id="Capa_2" data-name="Capa 2" xmlns="http://www.w3.org/2000/svg" viewBox="0 0 380.58 115.45">
  <defs>
    <style>
      .cls-2{fill:#007a4c}.cls-3,.cls-4{fill-rule:evenodd}.cls-6,.cls-7{stroke:#e30613;fill:none;stroke-miterlimit:22.93}.cls-6{stroke-width:.08px}.cls-3{fill:#e30613}.cls-7{stroke-width:.21px}.cls-10,.cls-4{fill:#1d1d1b}
    </style>
  </defs>
  <g id="Capa_1-2" data-name="Capa 1">
    <path d="M380.05 110.08h-2.87V96.17h2.87v13.91Zm-10.01-7.05c0-1.05-.32-1.97-.95-2.77a3.14 3.14 0 0 0-2.55-1.3h-5.48v8.46h5.99c.92 0 1.67-.51 2.25-1.52.49-.85.73-1.81.73-2.88Zm2.82.11a7.4 7.4 0 0 1-1.63 4.83 5.33 5.33 0 0 1-4.31 2.12h-8.65V96.18h8.54a5.4 5.4 0 0 1 4.47 2.17 7.54 7.54 0 0 1 1.57 4.8Zm-18.5 6.94h-14.08V96.17h13.51v2.66H343.1v2.77h7.13v2.74h-7.13v3.04h11.25v2.71Zm-20.72-9.55c0-.36-.16-.71-.49-1.06a1.46 1.46 0 0 0-1.06-.51h-7.43v3.09h7.32c.49 0 .89-.15 1.19-.46.31-.31.46-.66.46-1.06Zm2.98 9.55h-3.4l-3.58-5.32h-4.99v5.32h-2.8V96.17h10.85c1.03 0 1.93.48 2.69 1.44a4.7 4.7 0 0 1 1.06 2.93 4.2 4.2 0 0 1-.84 2.6 3.98 3.98 0 0 1-2.55 1.52l3.56 5.43Zm-21.51-9.55c0-.36-.16-.71-.49-1.06a1.46 1.46 0 0 0-1.06-.51h-7.43v3.09h7.32c.49 0 .89-.15 1.2-.46.31-.31.46-.66.46-1.06Zm2.98 9.55h-3.39l-3.58-5.32h-4.99v5.32h-2.79V96.17h10.85c1.03 0 1.93.48 2.69 1.44.71.9 1.06 1.88 1.06 2.93a4.2 4.2 0 0 1-.84 2.6 3.98 3.98 0 0 1-2.55 1.52l3.55 5.43Zm-23.91-6.03-2.24-4.06-2.16 4.07h4.4Zm6.31 6.02h-3.16l-1.75-3.31h-7.28l-1.77 3.31h-3.02l7.3-13.92h2.44l7.24 13.91Zm-15.11-13.91-7.35 13.91h-2.39l-7.32-13.91h3.14l5.37 10.02 5.29-10.02h3.25Zm-18.25 13.91h-12.34V96.16h2.8v11.12h9.54v2.79Zm-21.55-6.03-2.24-4.06-2.17 4.07h4.4Zm6.3 6.02h-3.16l-1.75-3.31h-7.28l-1.77 3.31h-3.02l7.29-13.92h2.44l7.24 13.91Zm-18.72-4.18c0 1.59-.85 2.76-2.55 3.53-1.3.58-2.97.87-4.99.87-1.65 0-3.11-.21-4.38-.62a9.98 9.98 0 0 1-3.4-1.87l1.87-1.9c.73.6 1.62 1.06 2.69 1.39a10.74 10.74 0 0 0 6.43.01c1.05-.4 1.57-.96 1.57-1.68 0-.36-.22-.65-.68-.88a3 3 0 0 0-1.38-.34l-6-.36c-1.1 0-2.04-.39-2.82-1.17a3.8 3.8 0 0 1-1.17-2.79c0-1.59.73-2.76 2.2-3.5a9.64 9.64 0 0 1 4.31-.84 12.27 12.27 0 0 1 7.65 2.52l-1.82 1.71a11.26 11.26 0 0 0-5.72-1.52 7.3 7.3 0 0 0-3.07.49c-.56.27-.84.65-.84 1.14 0 .38.22.7.66.96.44.26.95.39 1.53.39l6.29.46c1.03 0 1.89.4 2.58 1.19s1.03 1.73 1.03 2.79Zm-39.1-1.85-2.24-4.06-2.17 4.07h4.4Zm6.31 6.02h-3.16l-1.75-3.31h-7.29l-1.77 3.31h-3.02l7.29-13.92h2.44l7.24 13.91Zm-20.18 0h-2.87V96.14h2.87v13.91Zm-6.4 0h-12.34V96.14h2.79v11.12h9.55v2.79Zm-17.55 0h-2.88V96.14h2.88v13.91Zm-8.27 0h-2.61v-9.33l-4.96 7.77-5.18-7.77v9.33h-2.6V96.14h2.36l5.43 8.08 5.23-8.08h2.33v13.91Zm-24.5-6.03-2.24-4.06-2.17 4.07h4.41Zm6.3 6.02h-3.16l-1.75-3.31h-7.28l-1.77 3.31h-3.02l7.29-13.92h2.44l7.24 13.91ZM111.38 98.7h-10.6v2.93h5.94v2.74h-5.94v5.67h-2.79V96.13h13.4v2.58Z" style="fill:#e30613"/>
    <path class="cls-4" d="M269.68 63.57c0-2.44-.89-4.62-2.67-6.54a8.4 8.4 0 0 0-6.35-2.94c-2.83 0-5.21.96-7.12 2.86a9.6 9.6 0 0 0-2.88 7.11 9.3 9.3 0 0 0 2.83 6.74c1.9 1.91 4.13 2.87 6.72 2.87s4.85-1.04 6.73-3.11a10.13 10.13 0 0 0 2.73-6.98Zm10.48-3.3a20.2 20.2 0 0 1-5.96 14.56 19.38 19.38 0 0 1-14.41 6.2c-5.19 0-9.79-1.91-13.78-5.74-4.05-3.88-6.08-8.42-6.11-13.63-.03-6.51 1.81-11.75 5.51-15.72 3.74-4 8.71-5.98 14.91-5.94a19.04 19.04 0 0 1 14.04 6.09 19.72 19.72 0 0 1 5.8 14.18Z"/>
    <path class="cls-10" d="M269.68 63.57c0-2.44-.89-4.62-2.67-6.54a8.4 8.4 0 0 0-6.35-2.94c-2.83 0-5.21.96-7.12 2.86a9.6 9.6 0 0 0-2.88 7.11 9.3 9.3 0 0 0 2.83 6.74c1.9 1.91 4.13 2.87 6.72 2.87s4.85-1.04 6.73-3.11a10.13 10.13 0 0 0 2.73-6.98Zm10.48-3.3a20.2 20.2 0 0 1-5.96 14.56 19.38 19.38 0 0 1-14.41 6.2c-5.19 0-9.79-1.91-13.78-5.74-4.05-3.88-6.08-8.42-6.11-13.63-.03-6.51 1.81-11.75 5.51-15.72 3.74-4 8.71-5.98 14.91-5.94a19.04 19.04 0 0 1 14.04 6.09 19.72 19.72 0 0 1 5.8 14.18Z"/>
    <path class="cls-4" d="M329.55 20.97c-2.32 8.28-3.48 19.12-3.48 32.51 0 11.62 1.08 20.76 3.23 27.4l-.43.15c-2.3-.98-5.75-1.48-10.32-1.48-2.42 0-4.92.42-7.5 1.23l.47-2.91c0-2.82-1.45-6.92-4.33-12.32-2.68-4.99-5.2-8.67-7.55-11.01a28.33 28.33 0 0 0-.25 4.05c0 5.68.99 13.05 2.96 22.1-1.24-.6-4.31-.9-9.21-.9-3.12 0-5.76.27-7.95.82 2.05-8.99 3.08-22.13 3.08-39.44a17 17 0 0 0-.46-3.93l-2.62 2.48V20.97c3.12.81 6.22 1.22 9.34 1.22 2.39 0 5.06-.41 8.01-1.22l.15.49a15.1 15.1 0 0 0-.55 4.5c0 7.72 4.08 18.62 12.25 32.68.31-1.84.47-4.15.47-6.91 0-13.04-1.1-23.26-3.31-30.64a64 64 0 0 0 10.87.99c1.01 0 3.38-.37 7.14-1.1Z"/>
    <path class="cls-10" d="M329.55 20.97c-2.32 8.28-3.48 19.12-3.48 32.51 0 11.62 1.08 20.76 3.23 27.4l-.43.15c-2.3-.98-5.75-1.48-10.32-1.48-2.42 0-4.92.42-7.5 1.23l.47-2.91c0-2.82-1.45-6.92-4.33-12.32-2.68-4.99-5.2-8.67-7.55-11.01a28.33 28.33 0 0 0-.25 4.05c0 5.68.99 13.05 2.96 22.1-1.24-.6-4.31-.9-9.21-.9-3.12 0-5.76.27-7.95.82 2.05-8.99 3.08-22.13 3.08-39.44a17 17 0 0 0-.46-3.93l-2.62 2.48V20.97c3.12.81 6.22 1.22 9.34 1.22 2.39 0 5.06-.41 8.01-1.22l.15.49a15.1 15.1 0 0 0-.55 4.5c0 7.72 4.08 18.62 12.25 32.68.31-1.84.47-4.15.47-6.91 0-13.04-1.1-23.26-3.31-30.64a64 64 0 0 0 10.87.99c1.01 0 3.38-.37 7.14-1.1Z"/>
    <path class="cls-4" d="M235.5 73.28a27.38 27.38 0 0 0-10.5 7.66c-1.94-5.59-4.25-10.25-6.94-13.96-2.6 3.18-5 7.87-7.2 14.05a25.7 25.7 0 0 0-9.64-8.26c1.25-.92 3.6-2.83 7.04-5.72.91-.81 2.73-2.93 5.47-6.37a37.45 37.45 0 0 0-12.16-11.65c4.56-2.74 7.86-5.75 9.9-9.04a49.35 49.35 0 0 0 6.59 14.39 31.43 31.43 0 0 0 4.14-6.68 46.53 46.53 0 0 0 2.96-7.62c2.62 2.59 4.26 4.17 4.93 4.75a35.61 35.61 0 0 0 5.72 3.92c-1.5.93-3.8 2.62-6.92 5.05a78.2 78.2 0 0 0-3.57 3.61c-1.9 2.01-2.85 3.16-2.85 3.44 0 .05 1.19 1.49 3.56 4.29a31.15 31.15 0 0 0 4.86 4.59l4.6 3.55Z"/>
    <path class="cls-10" d="M235.5 73.28a27.38 27.38 0 0 0-10.5 7.66c-1.94-5.59-4.25-10.25-6.94-13.96-2.6 3.18-5 7.87-7.2 14.05a25.7 25.7 0 0 0-9.64-8.26c1.25-.92 3.6-2.83 7.04-5.72.91-.81 2.73-2.93 5.47-6.37a37.45 37.45 0 0 0-12.16-11.65c4.56-2.74 7.86-5.75 9.9-9.04a49.35 49.35 0 0 0 6.59 14.39 31.43 31.43 0 0 0 4.14-6.68 46.53 46.53 0 0 0 2.96-7.62c2.62 2.59 4.26 4.17 4.93 4.75a35.61 35.61 0 0 0 5.72 3.92c-1.5.93-3.8 2.62-6.92 5.05a78.2 78.2 0 0 0-3.57 3.61c-1.9 2.01-2.85 3.16-2.85 3.44 0 .05 1.19 1.49 3.56 4.29a31.15 31.15 0 0 0 4.86 4.59l4.6 3.55Z"/>
    <path class="cls-4" d="M195.74 39.77a32 32 0 0 0-9.83-4.02c-.47-.09-2.6-.3-6.38-.61-.41.62-.61 1.83-.59 3.59.21 13.87.86 24.53 1.92 31.96.1.75.58 2.52 1.41 5.33.72 2.46 1.09 4.09 1.05 4.9-1.85-.67-5.25-1.01-10.21-1.01-3.12 0-6.6.37-10.46 1.12 2.73-12.13 4.18-25.85 4.37-41.17.02-1.92-.22-3.5-.72-4.73-6.61.23-11.78 1.78-15.52 4.65a5.8 5.8 0 0 1-.16-1.42c0-.88.19-2.37.57-4.46.38-2.08.57-3.54.57-4.34 0-3.43-.3-6.29-.9-8.59 10.54 1.01 17.85 1.5 21.94 1.5 2.91 0 6.71-.24 11.37-.73 5.13-.53 8.82-.83 11.07-.9a51.58 51.58 0 0 0-.76 9.09c-.02 2.94.4 6.22 1.27 9.84Z"/>
    <path class="cls-10" d="M195.74 39.77a32 32 0 0 0-9.83-4.02c-.47-.09-2.6-.3-6.38-.61-.41.62-.61 1.83-.59 3.59.21 13.87.86 24.53 1.92 31.96.1.75.58 2.52 1.41 5.33.72 2.46 1.09 4.09 1.05 4.9-1.85-.67-5.25-1.01-10.21-1.01-3.12 0-6.6.37-10.46 1.12 2.73-12.13 4.18-25.85 4.37-41.17.02-1.92-.22-3.5-.72-4.73-6.61.23-11.78 1.78-15.52 4.65a5.8 5.8 0 0 1-.16-1.42c0-.88.19-2.37.57-4.46.38-2.08.57-3.54.57-4.34 0-3.43-.3-6.29-.9-8.59 10.54 1.01 17.85 1.5 21.94 1.5 2.91 0 6.71-.24 11.37-.73 5.13-.53 8.82-.83 11.07-.9a51.58 51.58 0 0 0-.76 9.09c-.02 2.94.4 6.22 1.27 9.84Z"/>
    <path class="cls-4" d="M362.94 57.78c0-.64-.72-3.05-2.14-7.21a104.14 104.14 0 0 0-2.81-7.57c-1.49 3.25-3.18 8.11-5.08 14.61l5.13 9.32c.5-.4 1.44-1.88 2.83-4.44 1.37-2.56 2.07-4.13 2.07-4.71Zm17.64 22.92c-6.46-.22-11.07-.11-13.84.33A52.7 52.7 0 0 0 365.39 68l-6.91 8.69a17.75 17.75 0 0 1-4.03-3.71 467.33 467.33 0 0 1-3.54-4.24c-.85 1.12-1.27 3.78-1.27 7.97 0 1.72.15 3.09.43 4.11-5.52-.47-9.77-.2-15.36.2 3.34-6.13 6.49-14.08 9.47-23.83 1.53-4.99 2.8-10.07 3.8-15.24a64.18 64.18 0 0 0 1.33-9.01c-1.26.04-3.37.81-6.33 2.35a42.83 42.83 0 0 0-6.87 4.31c.99-3.44 1.48-6.9 1.48-10.39 0-2.91-.37-5.28-1.12-7.1 8.56 1.07 15.51 1.61 20.84 1.61 8.2 0 15.87-.97 23.01-2.89 0 .05-.21 1.36-.65 3.93a42.87 42.87 0 0 0-.71 5.07c0 3.03.37 6.25 1.11 9.65a43.36 43.36 0 0 0-6.15-4.35c-2.89-1.7-5.11-2.55-6.66-2.58a8.53 8.53 0 0 0-.31 2.62c0 5.82 2.05 15.06 6.18 27.72a105.28 105.28 0 0 0 7.47 17.79Z"/>
    <path class="cls-10" d="M362.94 57.78c0-.64-.72-3.05-2.14-7.21a104.14 104.14 0 0 0-2.81-7.57c-1.49 3.25-3.18 8.11-5.08 14.61l5.13 9.32c.5-.4 1.44-1.88 2.83-4.44 1.37-2.56 2.07-4.13 2.07-4.71Zm17.64 22.92c-6.46-.22-11.07-.11-13.84.33A52.7 52.7 0 0 0 365.39 68l-6.91 8.69a17.75 17.75 0 0 1-4.03-3.71 467.33 467.33 0 0 1-3.54-4.24c-.85 1.12-1.27 3.78-1.27 7.97 0 1.72.15 3.09.43 4.11-5.52-.47-9.77-.2-15.36.2 3.34-6.13 6.49-14.08 9.47-23.83 1.53-4.99 2.8-10.07 3.8-15.24a64.18 64.18 0 0 0 1.33-9.01c-1.26.04-3.37.81-6.33 2.35a42.83 42.83 0 0 0-6.87 4.31c.99-3.44 1.48-6.9 1.48-10.39 0-2.91-.37-5.28-1.12-7.1 8.56 1.07 15.51 1.61 20.84 1.61 8.2 0 15.87-.97 23.01-2.89 0 .05-.21 1.36-.65 3.93a42.87 42.87 0 0 0-.71 5.07c0 3.03.37 6.25 1.11 9.65a43.36 43.36 0 0 0-6.15-4.35c-2.89-1.7-5.11-2.55-6.66-2.58a8.53 8.53 0 0 0-.31 2.62c0 5.82 2.05 15.06 6.18 27.72a105.28 105.28 0 0 0 7.47 17.79Z"/>
    <path class="cls-4" d="M126.37 57.78c0-.64-.72-3.05-2.14-7.21a104.14 104.14 0 0 0-2.81-7.57c-1.49 3.25-3.18 8.11-5.08 14.61l5.13 9.32c.5-.4 1.45-1.88 2.83-4.44 1.37-2.56 2.07-4.13 2.07-4.71Zm17.64 22.92c-6.46-.22-11.07-.11-13.84.33A52.7 52.7 0 0 0 128.82 68l-6.91 8.69a17.75 17.75 0 0 1-4.03-3.71 467.33 467.33 0 0 1-3.54-4.24c-.85 1.12-1.27 3.78-1.27 7.97 0 1.72.15 3.09.43 4.11-5.52-.47-9.77-.2-15.36.2 3.33-6.13 6.49-14.08 9.47-23.83a147.49 147.49 0 0 0 3.79-15.24 64.18 64.18 0 0 0 1.33-9.01c-1.26.04-3.37.81-6.33 2.35a42.96 42.96 0 0 0-6.88 4.31c.99-3.44 1.48-6.9 1.48-10.39 0-2.91-.37-5.28-1.12-7.1 8.55 1.07 15.51 1.61 20.84 1.61 8.2 0 15.87-.97 23.01-2.89.01.05-.21 1.36-.65 3.93a40.7 40.7 0 0 0-.71 5.07c0 3.03.37 6.25 1.11 9.65a43.36 43.36 0 0 0-6.15-4.35c-2.89-1.7-5.1-2.55-6.65-2.58a8.53 8.53 0 0 0-.31 2.62c0 5.82 2.05 15.06 6.18 27.72a106.1 106.1 0 0 0 7.47 17.79Z"/>
    <path class="cls-10" d="M126.37 57.78c0-.64-.72-3.05-2.14-7.21a104.14 104.14 0 0 0-2.81-7.57c-1.49 3.25-3.18 8.11-5.08 14.61l5.13 9.32c.5-.4 1.45-1.88 2.83-4.44 1.37-2.56 2.07-4.13 2.07-4.71Zm17.64 22.92c-6.46-.22-11.07-.11-13.84.33A52.7 52.7 0 0 0 128.82 68l-6.91 8.69a17.75 17.75 0 0 1-4.03-3.71 467.33 467.33 0 0 1-3.54-4.24c-.85 1.12-1.27 3.78-1.27 7.97 0 1.72.15 3.09.43 4.11-5.52-.47-9.77-.2-15.36.2 3.33-6.13 6.49-14.08 9.47-23.83a147.49 147.49 0 0 0 3.79-15.24 64.18 64.18 0 0 0 1.33-9.01c-1.26.04-3.37.81-6.33 2.35a42.96 42.96 0 0 0-6.88 4.31c.99-3.44 1.48-6.9 1.48-10.39 0-2.91-.37-5.28-1.12-7.1 8.55 1.07 15.51 1.61 20.84 1.61 8.2 0 15.87-.97 23.01-2.89.01.05-.21 1.36-.65 3.93a40.7 40.7 0 0 0-.71 5.07c0 3.03.37 6.25 1.11 9.65a43.36 43.36 0 0 0-6.15-4.35c-2.89-1.7-5.1-2.55-6.65-2.58a8.53 8.53 0 0 0-.31 2.62c0 5.82 2.05 15.06 6.18 27.72a106.1 106.1 0 0 0 7.47 17.79ZM272.26 28.87l-2.21-4.56-2.28 4.55h4.49Zm6.03 6.38-2.62-.02-2.03-4.02h-7.06l-2.07 4.01h-2.62l6.92-14.28h2.39l7.08 14.31Zm-17.27-2.92a8.15 8.15 0 0 1-3.3 2.39c-1.26.52-2.63.78-4.09.78a8.44 8.44 0 0 1-5.67-1.99 6.98 6.98 0 0 1-2.55-5.61c0-2.07.81-3.8 2.41-5.21a8.24 8.24 0 0 1 5.62-2.11c1.18 0 2.34.22 3.51.67 1.05.4 2.13 1 3.21 1.81l-1.83 1.88c-.2-.33-.83-.7-1.92-1.12a8.9 8.9 0 0 0-3.15-.69 5.5 5.5 0 0 0-3.64 1.25 4.55 4.55 0 0 0-1.67 3.71c0 1.41.59 2.61 1.76 3.6a5.76 5.76 0 0 0 3.78 1.36c1 0 1.98-.21 2.97-.62.98-.42 1.92-.99 2.81-1.72l1.74 1.63Zm-18.95 2.9h-2.41l-8.24-10.29v10.29h-2.57V20.94h2.5l8.24 10.22V20.94h2.48v14.29Zm-17.82 0h-2.41V20.94h2.41v14.29Zm-5.54-11.9h-9.46v3.26h5.65v2.5h-5.65v6.14h-2.41V20.94h11.88v2.39Z"/>
    <path class="cls-10" d="m272.26 28.87-2.21-4.56-2.28 4.55h4.49Zm6.03 6.38-2.62-.02-2.03-4.02h-7.06l-2.07 4.01h-2.62l6.92-14.28h2.39l7.08 14.31Zm-17.27-2.92a8.15 8.15 0 0 1-3.3 2.39c-1.26.52-2.63.78-4.09.78a8.44 8.44 0 0 1-5.67-1.99 6.98 6.98 0 0 1-2.55-5.61c0-2.07.81-3.8 2.41-5.21a8.24 8.24 0 0 1 5.62-2.11c1.18 0 2.34.22 3.51.67 1.05.4 2.13 1 3.21 1.81l-1.83 1.88c-.2-.33-.83-.7-1.92-1.12a8.9 8.9 0 0 0-3.15-.69 5.5 5.5 0 0 0-3.64 1.25 4.55 4.55 0 0 0-1.67 3.71c0 1.41.59 2.61 1.76 3.6a5.76 5.76 0 0 0 3.78 1.36c1 0 1.98-.21 2.97-.62.98-.42 1.92-.99 2.81-1.72l1.74 1.63Zm-18.95 2.9h-2.41l-8.24-10.29v10.29h-2.57V20.94h2.5l8.24 10.22V20.94h2.48v14.29Zm-17.82 0h-2.41V20.94h2.41v14.29Zm-5.54-11.9h-9.46v3.26h5.65v2.5h-5.65v6.14h-2.41V20.94h11.88v2.39Z"/>
    <path class="cls-2" d="M97.98 114.61h282.1v.84H97.98z"/>
    <path class="cls-3" d="M49.8 115.01c-27.79.77 5.7-21.13-3.44-14-13.38 15.95 5.89 15.05 13.37 5.11 2.28-4.17 5.63-12.51-3.31-6.45-10.99 10.61-7.75 3.64.15-2.23 11.01-6.25 7.51 14.33-6.77 17.57Z"/>
    <path class="cls-7" d="M49.8 115.01c-27.79.77 5.7-21.13-3.44-14-13.38 15.95 5.89 15.05 13.37 5.11 2.28-4.17 5.63-12.51-3.31-6.45-10.99 10.61-7.75 3.64.15-2.23 11.01-6.25 7.51 14.33-6.77 17.57Z"/>
    <path class="cls-3" d="M61.12 93.66c.97.07 30.89-26.35 5.61-18.15-4.44 1.44 7.97-3.29 8.69-3 15.55 6.35-15.88 21.03-14.29 21.15Z"/>
    <path class="cls-7" d="M61.12 93.66c.97.07 30.89-26.35 5.61-18.15-4.44 1.44 7.97-3.29 8.69-3 15.55 6.35-15.88 21.03-14.29 21.15Z"/>
    <path class="cls-3" d="M35.41 96.46c-1 .06-6.8.71-7.49-.58-13.82-8.09 12-17.68 1.94-11.48-13.9 17.48 24.32 7.78 5.55 12.06Z"/>
    <path class="cls-7" d="M35.41 96.46c-1 .06-6.8.71-7.49-.58-13.82-8.09 12-17.68 1.94-11.48-13.9 17.48 24.32 7.78 5.55 12.06Z"/>
    <path class="cls-3" d="M52.75 92.45c-18.79-.59-21.14-22.12-.43-19.11 3.11 3.1-6.5.19-8.98 1.41-18.15 14.3 17.97 14.85 9.4 17.71Z"/>
    <path class="cls-7" d="M52.75 92.45c-18.79-.59-21.14-22.12-.43-19.11 3.11 3.1-6.5.19-8.98 1.41-18.15 14.3 17.97 14.85 9.4 17.71Z"/>
    <path class="cls-3" d="M59.15 88.44c.54-2.59 3.17-4.58 4.15-7.48 1.37-4.04.29-9.18-7.4-14.28-.76-.5-.9-.89-1.39-1.42-.09-.09-1.3-1.06.21-.98 2.08.1 16.18 13.11 9.23 20.5-1.37 1.46-5.1 5.12-4.8 3.66Z"/>
    <path class="cls-7" d="M59.15 88.44c.54-2.59 3.17-4.58 4.15-7.48 1.37-4.04.29-9.18-7.4-14.28-.76-.5-.9-.89-1.39-1.42-.09-.09-1.3-1.06.21-.98 2.08.1 16.18 13.11 9.23 20.5-1.37 1.46-5.1 5.12-4.8 3.66Z"/>
    <path class="cls-3" d="M14.92 64.63c.43-8.33 18.9-18.59 19.45-1 .02.74-2.4 6.2-3 6.64-.2.15.47-1.25.62-2.25 2.7-18.49-13.05-12.39-15.57-3.3-.36 1.38-1.55 1.01-1.51-.09Zm11.99 14.13c-4.85-.03-10.02-3.63-11.62-8.05-.2-.62 1.03-.38 1.57.35.29.43 2.59 3.48 5.36 4.78.93.44 3.81 1.38 6.84.99 1.18-.15 2.84-.93 4.36-1.56 3.12-1.3 6.02-3.45 5.78-2.66-.15.51-6.03 4.57-8.11 5.45-1.17.5-2.71.7-4.19.69Z"/>
    <path class="cls-7" d="M14.92 64.63c.43-8.33 18.9-18.59 19.45-1 .02.74-2.4 6.2-3 6.64-.2.15.47-1.25.62-2.25 2.7-18.49-13.05-12.39-15.57-3.3-.36 1.38-1.55 1.01-1.51-.09Zm11.99 14.13c-4.85-.03-10.02-3.63-11.62-8.05-.2-.62 1.03-.38 1.57.35.29.43 2.59 3.48 5.36 4.78.93.44 3.81 1.38 6.84.99 1.18-.15 2.84-.93 4.36-1.56 3.12-1.3 6.02-3.45 5.78-2.66-.15.51-6.03 4.57-8.11 5.45-1.17.5-2.71.7-4.19.69Z"/>
    <path class="cls-3" d="M75.77 49.72c-2.35-2.43-5.48-4.05-8.32-5.51-2.42-1.24 1.25-.03 2 .22 1.06.35 7.2 3.75 9.11 6.69.56.99-2.08-.72-2.79-1.4Zm-8.4 20.41c-14.64 1.69-7.12-17.23-7.21-16.89-3.42 11.92 3.87 24.24 16.46 9.59 2.19-2.55 2.49-7.9 2.62-8.84.25-.69 4.11 14.3-11.87 16.15Z"/>
    <path class="cls-7" d="M75.77 49.72c-2.35-2.43-5.48-4.05-8.32-5.51-2.42-1.24 1.25-.03 2 .22 1.06.35 7.2 3.75 9.11 6.69.56.99-2.08-.72-2.79-1.4Zm-8.4 20.41c-14.64 1.69-7.12-17.23-7.21-16.89-3.42 11.92 3.87 24.24 16.46 9.59 2.19-2.55 2.49-7.9 2.62-8.84.25-.69 4.11 14.3-11.87 16.15Z"/>
    <path class="cls-3" d="M40.12 71.74c-.16-.8 1.25-2.17 2.87-3.87 2.03-2.11 4.41-4.33 4.79-1.9-2.85 1.85-5.33 5.22-7.66 5.77Z"/>
    <path class="cls-7" d="M40.12 71.74c-.16-.8 1.25-2.17 2.87-3.87 2.03-2.11 4.41-4.33 4.79-1.9-2.85 1.85-5.33 5.22-7.66 5.77Z"/>
    <path class="cls-3" d="M54.57 65.3c-1.35-1.21-7.16-4.47-6.3-5.34 2.94.83 16.68 11.1 6.3 5.34Z"/>
    <path class="cls-7" d="M54.57 65.3c-1.35-1.21-7.16-4.47-6.3-5.34 2.94.83 16.68 11.1 6.3 5.34Z"/>
    <path class="cls-3" d="M38.05 67.94c-.33.18-2.61 1.24-2.67 1.1-.44-1.02 7.56-4.83 6.05-6.38-4.84-5.01 5.21-.85.02 2.85-1.13.81-2.07 1.68-3.4 2.44Z"/>
    <path class="cls-7" d="M38.05 67.94c-.33.18-2.61 1.24-2.67 1.1-.44-1.02 7.56-4.83 6.05-6.38-4.84-5.01 5.21-.85.02 2.85-1.13.81-2.07 1.68-3.4 2.44Z"/>
    <path class="cls-3" d="M45.5 58.21c-.53-1.38 6.29-9.28 8.47-10.42 1.95-1.02 6.02-3.37 6.23-3.2.2.17-1.99 1.59-3.11 2.29-4.49 2.81-11.36 11.91-11.58 11.33Z"/>
    <path class="cls-7" d="M45.5 58.21c-.53-1.38 6.29-9.28 8.47-10.42 1.95-1.02 6.02-3.37 6.23-3.2.2.17-1.99 1.59-3.11 2.29-4.49 2.81-11.36 11.91-11.58 11.33Z"/>
    <path class="cls-3" d="M38.23 58.48c-3.04-2.53-12.99-13.94-9.46-17.22.3-.29.64-.02.96.77.65 1.6-.13 2.52.93 4.57 1.06 1.68 9.98 11.08 7.57 11.88Z"/>
    <path class="cls-7" d="M38.23 58.48c-3.04-2.53-12.99-13.94-9.46-17.22.3-.29.64-.02.96.77.65 1.6-.13 2.52.93 4.57 1.06 1.68 9.98 11.08 7.57 11.88Z"/>
    <path class="cls-3" d="M41.89 55.23c-14.12-11.94 7.77 1.08 9.82-18.26.57-5.31 4.08 15.75-10.58 13.14-1.91-.34 2.83 6.87.76 5.12Z"/>
    <path class="cls-7" d="M41.89 55.23c-14.12-11.94 7.77 1.08 9.82-18.26.57-5.31 4.08 15.75-10.58 13.14-1.91-.34 2.83 6.87.76 5.12Z"/>
    <path class="cls-3" d="M1.76 47.19c-.89 5.05.84 9.08 5.53 11.04 3.47 1.45 4.34-.11 9.34-2 1.35-.51-3.15 5.34-9.83 3.47-5.57-1.55-7.87-5-6.14-13.91.63-2.16 1.63.71 1.09 1.4Zm2.13-8.14c1.33-1.27 3.93-3.51 5.97-2.96 2.13.57.55.28 3.1.79.99.2.14 1.27-.03 1.25-1.86-.2-1.27-.67-3.32-.44-1.9.21-4.05 1.04-6.43 4.31-1.47 1.53-2.35-.01.72-2.95Z"/>
    <path class="cls-7" d="M1.76 47.19c-.89 5.05.84 9.08 5.53 11.04 3.47 1.45 4.34-.11 9.34-2 1.35-.51-3.15 5.34-9.83 3.47-5.57-1.55-7.87-5-6.14-13.91.63-2.16 1.63.71 1.09 1.4Zm2.13-8.14c1.33-1.27 3.93-3.51 5.97-2.96 2.13.57.55.28 3.1.79.99.2.14 1.27-.03 1.25-1.86-.2-1.27-.67-3.32-.44-1.9.21-4.05 1.04-6.43 4.31-1.47 1.53-2.35-.01.72-2.95Z"/>
    <path class="cls-3" d="M24.51 52.63c-3.44-3.42-16.4-4.62-6.14-15.33-.38-4.91 14.81-3.61 6.22-2.6-15.98 7.38.11 17.86-.08 17.93Z"/>
    <path class="cls-7" d="M24.51 52.63c-3.44-3.42-16.4-4.62-6.14-15.33-.38-4.91 14.81-3.61 6.22-2.6-15.98 7.38.11 17.86-.08 17.93Z"/>
    <path class="cls-3" d="M73.66 44.69c-3.78.69 7.27-4.55 10.64-10.63 1.42-2.57-.09-6.55-2.13-8.26-.98-.82-4.87-1.07-7.36-.13-2.38.9-6.03 3.71-6.94 3.4-3.96-1.34 9.29-8.04 14.82-4.77 2.91 1.72 4.69 6.89 3.16 10.61-2.16 5.28-9.04 9.22-12.2 9.79Z"/>
    <path class="cls-7" d="M73.66 44.69c-3.78.69 7.27-4.55 10.64-10.63 1.42-2.57-.09-6.55-2.13-8.26-.98-.82-4.87-1.07-7.36-.13-2.38.9-6.03 3.71-6.94 3.4-3.96-1.34 9.29-8.04 14.82-4.77 2.91 1.72 4.69 6.89 3.16 10.61-2.16 5.28-9.04 9.22-12.2 9.79Z"/>
    <path class="cls-3" d="M60.41 44.57c1.92-1.49 6.67-9.89 4.31-13.92-2.15-3.68-4.08-5.48-16.92-2.52-.85.2 19.3-9.39 19.05 9.2 0 .14-.03.29-.09.46-.9 2.5-7.88 7.96-6.34 6.77Z"/>
    <path class="cls-7" d="M60.41 44.57c1.92-1.49 6.67-9.89 4.31-13.92-2.15-3.68-4.08-5.48-16.92-2.52-.85.2 19.3-9.39 19.05 9.2 0 .14-.03.29-.09.46-.9 2.5-7.88 7.96-6.34 6.77Z"/>
    <path class="cls-3" d="M48.66 33.7a2.46 2.46 0 0 1-.53-.17c-1.78-.74-5.39-3.44-8.36-2.14-2.04.89-4.31 1.48-5.83 2.08-3.37 1.33-4.38.7 2.9-2.64 5.51-2.53 15.97 3.57 11.83 2.87Z"/>
    <path class="cls-7" d="M48.66 33.7a2.46 2.46 0 0 1-.53-.17c-1.78-.74-5.39-3.44-8.36-2.14-2.04.89-4.31 1.48-5.83 2.08-3.37 1.33-4.38.7 2.9-2.64 5.51-2.53 15.97 3.57 11.83 2.87Z"/>
    <path d="M29.71 27.81C26.27 26.59 21.1-4.32 33.13.67c4.69.31 7.91-2.38 8.29 1.79-3.94 2.85-7.08 11.95-7.45 16.47.93 10.52-1.95 2.96-1.9-1.44 1-6.86 3.82-9.53 7-15.19-20.62-6.81-5.78 24.5-9.36 25.51Z" style="fill-rule:evenodd;fill:#007a4c"/>
    <path d="M29.71 27.81C26.27 26.59 21.1-4.32 33.13.67c4.69.31 7.91-2.38 8.29 1.79-3.94 2.85-7.08 11.95-7.45 16.47.93 10.52-1.95 2.96-1.9-1.44 1-6.86 3.82-9.53 7-15.19-20.62-6.81-5.78 24.5-9.36 25.51Z" style="stroke:#007a4c;stroke-width:.21px;fill:none;stroke-miterlimit:22.93"/>
    <path class="cls-3" d="M28.17 38.91c.02-.99.67-1.95.85-2.7.22-.93 1.64-2.06 2.28-2.7 1.13-.78 3.32-.18 1.55.76-.57.3-2 2.15-2.17 2.4-1.11 1.55-.38 1.66-.64 2.32-.47 1.21-1.89.95-1.87-.08Z"/>
    <path class="cls-6" d="M28.17 38.91c.02-.99.67-1.95.85-2.7.22-.93 1.64-2.06 2.28-2.7 1.13-.78 3.32-.18 1.55.76-.57.3-2 2.15-2.17 2.4-1.11 1.55-.38 1.66-.64 2.32-.47 1.21-1.89.95-1.87-.08Z"/>
    <path class="cls-3" d="M60.96 85.21c-1.76 1.6-2.25 2.89-4.96 3.68-1.77.52-3.48.65-5.43.77-.37.02-.04 0-1.57-.03-1.51.88-.56 1.79.5 1.98 3.21.6 2.1.76 5.13.38.42-.05 3.96-2.56 4.83-3.26 1.42-1.14 2.61-4.53 1.5-3.53Z"/>
    <path class="cls-6" d="M60.96 85.21c-1.76 1.6-2.25 2.89-4.96 3.68-1.77.52-3.48.65-5.43.77-.37.02-.04 0-1.57-.03-1.51.88-.56 1.79.5 1.98 3.21.6 2.1.76 5.13.38.42-.05 3.96-2.56 4.83-3.26 1.42-1.14 2.61-4.53 1.5-3.53Z"/>
    <path class="cls-3" d="M47.21 33.05c.28.16.99.79 1.37 1.05 1.26.85 2.37 1.2 2.73 2.21a11.64 11.64 0 0 1 .35 1.66c.01.23.14.32.31.34.57.07.7-1.28.55-2.16-.06-.35-.28-.55-.35-.68a12.92 12.92 0 0 0-2.5-2.41c-.65-.46-.97-.32-1.2-.43-.56-.26-2.33-.31-1.24.42Z"/>
    <path class="cls-6" d="M47.21 33.05c.28.16.99.79 1.37 1.05 1.26.85 2.37 1.2 2.73 2.21a11.64 11.64 0 0 1 .35 1.66c.01.23.14.32.31.34.57.07.7-1.28.55-2.16-.06-.35-.28-.55-.35-.68a12.92 12.92 0 0 0-2.5-2.41c-.65-.46-.97-.32-1.2-.43-.56-.26-2.33-.31-1.24.42Z"/>
    <path class="cls-3" d="M40.85 70.23c-.69.73-1.46.94-2.13 1.63-.45.47-1.32 1.45-1.81 1.77-.46.31-.2 1.06.39.46.26-.27 1.29-.74 1.53-.95.65-.57 1.55-1.16 2.2-1.74.14-.12.3-.21.34-.37.03-.09-.07-.25-.02-.36.18-.42.05-1.02-.3-.65l-.2.21Z"/>
    <path class="cls-6" d="M40.85 70.23c-.69.73-1.46.94-2.13 1.63-.45.47-1.32 1.45-1.81 1.77-.46.31-.2 1.06.39.46.26-.27 1.29-.74 1.53-.95.65-.57 1.55-1.16 2.2-1.74.14-.12.3-.21.34-.37.03-.09-.07-.25-.02-.36.18-.42.05-1.02-.3-.65l-.2.21Z"/>
    <path d="M67.02 43.86a8.17 8.17 0 0 0-5.56.15c-.72.35-1.46.64-2.13 1.02-.63.36-.63.83-1.34.88" style="fill:none;stroke-miterlimit:22.93;stroke:#e30613;stroke-width:.27px"/>
    <path class="cls-3" d="M48.27 59.96c1.25-.73 2.35-1.14 3.44-2 1.69-1.33 3.1-2.81 5.04-3.7.69-.31.35.95-.6 1.01-1.94.12-6.29 7.44-7.88 4.7Z"/>
    <path class="cls-7" d="M48.27 59.96c1.25-.73 2.35-1.14 3.44-2 1.69-1.33 3.1-2.81 5.04-3.7.69-.31.35.95-.6 1.01-1.94.12-6.29 7.44-7.88 4.7Z"/>
    <path class="cls-3" d="M47.48 65.17c1.59 1.33 2.55 2.23 3.84 3.4 1.07.98 2.07 1.78 3.15 3.02.45.52-1.26.04-1.6-.39a9.49 9.49 0 0 0-3.75-2.86c-1.64-.77-2.39-1.35-1.65-3.17Z"/>
    <path class="cls-7" d="M47.48 65.17c1.59 1.33 2.55 2.23 3.84 3.4 1.07.98 2.07 1.78 3.15 3.02.45.52-1.26.04-1.6-.39a9.49 9.49 0 0 0-3.75-2.86c-1.64-.77-2.39-1.35-1.65-3.17Z"/>
    <path class="cls-2" d="M97.98 90.61h282.1v.84H97.98z"/>
  </g>
</svg>
