<?xml version="1.0" encoding="UTF-8"?>
<svg xmlns="http://www.w3.org/2000/svg" viewBox="0 0 415.56 112.48"><path d="M3.89 30.99c-3 0-3.89.94-3.89 3.94V53.2c.02 2.36.96 3.36 3.31 3.36h31.4c11.57-.12 21.84-10 21.84-21.43.08-3.15-.87-4.14-4.05-4.14zm49.13-5.43c2.56 0 3.56-1 3.57-3.51V3.42c0-2.42-1-3.44-3.47-3.44h-31.1a22 22 0 0 0-22 21.66c0 2.94.84 4 3.83 4z" fill="#00bedd" fill-rule="evenodd"/><path d="M151.52 33.3c0 2.92-.2 5.59.05 8.21.33 3.34 2.82 5.34 6.18 5.34h23.06a4.72 4.72 0 0 1 4.49 2.64 4.67 4.67 0 0 1-.28 4.88 4.41 4.41 0 0 1-3.84 2.19c-8.28 0-16.56.16-24.84 0a15.09 15.09 0 0 1-14.6-15.11q-.1-13.48 0-27c0-7.52 7-14.32 14.46-14.36h18.27a15.66 15.66 0 0 1 15.89 15.92v11.17c0 4.5-1.59 6.12-6 6.12h-32.84zm29-9.89c0-2.63.05-5 .05-7.58a6 6 0 0 0-5.81-6.1c-5.79 0-11.59-.07-17.38 0a5.92 5.92 0 0 0-5.86 6.1v7.58zm-65.16 33.15c9 0 17.57-5 17.37-16.76-.14-8.23-6.31-16.45-16.61-16.45h-15.79c-4 0-6.44-2.65-6.41-6.84s2.34-6.55 6.43-6.55h15.79c3.79 0 5.93 2.09 6.09 5.86.13 3 2.14 5.12 4.82 5.06a5.19 5.19 0 0 0 5-5.18A15.41 15.41 0 0 0 117.15.08h-16.13c-8.84 0-16 5.05-16.7 15.24-.76 11.32 7.7 17.87 16.07 17.87 5.23 0 10.41-.07 15.61-.05a7.27 7.27 0 0 1 5.08 1.68c2.21 1.93 2.28 5.74 1.48 8.1-.86 2.52-3.1 3.84-6.18 3.85h-16c-4.27 0-6.44-2-6.84-6.21-.31-3.22-2-4.83-5-4.7a4.87 4.87 0 0 0-4.6 5.09c-.1 7.13 4.18 15.61 14.77 15.61zm228 0c9 0 17.58-5 17.38-16.76-.15-8.23-6.32-16.45-16.61-16.45h-15.8c-4 0-6.44-2.65-6.41-6.84s2.35-6.55 6.43-6.55h15.8c3.78 0 5.92 2.09 6.08 5.86.13 3 2.14 5.12 4.82 5.06a5.2 5.2 0 0 0 5-5.18A15.42 15.42 0 0 0 345.16.08h-16.14c-8.84 0-16 5.05-16.7 15.24-.75 11.32 7.73 17.87 16.08 17.87 5.23 0 10.41-.07 15.62-.05a7.26 7.26 0 0 1 5.07 1.68c2.21 1.93 2.28 5.74 1.48 8.1-.85 2.52-3.09 3.84-6.17 3.85h-16c-4.26 0-6.43-2-6.84-6.21-.31-3.22-2-4.83-5-4.7a4.86 4.86 0 0 0-4.54 5.09c-.13 7.13 4.16 15.6 14.74 15.6zm-49.34-33.38c0-2.86.12-5.46 0-8s-2.7-4.82-5.65-4.86c-5.5-.09-11-.05-16.5-.05h-4.61a4.91 4.91 0 0 1-5-4.86A4.85 4.85 0 0 1 267.4.68c7.16 0 14.31-.05 21.47 0a14.77 14.77 0 0 1 14.86 14.36c.21 12.12.07 24.25.05 36.37 0 2.19-.92 3.9-3.08 4.55s-4.28-.1-6.09-2.53c-.85.47-1.7 1-2.57 1.44a14.93 14.93 0 0 1-7.39 1.69c-4.49-.09-9 0-13.49 0a15.58 15.58 0 0 1-15.46-14 21.26 21.26 0 0 1 1-9.59 14.14 14.14 0 0 1 13.73-9.8h21.29zm-.06 9.69H271.2c-4.09 0-6.24 3.34-6.24 6.76 0 5 3.82 7.27 7.6 7.27h13.46c3.67 0 7.92-2.17 7.92-6v-8zm111.86-9.69c0-2.86.11-5.46 0-8s-2.7-4.82-5.65-4.86c-5.5-.09-11-.05-16.5-.05h-4.61a4.91 4.91 0 0 1-5.04-4.91 4.85 4.85 0 0 1 5.14-4.73c7.15 0 14.31-.05 21.47 0a14.77 14.77 0 0 1 14.86 14.36c.21 12.12.07 24.25.05 36.37 0 2.19-.92 3.9-3.08 4.55s-4.28-.1-6.09-2.53c-.85.47-1.7 1-2.57 1.44a14.93 14.93 0 0 1-7.35 1.74c-4.49-.09-9 0-13.49 0a15.58 15.58 0 0 1-15.46-14 21.26 21.26 0 0 1 1-9.59 14.14 14.14 0 0 1 13.73-9.8h21.29zm-.06 9.69h-22.74c-4.08 0-6.23 3.34-6.23 6.76 0 5 3.82 7.27 7.6 7.27h13.48c3.67 0 7.92-2.17 7.92-6v-8zM203.12.85a4.79 4.79 0 0 0-3.25 4.6v46.32a5.37 5.37 0 0 0 .88 2.79 4.8 4.8 0 0 0 8.75-3.13V16.65a5.57 5.57 0 0 1 2.18-4.56c2-1.76 4.43-2.24 7.22-2.24h14.19c3.81 0 5.8 2.8 5.81 6.7q.06 15.71.09 31.41c0 1.42-.07 2.85.05 4.26a4.78 4.78 0 0 0 5.12 4.34 4.45 4.45 0 0 0 4.43-4.58c0-12.19.15-24.37-.06-36.56a15.7 15.7 0 0 0-16-15.34h-11c-4.46 0-8.58.47-12.29 3.25-2.13-2.57-3.9-3.26-6.12-2.48zM84.29 92.14l.87-.86a4.13 4.13 0 0 0 1.47 1 4.81 4.81 0 0 0 1.74.28 3.29 3.29 0 0 0 2-.57 1.93 1.93 0 0 0 .74-1.61 2.33 2.33 0 0 0-.09-.82 1.4 1.4 0 0 0-.42-.63 1.26 1.26 0 0 0-.58-.37c-.21 0-.52-.12-.94-.24l-1.38-.22a4.48 4.48 0 0 1-2.17-.88 2.77 2.77 0 0 1-.89-2.2 3.38 3.38 0 0 1 .26-1.37 2.7 2.7 0 0 1 .75-1.06 3.47 3.47 0 0 1 1.19-.68 4.81 4.81 0 0 1 1.58-.24 5.58 5.58 0 0 1 1.93.31 5.08 5.08 0 0 1 1.58 1l-.81.82a3.74 3.74 0 0 0-2.75-1 2.64 2.64 0 0 0-1.84.58 2 2 0 0 0-.65 1.55 1.8 1.8 0 0 0 .46 1.33 2.28 2.28 0 0 0 .62.4 4.15 4.15 0 0 0 .78.24l1.3.23.75.13a3.62 3.62 0 0 1 .61.16 4 4 0 0 1 .51.23 2.38 2.38 0 0 1 .43.3 2.83 2.83 0 0 1 1.08 2.41 3.19 3.19 0 0 1-.3 1.4 2.8 2.8 0 0 1-.83 1 3.85 3.85 0 0 1-1.29.67 5.84 5.84 0 0 1-1.66.23 6.19 6.19 0 0 1-2.32-.33 4.94 4.94 0 0 1-1.77-1.19zm10.49 1.42V81.8h7.33v1.12h-6.09v4.17h5.18v1.12h-5.18v4.27h6.07v1.08zm9.68 0V81.8h4.56a4.25 4.25 0 0 1 1.41.22 3.18 3.18 0 0 1 1.12.65 2.86 2.86 0 0 1 .72 1 3.49 3.49 0 0 1 .25 1.37 3.11 3.11 0 0 1-.71 2.12 3.23 3.23 0 0 1-1.86 1.06l2.8 5.34h-1.47l-2.69-5.22h-2.87v5.22zm1.26-6.35h3.15a2.6 2.6 0 0 0 1.7-.53 2 2 0 0 0 .65-1.63 2 2 0 0 0-.65-1.63 2.6 2.6 0 0 0-1.7-.54h-3.15v4.33zm7.76-5.45h1.33l3.07 9.54 3.06-9.54h1.33l-3.88 11.8h-1l-3.89-11.8zm10.36 11.8V81.8h1.27v11.76zm4-5.9v-1.65a7.7 7.7 0 0 1 .12-1.26 3.79 3.79 0 0 1 .33-1 3.88 3.88 0 0 1 .64-.87 4.32 4.32 0 0 1 1.37-.91 4.58 4.58 0 0 1 1.66-.31 4.36 4.36 0 0 1 1.47.24 4 4 0 0 1 1.22.69 3.88 3.88 0 0 1 .9 1.1 5.06 5.06 0 0 1 .5 1.48h-1.3a3.06 3.06 0 0 0-1-1.73 2.61 2.61 0 0 0-1.83-.65 3 3 0 0 0-1.12.21 2.69 2.69 0 0 0-.92.61 2.34 2.34 0 0 0-.45.61 3.11 3.11 0 0 0-.25.78 7.84 7.84 0 0 0-.11 1.09v3.14a7.84 7.84 0 0 0 .11 1.09 3.11 3.11 0 0 0 .25.78 2.34 2.34 0 0 0 .45.61 2.56 2.56 0 0 0 .92.61 3 3 0 0 0 1.12.21 2.7 2.7 0 0 0 1.85-.65 3.07 3.07 0 0 0 1-1.73h1.25a5.27 5.27 0 0 1-.5 1.48 3.88 3.88 0 0 1-.9 1.1 4 4 0 0 1-1.22.69 4.54 4.54 0 0 1-3.13-.08 4.29 4.29 0 0 1-1.37-.9 3.88 3.88 0 0 1-.64-.87 3.79 3.79 0 0 1-.33-1 7.7 7.7 0 0 1-.12-1.26v-1.65zm10.7 5.9V81.8h1.26v11.76zm4-5.9v-1.65a8.9 8.9 0 0 1 .13-1.26 3.79 3.79 0 0 1 .33-1 3.35 3.35 0 0 1 .64-.87 4.34 4.34 0 0 1 6 0 3.88 3.88 0 0 1 .64.87 3.79 3.79 0 0 1 .33 1 7.7 7.7 0 0 1 .12 1.26v3.3a7.7 7.7 0 0 1-.12 1.26 3.79 3.79 0 0 1-.33 1 3.35 3.35 0 0 1-.64.87 4.27 4.27 0 0 1-1.36.91 4.48 4.48 0 0 1-1.65.31 4.14 4.14 0 0 1-3-1.22 3.35 3.35 0 0 1-.64-.87 3.79 3.79 0 0 1-.33-1 8.9 8.9 0 0 1-.13-1.26v-1.65zm1.26 0v1.57a9.3 9.3 0 0 0 .11 1.08 2.9 2.9 0 0 0 .25.77 2.34 2.34 0 0 0 .45.61 2.82 2.82 0 0 0 .92.62 3 3 0 0 0 2.24 0 2.93 2.93 0 0 0 .92-.62 2.3 2.3 0 0 0 .44-.61 2.9 2.9 0 0 0 .25-.77 9.3 9.3 0 0 0 .11-1.08v-1.57-1.57a9.3 9.3 0 0 0-.11-1.08 2.9 2.9 0 0 0-.25-.77 2.55 2.55 0 0 0-.44-.61 2.82 2.82 0 0 0-.92-.62 2.94 2.94 0 0 0-1.12-.22 2.87 2.87 0 0 0-1.12.22 2.82 2.82 0 0 0-.92.62 2.34 2.34 0 0 0-.45.61 2.9 2.9 0 0 0-.25.77 9.3 9.3 0 0 0-.11 1.08v1.57zm13.51 5.9V81.8h1.19l6.27 9.43V81.8h1.25v11.76h-1.2l-6.26-9.46v9.46zm10.36 0l4.35-11.76h1.06l4.32 11.76h-1.38l-.94-2.64h-5.16l-.9 2.64zm2.66-3.76h4.41l-2.18-6.24-2.23 6.24zm8.26-2.14v-1.65a8.9 8.9 0 0 1 .13-1.26 3.79 3.79 0 0 1 .33-1 3.35 3.35 0 0 1 .64-.87 4.21 4.21 0 0 1 1.37-.91 4.48 4.48 0 0 1 1.65-.31 4.36 4.36 0 0 1 1.47.24 3.75 3.75 0 0 1 1.22.69 3.88 3.88 0 0 1 .9 1.1 4.78 4.78 0 0 1 .5 1.48h-1.28a3.13 3.13 0 0 0-1-1.73 2.6 2.6 0 0 0-1.83-.65 3.05 3.05 0 0 0-1.12.21 2.79 2.79 0 0 0-.92.61 2.3 2.3 0 0 0-.44.61 3.1 3.1 0 0 0-.26.78 8 8 0 0 0-.1 1.09v3.14a8 8 0 0 0 .1 1.09 3.1 3.1 0 0 0 .26.78 2.3 2.3 0 0 0 .44.61 2.64 2.64 0 0 0 .92.61 3.05 3.05 0 0 0 1.12.21 2.66 2.66 0 0 0 1.85-.65 3.08 3.08 0 0 0 1-1.73h1.26a5 5 0 0 1-.5 1.48 3.88 3.88 0 0 1-.9 1.1 3.75 3.75 0 0 1-1.22.69 4.36 4.36 0 0 1-1.47.24 4.29 4.29 0 0 1-1.65-.32 4.18 4.18 0 0 1-1.37-.9 3.35 3.35 0 0 1-.64-.87 3.79 3.79 0 0 1-.33-1 8.9 8.9 0 0 1-.13-1.26v-1.65zm10.73 5.9V81.8h1.27v11.76zm4-5.9v-1.65a7.7 7.7 0 0 1 .12-1.26 3.79 3.79 0 0 1 .33-1 3.6 3.6 0 0 1 .64-.87 4.34 4.34 0 0 1 6 0 3.35 3.35 0 0 1 .64.87 3.79 3.79 0 0 1 .33 1 7.64 7.64 0 0 1 .13 1.26v3.3a7.64 7.64 0 0 1-.13 1.26 4.19 4.19 0 0 1-.32 1 3.4 3.4 0 0 1-.65.87 4.27 4.27 0 0 1-1.36.91 4.41 4.41 0 0 1-1.65.31 4.14 4.14 0 0 1-3-1.22 3.6 3.6 0 0 1-.64-.87 3.79 3.79 0 0 1-.33-1 7.7 7.7 0 0 1-.12-1.26v-1.65zm1.27 0v1.57a7.52 7.52 0 0 0 .11 1.08 2.9 2.9 0 0 0 .25.77 2.34 2.34 0 0 0 .45.61 2.71 2.71 0 0 0 .92.62 2.82 2.82 0 0 0 1.11.22 2.87 2.87 0 0 0 1.12-.22 2.82 2.82 0 0 0 .92-.62 2.34 2.34 0 0 0 .45-.61 2.91 2.91 0 0 0 .24-.77 6.32 6.32 0 0 0 .11-1.08v-1.57-1.57a6.32 6.32 0 0 0-.11-1.08 2.58 2.58 0 0 0-.25-.77 2.3 2.3 0 0 0-.44-.61 2.71 2.71 0 0 0-.92-.62 2.87 2.87 0 0 0-1.12-.22 2.82 2.82 0 0 0-1.11.22 2.71 2.71 0 0 0-.92.62 2.34 2.34 0 0 0-.45.61 2.9 2.9 0 0 0-.25.77 7.52 7.52 0 0 0-.11 1.08v1.57zm9.69 5.9V81.8h1.19l6.27 9.43V81.8H213v11.76h-1.2l-6.26-9.46v9.46zm10.36 0l4.34-11.8h1.04l4.31 11.8h-1.31l-1-2.6h-5.16l-1 2.64zm2.66-3.76h4.41l-2.22-6.24-2.23 6.24zm8.7 3.76V81.8h1.27v10.68h6v1.08zm13.02 0V81.8h4a4.85 4.85 0 0 1 1.7.28 3.48 3.48 0 0 1 2 1.83 5.16 5.16 0 0 1 .34 1.16 8.54 8.54 0 0 1 .11 1.25v2.54a9.67 9.67 0 0 1-.11 1.33 5.61 5.61 0 0 1-.34 1.25 3 3 0 0 1-.71 1.07 3.5 3.5 0 0 1-1.29.81 4.79 4.79 0 0 1-1.69.28zm1.26-1.12h2.57a4.28 4.28 0 0 0 1.27-.19 2.61 2.61 0 0 0 1.05-.68 2.15 2.15 0 0 0 .46-.78 4.74 4.74 0 0 0 .23-1 10 10 0 0 0 .08-1.12v-1.12-1.09a8.43 8.43 0 0 0-.08-1 4 4 0 0 0-.23-.92 2.15 2.15 0 0 0-.46-.74 2.58 2.58 0 0 0-1.05-.67 3.93 3.93 0 0 0-1.27-.2h-2.57v9.56zm9.66 1.12V81.8h7.32v1.12h-6.06v4.17h5.17v1.12h-5.17v4.27h6.06v1.08zm12.51-1.46l.87-.86a4.13 4.13 0 0 0 1.47 1 4.89 4.89 0 0 0 1.74.28 3.27 3.27 0 0 0 2-.57 1.91 1.91 0 0 0 .75-1.61 2.34 2.34 0 0 0-.15-.85 1.4 1.4 0 0 0-.42-.63 1.26 1.26 0 0 0-.6-.32c-.21 0-.52-.12-.94-.24l-1.37-.22a4.44 4.44 0 0 1-2.17-.88 2.78 2.78 0 0 1-.9-2.2 3.56 3.56 0 0 1 .26-1.37 2.92 2.92 0 0 1 .75-1.06 3.56 3.56 0 0 1 1.19-.68 4.81 4.81 0 0 1 1.58-.24 5.64 5.64 0 0 1 1.94.31 5.16 5.16 0 0 1 1.57 1l-.81.82a4.05 4.05 0 0 0-1.18-.75 4 4 0 0 0-1.57-.26 2.66 2.66 0 0 0-1.84.58 2 2 0 0 0-.6 1.61 1.77 1.77 0 0 0 .47 1.33 2 2 0 0 0 .62.4 3.74 3.74 0 0 0 .78.24l1.3.23.74.13a3.39 3.39 0 0 1 .61.16 3 3 0 0 1 .51.23 2.08 2.08 0 0 1 .43.3 2.83 2.83 0 0 1 1.11 2.38 3.34 3.34 0 0 1-.29 1.4 2.9 2.9 0 0 1-.83 1 3.9 3.9 0 0 1-1.3.67 5.79 5.79 0 0 1-1.66.23 6.26 6.26 0 0 1-2.28-.37 4.94 4.94 0 0 1-1.77-1.19zm9 1.46l4.34-11.8h1.06l4.32 11.8h-1.35l-.94-2.64h-5.16l-.95 2.64zm2.66-3.76h4.41l-2.19-6.24-2.23 6.24zm8.7 3.76V81.8h1.21l6.28 9.43V81.8h1.26v11.76h-1.2l-6.26-9.46v9.46zm11.87 0V81.8h1.26v11.76zm4.41 0V81.8h4a4.85 4.85 0 0 1 1.7.28 3.48 3.48 0 0 1 2 1.83 5.16 5.16 0 0 1 .34 1.16 8.54 8.54 0 0 1 .11 1.25v2.54a9.67 9.67 0 0 1-.11 1.33 5.61 5.61 0 0 1-.34 1.25 3 3 0 0 1-.71 1.07 3.5 3.5 0 0 1-1.29.81 4.79 4.79 0 0 1-1.69.28zm1.26-1.12h2.57a4.28 4.28 0 0 0 1.27-.19 2.68 2.68 0 0 0 1-.68 2.15 2.15 0 0 0 .46-.78 4.74 4.74 0 0 0 .23-1 10 10 0 0 0 .08-1.12v-2.19a8.43 8.43 0 0 0-.08-1 4 4 0 0 0-.23-.92 2.15 2.15 0 0 0-.46-.74 2.58 2.58 0 0 0-1-.67 3.93 3.93 0 0 0-1.27-.2h-2.57v9.56zm8.11 1.12l4.34-11.8h1.06l4.33 11.8h-1.34l-.95-2.64h-5.16l-.94 2.64zm2.66-3.76h4.41l-2.18-6.24-2.23 6.24zm8.71 3.76V81.8h4a4.76 4.76 0 0 1 1.69.28 3.42 3.42 0 0 1 1.29.81 3.48 3.48 0 0 1 .71 1 5.16 5.16 0 0 1 .34 1.16 8.54 8.54 0 0 1 .11 1.25v2.54a9.67 9.67 0 0 1-.11 1.33 5.61 5.61 0 0 1-.34 1.25 3.18 3.18 0 0 1-.71 1.07 3.5 3.5 0 0 1-1.29.81 4.79 4.79 0 0 1-1.69.28zm1.26-1.12h2.56a4.3 4.3 0 0 0 1.28-.19 2.75 2.75 0 0 0 1-.68 2.15 2.15 0 0 0 .46-.78 4.74 4.74 0 0 0 .23-1 10 10 0 0 0 .08-1.12v-2.19a8.43 8.43 0 0 0-.08-1 4 4 0 0 0-.23-.92 2.15 2.15 0 0 0-.46-.74 2.58 2.58 0 0 0-1-.67 4 4 0 0 0-1.28-.2h-2.56v9.56zm-237.37 8.12h1.36l2.79 5.65 2.76-5.65h1.39l-3.51 7v4.87h-1.27v-4.87l-3.52-7zm13.24 5.9v-1.65a7.7 7.7 0 0 1 .12-1.26 3.79 3.79 0 0 1 .33-1 3.15 3.15 0 0 1 .64-.86 4 4 0 0 1 1.37-.91 4.29 4.29 0 0 1 1.65-.31 4.73 4.73 0 0 1 1.48.23 4 4 0 0 1 1.22.69 3.84 3.84 0 0 1 .89 1.1 4.59 4.59 0 0 1 .5 1.49h-1.29a3.17 3.17 0 0 0-1-1.74 2.69 2.69 0 0 0-1.84-.65 2.87 2.87 0 0 0-1.12.22 2.4 2.4 0 0 0-.91.61 2.3 2.3 0 0 0-.45.6 2.75 2.75 0 0 0-.25.78 6.58 6.58 0 0 0-.11 1.1v3.13a6.45 6.45 0 0 0 .11 1.09 2.56 2.56 0 0 0 .25.78 2.34 2.34 0 0 0 .45.61 2.52 2.52 0 0 0 .91.61 3.06 3.06 0 0 0 1.12.22 2.71 2.71 0 0 0 1.85-.65 3.08 3.08 0 0 0 1-1.74h1.26a4.62 4.62 0 0 1-.5 1.48 3.59 3.59 0 0 1-.89 1.1 4 4 0 0 1-1.22.69 4.46 4.46 0 0 1-1.48.24 4.29 4.29 0 0 1-1.65-.31 4.49 4.49 0 0 1-1.37-.91 3.31 3.31 0 0 1-.64-.86 3.86 3.86 0 0 1-.33-1 7.7 7.7 0 0 1-.12-1.26v-1.65zm9.23 5.9l4.34-11.8h1.06l4.33 11.8h-1.35l-.94-2.63h-5.16l-1 2.63zm2.66-3.76h4.41l-2.18-6.23-2.23 6.23zm8.71 3.76v-11.8h1.26v10.7h6v1.12zm9.22 0v-11.8h1.24v11.8zm4.41 0v-11.8h4.05a4.79 4.79 0 0 1 1.69.28 3.48 3.48 0 0 1 1.28.82 3.15 3.15 0 0 1 .71 1 4.76 4.76 0 0 1 .34 1.17 7.15 7.15 0 0 1 .11 1.24v2.54a8.55 8.55 0 0 1-.11 1.34 5.38 5.38 0 0 1-.34 1.25 3.09 3.09 0 0 1-.71 1.06 3.3 3.3 0 0 1-1.29.81 4.78 4.78 0 0 1-1.68.28zm1.26-1.12h2.57a4.23 4.23 0 0 0 1.27-.19 2.51 2.51 0 0 0 1-.68 2.32 2.32 0 0 0 .47-.78 5.25 5.25 0 0 0 .23-1c0-.36.06-.73.07-1.12s0-.75 0-1.12v-1.09c0-.36 0-.7-.07-1a4.52 4.52 0 0 0-.23-.93 2.46 2.46 0 0 0-.47-.74 2.73 2.73 0 0 0-1-.67 4 4 0 0 0-1.28-.19h-2.57v9.55zm8.12 1.12l4.34-11.8h1.11l4.33 11.8h-1.34l-.95-2.63h-5.16l-.94 2.63zm2.66-3.76h4.42l-2.19-6.23-2.23 6.23zm8.71 3.76v-11.8h4a4.81 4.81 0 0 1 1.7.28 3.48 3.48 0 0 1 1.28.82 3.15 3.15 0 0 1 .71 1 5.24 5.24 0 0 1 .34 1.17 8.29 8.29 0 0 1 .11 1.24v2.54a10 10 0 0 1-.11 1.34 5.92 5.92 0 0 1-.34 1.25 3.09 3.09 0 0 1-.71 1.06 3.3 3.3 0 0 1-1.29.81 4.79 4.79 0 0 1-1.69.28zm1.26-1.12h2.57a4.28 4.28 0 0 0 1.27-.19 2.51 2.51 0 0 0 1-.68 2.15 2.15 0 0 0 .46-.78 4.11 4.11 0 0 0 .23-1 10 10 0 0 0 .08-1.12v-1.12-1.09a8.27 8.27 0 0 0-.08-1 3.52 3.52 0 0 0-.23-.93 2.25 2.25 0 0 0-.46-.74 2.73 2.73 0 0 0-1-.67 4 4 0 0 0-1.28-.19h-2.57v9.55zm12 1.12l4.34-11.8h1.06l4.33 11.8h-1.34l-.95-2.63h-5.15l-.95 2.63zm2.67-3.76h4.41l-2.26-6.21-2.22 6.23zm8.26-2.13v-1.66a7.58 7.58 0 0 1 .12-1.25 3.43 3.43 0 0 1 .34-1 3.33 3.33 0 0 1 .63-.86 4.06 4.06 0 0 1 3-1.22 4.54 4.54 0 0 1 1.55.25 3.62 3.62 0 0 1 1.23.73 3.67 3.67 0 0 1 .87 1.12 4.73 4.73 0 0 1 .48 1.43h-1.26a3.14 3.14 0 0 0-1-1.77 2.75 2.75 0 0 0-1.86-.64 3.06 3.06 0 0 0-1.12.22 2.71 2.71 0 0 0-.92.62 2.34 2.34 0 0 0-.45.61 3 3 0 0 0-.25.77 7.68 7.68 0 0 0-.11 1.09v3.13a7.52 7.52 0 0 0 .11 1.09 3.06 3.06 0 0 0 .25.79 2.48 2.48 0 0 0 .45.6 2.43 2.43 0 0 0 .92.61 3 3 0 0 0 2.35 0 2.72 2.72 0 0 0 1-.75 2.67 2.67 0 0 0 .51-.93 4.28 4.28 0 0 0 .15-1.2v-.9h-2.9v-1.12h4.16v1.88a5.63 5.63 0 0 1-.23 1.75 3.44 3.44 0 0 1-.78 1.29 4.17 4.17 0 0 1-3.14 1.36 4.38 4.38 0 0 1-1.66-.31 4.27 4.27 0 0 1-1.36-.91 3.31 3.31 0 0 1-.64-.86 3.58 3.58 0 0 1-.34-1 7.7 7.7 0 0 1-.12-1.26v-1.65zm10.89 5.91v-11.82h4.53a4.25 4.25 0 0 1 1.41.23 3.05 3.05 0 0 1 1.11.64 2.94 2.94 0 0 1 .72 1 3.52 3.52 0 0 1 .26 1.37 3.12 3.12 0 0 1-.72 2.13 3.16 3.16 0 0 1-1.86 1l2.8 5.34h-1.47l-2.69-5.22h-2.83v5.22zm1.26-6.34h3.15a2.64 2.64 0 0 0 1.7-.53 2.34 2.34 0 0 0 0-3.26 2.59 2.59 0 0 0-1.7-.54h-3.15v4.33zm8.9.44v-1.65a8.9 8.9 0 0 1 .13-1.26 3.79 3.79 0 0 1 .33-1 3.15 3.15 0 0 1 .64-.86 4.34 4.34 0 0 1 6 0 3.37 3.37 0 0 1 .64.86 3.79 3.79 0 0 1 .33 1 7.7 7.7 0 0 1 .12 1.26v3.3a7.7 7.7 0 0 1-.12 1.26 3.86 3.86 0 0 1-.33 1 3.31 3.31 0 0 1-.64.86 4.12 4.12 0 0 1-1.36.91 4.29 4.29 0 0 1-1.65.31 4.14 4.14 0 0 1-3-1.22 3.31 3.31 0 0 1-.64-.86 3.86 3.86 0 0 1-.33-1 8.9 8.9 0 0 1-.13-1.26v-1.65zm1.26 0v1.57a7.67 7.67 0 0 0 .1 1.08 2.75 2.75 0 0 0 .26.78 2.71 2.71 0 0 0 .44.6 2.67 2.67 0 0 0 .92.62 2.84 2.84 0 0 0 2.24 0 2.77 2.77 0 0 0 .92-.62 2.43 2.43 0 0 0 .44-.6 3.11 3.11 0 0 0 .25-.78 9.3 9.3 0 0 0 .11-1.08v-1.57-1.56a9.26 9.26 0 0 0-.11-1.09 3 3 0 0 0-.25-.77 2.55 2.55 0 0 0-.44-.61 2.82 2.82 0 0 0-.92-.62 3.1 3.1 0 0 0-1.12-.22 3.06 3.06 0 0 0-1.12.22 2.82 2.82 0 0 0-.92.62 2.55 2.55 0 0 0-.44.61 2.68 2.68 0 0 0-.26.77 7.68 7.68 0 0 0-.1 1.09v1.56zm8.19 5.9l4.39-11.82h1l4.33 11.8h-1.33l-1-2.63h-5.15l-.95 2.63zm2.66-3.76h4.41l-2.19-6.23-2.22 6.23zm8.7 3.76v-11.82h1.26v10.7h6v1.12zm9.23 0v-11.82h1.26v11.8zm4.41 0v-11.82h1.26l3.84 8.37 3.75-8.37h1.26v11.8h-1.26v-9l-3.21 7.2h-1.07l-3.28-7.11v9zm13.25 0v-11.82h7.33v1.13h-6.06v4.16h5.17v1.12h-5.17v4.27h6.06v1.12zm9.68 0v-11.82h1.19l6.27 9.43v-9.43h1.26v11.8h-1.16l-6.27-9.46v9.46zm10.65-10.67v-1.15h8.1v1.13h-3.39v10.67h-1.26v-10.65zm8.53 10.67l4.34-11.8h1.06l4.33 11.8h-1.35l-.94-2.63h-5.16l-.95 2.63zm2.66-3.76h4.41l-2.18-6.23-2.23 6.23zm8.7 3.76v-11.82h4.53a4.25 4.25 0 0 1 1.41.23 3.1 3.1 0 0 1 1.12.64 2.94 2.94 0 0 1 .72 1 3.52 3.52 0 0 1 .25 1.37 3.17 3.17 0 0 1-.71 2.13 3.22 3.22 0 0 1-1.86 1l2.8 5.34h-1.44l-2.69-5.22h-2.83v5.22zm1.27-6.34h3.15a2.61 2.61 0 0 0 1.69-.53 2.34 2.34 0 0 0 0-3.26 2.56 2.56 0 0 0-1.69-.54h-3.15v4.33zm9.34 6.34v-11.82h1.31v11.8zm2.9 0l4.41-11.82h1l4.33 11.8h-1.33l-.94-2.63h-5.16l-.95 2.63zm2.66-3.76h4.41l-2.18-6.23z" fill="#8d918b" fill-rule="evenodd"/></svg>