<?xml version="1.0" encoding="UTF-8"?>
<svg id="Capa_2" data-name="Capa 2" xmlns="http://www.w3.org/2000/svg" viewBox="0 0 74.99 81.77">
  <defs>
    <style>
      .cls-1 {
        fill: #375542;
      }
    </style>
  </defs>
  <g id="Capa_1-2" data-name="Capa 1">
    <g>
      <path class="cls-1" d="M27.95,56.11l.79,.28c.69,.24,1.46-.06,1.8-.71,1.24-2.35,4.26-7.82,7.23-11.03,.49-.53,.54-1.33,.11-1.9l-.17-.23c-.56-.75-1.66-.8-2.28-.1-1.84,2.05-5.35,6.18-7.55,10.15-1.48-.43-3.46-1.06-6.33-2.01-10.46-3.48-17.48-1.45-20.56-.07-.96,.43-1.29,1.63-.68,2.49l.04,.06c.46,.66,1.33,.9,2.07,.57,.83-.37,2.07-.82,3.69-1.14,2.96-.58,7.86-.82,14.35,1.34,2.85,.95,5.3,1.69,7.35,2.23,.05,.02,.09,.05,.14,.07Z"/>
      <path class="cls-1" d="M31.82,12.43c.92,.45,1.88,.63,2.93,.51-1.17-2.44-2.41-4.8-3.34-7.29l.14-.1c1.49,1.46,2.99,2.91,4.53,4.42,.08-.53,.19-1.05,.22-1.57,.14-1.98-.43-3.72-1.87-5.11-1.77-1.71-3.95-2.47-6.36-2.69-.39-.04-.42,.2-.44,.47-.2,2.35-.1,4.67,.7,6.91,.67,1.86,1.59,3.54,3.48,4.46Z"/>
      <path class="cls-1" d="M30.87,22.25c-1.98-.33-3.78,.07-5.32,1.39-1.9,1.61-2.86,3.74-3.32,6.14-.07,.39,.16,.44,.43,.49,2.34,.43,4.69,.55,7.03-.04,1.93-.49,3.71-1.26,4.82-3.08,.54-.88,.81-1.83,.8-2.9-2.57,.94-5.06,1.96-7.65,2.66-.03-.05-.06-.1-.09-.15,1.61-1.36,3.22-2.73,4.88-4.13-.52-.13-1.04-.29-1.56-.38Z"/>
      <path class="cls-1" d="M44.62,25.29c.06,.48,.09,.96,.18,1.42,.35,1.76,1.26,3.14,2.84,4.02,1.95,1.08,4.04,1.22,6.2,.84,.35-.06,.32-.27,.28-.51-.38-2.1-1.02-4.11-2.26-5.87-1.03-1.46-2.23-2.71-4.1-3.07-.91-.17-1.79-.1-2.68,.25,1.6,1.86,3.24,3.62,4.65,5.57-.03,.04-.07,.08-.1,.13-1.65-.92-3.3-1.83-5-2.78Z"/>
      <path class="cls-1" d="M47.16,16.17c3.39-1.13,4.38-4.38,4.38-4.38-4.8-.42-4.38,4.38-4.38,4.38Z"/>
      <path class="cls-1" d="M57.29,8.22c-1.51,.97-3.03,1.94-4.59,2.95,.43,.17,.84,.36,1.28,.49,1.64,.5,3.21,.36,4.66-.57,1.79-1.15,2.84-2.84,3.5-4.82,.11-.32-.09-.39-.31-.46-1.94-.63-3.91-1-5.95-.76-1.69,.2-3.28,.65-4.43,2.06-.56,.69-.89,1.45-1,2.36,2.28-.5,4.5-1.09,6.78-1.39,.02,.05,.04,.09,.06,.14Z"/>
      <path class="cls-1" d="M74.7,53.51l-.04-.06c-.43-.62-1.25-.84-1.94-.53-.78,.35-1.94,.77-3.46,1.07-2.78,.54-7.37,.77-13.45-1.26-.64-.21-1.25-.41-1.84-.6-3.04-2.21-5.67-4.65-7.71-6.77,0,0,0,0,0,0,0-.02-.02-.04-.04-.06-.09-.09-.18-.18-.27-.26-1.06-1.12-1.95-2.13-2.65-2.96-.44-.55-.86-1.1-1.29-1.66-.3-.4-.34-.71-.1-1.15,.79-1.47,1.56-2.96,1.87-4.63,.68-3.65-.08-7.06-1.67-10.35-.48-1-.47-1.17,.37-1.87,.08-.06,.16-.13,.24-.18,1.91-1.35,4.05-2.12,6.36-2.21,1.88-.08,3.77,.03,5.65,.09,1.57,.05,3.08-.21,4.5-.88,1.59-.75,2.85-1.86,3.8-3.4,.06-.1,.02-.22-.08-.28-.73-.39-1.42-.77-2.15-1.16-.09-.05-.2-.02-.26,.07-.71,1.09-1.6,1.9-2.77,2.38-1.13,.46-2.29,.59-3.57,.46-.15-.02-.23-.19-.14-.31,.65-.87,1.14-1.76,1.49-2.66-.08,0-.15,0-.23,0-.96,0-1.83-.32-2.52-.85-.43,1.17-1.25,2.14-2.42,2.89-1.45,.92-3.11,.82-4.8,1.15-.13,.02-.25-.08-.23-.21,.11-1.04,.19-2,.34-2.95,.32-1.99,1.54-3.53,3.3-4.28-.05-.21-.09-.43-.12-.65-.2-.48-.32-1.01-.34-1.55,0-.16,0-.32,.01-.47,0-.06,0-.11-.01-.17,0-.05,0-.11,0-.16-.23,.07-.45,.15-.67,.24-.88,.38-1.71,.88-2.58,1.36-.11,.06-.24,0-.28-.11-.69-2.18-1.77-4.14-3.5-5.69-1.7-1.53-3.66-2.47-5.93-2.85-.14,.12-.19,.16-.32,.28,0,.83-.01,1.59,.02,2.34,0,.14,.22,.35,.37,.38,2.89,.65,4.87,2.49,6.2,5,1.26,2.39,1.22,5.01,.69,7.6-.4,1.97-1.36,3.68-2.71,5.21-.07,.08-.19,.09-.27,.02-1.18-.99-1.67-2.37-2.06-3.74-.38-1.33-.61-2.64-.63-3.93-.79,.72-1.83,1.18-2.9,1.18-.03,0-.06,0-.09,0,.16,.52,.28,1.05,.38,1.6,.08,.44,.12,.9,.18,1.48,.01,.14-.11,.24-.24,.21-1.45-.35-2.77-.62-4.05-1.03-.69-.22-1.4-.6-1.93-1.09-1.29-1.17-1.78-2.67-1.79-4.29l.04,.09c-.21-1.62,.33-3.42,.47-3.87,.01-.02,.02-.03,.03-.05,0,0,0-.02,0-.03,0-.02,0-.03,0-.03h-.02s-.05-.07-.1-.1c-.75-.33-1.52-.66-2.34-1.01-.11-.05-.23,0-.27,.12-1.25,3.81-1.33,7.39,1.5,10.62,.11,.12,.02,.32-.14,.32-2.66,.08-4.94-.45-6.48-2.81-.06-.09-.18-.12-.27-.06-.75,.45-1.49,.89-2.23,1.34-.1,.06-.13,.19-.06,.28,1.54,2.09,4.17,3.86,6.61,4.11,1.79,.18,3.63,.04,5.44-.12,2.97-.27,5.68,.3,8.03,2.19,3.77,3.03,5.29,8.2,3.79,12.82-.13,.4-.31,.78-.51,1.24-.06,.14-.26,.16-.34,.03-.22-.34-.4-.6-.54-.88-.88-1.81-.87-3.73-.63-5.66,.05-.42,.25-.89,.12-1.26-.33-.96-.76-1.89-1.19-2.87-.07-.15-.28-.16-.35-.01,0,0,0,.01,0,.02-.16,.35-.36,.69-.46,1.06-1.13,3.88-1.09,7.69,.65,11.41,1.5,3.21,3.62,5.92,6.07,8.34,1.52,1.58,3.15,3.14,4.65,4.51-3.03-.05-6.87,.73-10.3,4l.03,.08c-.69,.74-1.25,1.61-1.65,2.57-.85,2.08-.85,4.37,0,6.46l.15,.37h.03c.69,1.39,1.79,2.45,2.74,3.17-1.43,1.13-3.38,1.45-5.1,.79-1.24-.47-2.25-1.4-2.83-2.59,.91-.51,1.51-1.66,1.51-2.99,0-1.8-1.14-3.26-2.54-3.26-1.32,0-2.41,1.27-2.53,2.95-.02,.12-.03,.25-.03,.37,0,.07,0,.15,.01,.23-.18,3.6,1.95,6.87,5.31,8.15,2.3,.88,4.86,.68,6.99-.52l.78-.48c.17-.13,.51-.41,.95-.9,1.61,1.53,2.13,3.91,1.29,5.97-.47,1.16-1.33,2.1-2.42,2.7-.55-.83-1.65-1.36-2.9-1.36-1.8,0-3.26,1.14-3.26,2.54,0,.34,.08,.67,.25,.98,.23,.56,.66,.99,1.19,1.24l-.04,.12,.54,.11c.55,.11,1.1,.16,1.64,.16,3.4,0,6.56-2.05,7.89-5.29,.96-2.35,.82-5-.37-7.23l.25,.59-.71-1.38c-.17-.24-.64-.83-1.59-1.6,.03-.05,.06-.11,.09-.16l.03-.07c.02-.06,.05-.12,.07-.18,1.31-2.16,3.96-3.08,6.32-2.18,1.32,.5,2.36,1.51,2.92,2.8-1,.45-1.7,1.67-1.7,3.08,0,1.8,1.14,3.26,2.54,3.26,1.23,0,2.28-1.12,2.5-2.67,.37-1.89,.07-3.87-.86-5.57-.94-1.73-2.47-3.06-4.31-3.76-2.04-.78-4.26-.72-6.27,.16l-.37,.16v.03c-1.68,.89-2.83,2.4-3.47,3.42-2.02-1.45-2.79-4.09-1.84-6.42,0-.01,.01-.02,.01-.03l.03,.09s.23-.69,.87-1.55c.19-.22,.4-.42,.62-.61-.02-.02-.04-.04-.05-.05,1.68-1.74,5.1-3.58,11.68-1.75,.01,0,.02,0,.03,.01,.19,.06,.39,.13,.59,.19,.24,.17,.52,.26,.81,.27,.42,.14,.86,.29,1.34,.45,9.81,3.27,16.38,1.36,19.27,.06,.9-.41,1.21-1.53,.64-2.34Z"/>
    </g>
  </g>
</svg>