<?xml version="1.0" encoding="UTF-8"?>
<svg id="Capa_2" data-name="Capa 2" xmlns="http://www.w3.org/2000/svg" viewBox="0 0 254.36 81.77">
  <defs>
    <style>
      .cls-1 {
        fill: #375542;
      }

      .cls-2 {
        fill: #636569;
      }
    </style>
  </defs>
  <g id="Capa_1-2" data-name="Capa 1">
    <g>
      <g>
        <g>
          <path class="cls-2" d="M97.72,40.01l-3.05,8.14c0,.06,0,.12-.02,.19-.02,.06-.04,.11-.07,.14v.14c-.03,.12-.06,.25-.09,.37-.03,.12-.05,.23-.05,.32,0,.77,.26,1.4,.79,1.9,.52,.49,1.13,.74,1.8,.74v.6h-9.11v-.65c.71,.03,1.31-.12,1.8-.44,.49-.32,.91-1.07,1.25-2.24l8.09-21.09s.05-.08,.07-.14c.02-.06,.02-.12,.02-.18,.09-.28,.17-.55,.23-.83,.06-.28,.09-.52,.09-.74,0-.37-.09-.7-.25-.99-.17-.29-.46-.44-.86-.44v-.69h9.85v.65c-.34,.03-.62,.2-.83,.51-.22,.31-.34,.65-.37,1.02-.03,.06-.05,.12-.05,.18v.18c0,.12,.02,.25,.05,.39,.03,.14,.08,.29,.14,.44,0,.06,.02,.12,.05,.18,.03,.06,.05,.12,.05,.18l7.82,21.69c.06,.15,.14,.32,.23,.51,.09,.19,.2,.39,.32,.6,.19,.31,.43,.6,.74,.88,.31,.28,.66,.42,1.06,.42v.6h-10.17v-.65c.8-.28,1.39-.69,1.78-1.25,.39-.56,.58-1.14,.58-1.76,0-.43-.09-.89-.25-1.36-.17-.48-.39-.96-.67-1.46-.92-1.48-2.38-2.84-4.37-4.07-1.99-1.23-4.19-1.88-6.59-1.94v-.05Zm5.09-1.64c1.39,.45,2.74,1.35,4.07,2.71l-4.72-13.64-3.79,10.22c1.57,.03,3.05,.27,4.44,.72Z"/>
          <path class="cls-2" d="M120.66,30.27c-1.33,.58-2.43,1.95-3.32,4.11l-.62-.33,1.78-7.68c.33,.17,.63,.29,.89,.37,.26,.08,.52,.14,.77,.17,.3,.06,.63,.09,.98,.1,.35,.01,.78,.02,1.31,.02l13.07-.04c.64,.03,1.19,.01,1.66-.04,.47-.06,.86-.23,1.16-.54l1.78,7.93-.58,.29c-.44-1.84-1.42-3.21-2.95-4.12-1.52-.91-3.49-1.36-5.89-1.36v20.37c0,.91,.24,1.52,.73,1.81,.48,.29,1.02,.51,1.6,.64,0,.03,0,.04,.02,.04h.06v.54h-9.46v-.58c.77-.14,1.37-.39,1.78-.77,.42-.37,.62-1.02,.62-1.93V29.15c-2.27,.17-4.07,.54-5.39,1.12Z"/>
          <path class="cls-2" d="M157.13,29.44s.05-.01,.06-.04c.01-.03,.02-.07,.02-.12,.03-.08,.05-.17,.08-.27,.03-.1,.04-.17,.04-.23,0-.3-.13-.57-.39-.79-.26-.22-.6-.33-1.02-.33v-.62h7.59v.58c-.11,.03-.23,.05-.35,.06-.12,.01-.24,.03-.35,.06-.36,.08-.7,.21-1.04,.39-.33,.18-.61,.37-.83,.56-.11,.08-.2,.17-.27,.25-.07,.08-.12,.17-.15,.25l-5.85,8.17,7.97,11.87c.75,1.22,1.38,1.99,1.89,2.3,.51,.32,.99,.48,1.43,.48v.54h-10.37v-.58c.06,.03,.11,.04,.17,.04h.21c.05,.03,.11,.04,.17,.04h.17c.39,0,.73-.1,1.04-.29,.3-.19,.46-.5,.46-.91,0-.22-.05-.5-.15-.83-.1-.33-.27-.68-.52-1.04l-5.15-8.01-5.52,8.26c-.06,.11-.1,.21-.15,.29-.04,.08-.08,.17-.1,.25-.08,.17-.15,.33-.21,.48-.06,.15-.08,.28-.08,.39,0,.44,.21,.78,.62,1.02,.41,.24,.89,.35,1.41,.35v.54h-8.13v-.58c.17,.03,.32,.03,.48,0,.15-.03,.31-.08,.48-.17,.36-.17,.75-.49,1.18-.98,.43-.48,1.02-1.21,1.76-2.18l7.05-9.79-6.72-9.71c-.3-.44-.68-.8-1.14-1.08-.46-.28-.99-.41-1.6-.41v-.62h10.04v.58c-.11,.03-.24,.05-.37,.06-.14,.01-.28,.03-.42,.06-.28,.08-.54,.21-.79,.37-.25,.17-.37,.41-.37,.75,0,.17,.04,.35,.12,.56,.08,.21,.19,.42,.33,.64l3.32,4.9,3.94-5.52Z"/>
          <path class="cls-2" d="M181.9,26.7c4.65,.3,8.09,1.8,10.33,4.48,2.24,2.68,3.36,5.62,3.36,8.8v.71c-.11,3.15-1.34,6.02-3.67,8.61-2.34,2.59-5.61,3.88-9.81,3.88h-.5c-4.4-.17-7.74-1.6-10.04-4.32-2.3-2.71-3.46-5.68-3.49-8.92v-.5c.08-3.13,1.27-6,3.55-8.61,2.28-2.61,5.71-3.98,10.27-4.09v-.04Zm-8.55,15.81c.8,2.74,1.94,4.81,3.42,6.2,1.48,1.4,3.03,2.21,4.67,2.43,.17,.03,.33,.05,.5,.06,.17,.01,.33,.02,.5,.02,.14,0,.27,0,.39-.02,.12-.01,.25-.02,.39-.02,.5-.08,1-.21,1.51-.39,.51-.18,1-.38,1.47-.6,1.33-.64,2.45-1.71,3.38-3.22,.93-1.51,1.39-3.26,1.39-5.25,0-1.19-.19-2.46-.58-3.82-.39-1.36-.98-2.72-1.78-4.11-.69-1.27-1.59-2.29-2.7-3.05-1.11-.76-2.27-1.25-3.49-1.47-.25-.05-.5-.1-.77-.12-.26-.03-.52-.04-.77-.04h-.12c-1.96,.03-3.77,.84-5.41,2.45-1.65,1.6-2.47,3.98-2.47,7.14,0,.47,.04,.99,.12,1.56,.08,.57,.17,1.14,.25,1.72,0,.08,0,.17,.02,.27,.01,.1,.03,.2,.06,.31v-.04Z"/>
          <path class="cls-2" d="M218.66,29.73c0-.75-.2-1.23-.6-1.45-.4-.22-.92-.39-1.56-.5-.11-.03-.21-.05-.31-.06-.1-.01-.2-.03-.31-.06v-.62h7.93v.58c-.61,.17-1.16,.38-1.66,.64-.5,.26-.75,.77-.75,1.51v18.84c0,1.24,.21,2.12,.64,2.63,.43,.51,1.02,.77,1.76,.77v.54h-7.64v-.58c.8,.03,1.42-.17,1.85-.6,.43-.43,.64-1.03,.64-1.8v-5.77c0-.72-.07-1.27-.21-1.64-.14-.37-.39-.71-.75-1.02-.14-.17-.32-.32-.54-.48-.22-.15-.46-.33-.71-.52l-12.16-10.12v18.92c0,1.02,.21,1.72,.64,2.1,.43,.37,.91,.64,1.43,.81,.11,.03,.21,.06,.31,.08,.1,.03,.19,.06,.27,.08h.08v.54h-7.88v-.58c.77-.14,1.38-.41,1.8-.81,.43-.4,.64-1.13,.64-2.18V30.36c0-1.02-.21-1.69-.64-2.01-.43-.32-1.03-.55-1.8-.68v-.62h10.37v.58c-.14,.06-.26,.11-.35,.17-.1,.06-.19,.12-.27,.21-.03,.03-.05,.06-.06,.1-.01,.04-.02,.08-.02,.1,0,.14,.13,.32,.39,.54,.26,.22,.56,.47,.89,.75l8.55,6.97v-6.72Z"/>
          <path class="cls-2" d="M234.66,40.01l-3.05,8.14c0,.06,0,.12-.02,.19s-.04,.11-.07,.14v.14c-.03,.12-.06,.25-.09,.37-.03,.12-.05,.23-.05,.32,0,.77,.26,1.4,.79,1.9,.52,.49,1.12,.74,1.8,.74v.6h-9.11v-.65c.71,.03,1.31-.12,1.8-.44,.49-.32,.91-1.07,1.25-2.24l8.09-21.09s.05-.08,.07-.14c.02-.06,.02-.12,.02-.18,.09-.28,.17-.55,.23-.83,.06-.28,.09-.52,.09-.74,0-.37-.09-.7-.25-.99-.17-.29-.46-.44-.86-.44v-.69h9.85v.65c-.34,.03-.62,.2-.83,.51-.22,.31-.34,.65-.37,1.02-.03,.06-.05,.12-.05,.18v.18c0,.12,.02,.25,.05,.39,.03,.14,.08,.29,.14,.44,0,.06,.02,.12,.05,.18,.03,.06,.05,.12,.05,.18l7.82,21.69c.06,.15,.14,.32,.23,.51,.09,.19,.2,.39,.32,.6,.19,.31,.43,.6,.74,.88,.31,.28,.66,.42,1.06,.42v.6h-10.17v-.65c.8-.28,1.39-.69,1.78-1.25,.39-.56,.58-1.14,.58-1.76,0-.43-.09-.89-.25-1.36-.17-.48-.39-.96-.67-1.46-.92-1.48-2.38-2.84-4.37-4.07-1.99-1.23-4.19-1.88-6.59-1.94v-.05Zm5.09-1.64c1.39,.45,2.74,1.35,4.07,2.71l-4.72-13.64-3.79,10.22c1.57,.03,3.05,.27,4.44,.72Z"/>
        </g>
        <g>
          <path class="cls-2" d="M148.34,17.27c-.62,0-1.19-.1-1.71-.3-.52-.2-.97-.49-1.35-.86-.38-.37-.68-.8-.89-1.3-.21-.5-.32-1.04-.32-1.64s.11-1.14,.32-1.64c.21-.5,.51-.93,.9-1.3,.39-.37,.84-.66,1.36-.86,.52-.2,1.09-.3,1.72-.3s1.21,.1,1.74,.31,.97,.52,1.34,.93l-.71,.71c-.33-.32-.69-.56-1.07-.7-.39-.15-.8-.22-1.25-.22s-.88,.08-1.28,.23-.73,.37-1.02,.64c-.29,.27-.51,.6-.66,.98-.16,.38-.23,.79-.23,1.23s.08,.84,.23,1.22c.16,.38,.38,.71,.66,.98,.29,.28,.62,.49,1.01,.65,.39,.15,.81,.23,1.27,.23,.43,0,.84-.07,1.23-.2,.39-.13,.76-.36,1.09-.67l.65,.87c-.4,.34-.86,.59-1.39,.76-.53,.17-1.08,.26-1.64,.26Zm1.93-1.17v-2.98h1.1v3.13l-1.1-.15Z"/>
          <path class="cls-2" d="M155.85,17.18V9.16h3.13c.7,0,1.3,.11,1.8,.33,.5,.22,.88,.54,1.14,.96,.27,.42,.4,.92,.4,1.5s-.13,1.08-.4,1.49c-.27,.42-.65,.73-1.14,.96-.5,.22-1.1,.33-1.8,.33h-2.5l.51-.53v2.96h-1.14Zm1.14-2.85l-.51-.56h2.46c.73,0,1.29-.16,1.67-.48,.38-.32,.57-.76,.57-1.33s-.19-1.01-.57-1.33c-.38-.31-.93-.47-1.67-.47h-2.46l.51-.57v4.74Zm4.21,2.85l-2.04-2.91h1.22l2.06,2.91h-1.25Z"/>
          <path class="cls-2" d="M169.78,17.27c-1.05,0-1.88-.3-2.48-.9-.6-.6-.9-1.48-.9-2.64v-4.56h1.14v4.51c0,.89,.2,1.55,.59,1.96,.39,.41,.95,.62,1.67,.62s1.28-.21,1.68-.62,.59-1.06,.59-1.96v-4.51h1.11v4.56c0,1.16-.3,2.04-.9,2.64-.6,.6-1.43,.9-2.49,.9Z"/>
          <path class="cls-2" d="M177.8,17.18V9.16h3.13c.7,0,1.3,.11,1.8,.33,.5,.22,.88,.54,1.15,.96,.27,.42,.4,.92,.4,1.5s-.13,1.08-.4,1.49c-.27,.42-.65,.74-1.15,.96-.5,.23-1.1,.34-1.8,.34h-2.5l.52-.54v2.96h-1.14Zm1.14-2.85l-.52-.57h2.46c.73,0,1.29-.16,1.67-.47s.57-.76,.57-1.33-.19-1.01-.57-1.33-.93-.47-1.67-.47h-2.46l.52-.57v4.74Z"/>
          <path class="cls-2" d="M191.98,17.27c-.61,0-1.18-.1-1.7-.31-.52-.21-.98-.49-1.36-.86s-.68-.8-.89-1.3c-.21-.5-.32-1.04-.32-1.63s.11-1.13,.32-1.63c.21-.5,.51-.93,.89-1.3s.83-.66,1.35-.86,1.09-.31,1.71-.31,1.17,.1,1.69,.3,.97,.49,1.35,.86c.39,.37,.68,.8,.89,1.3,.21,.5,.31,1.04,.31,1.64s-.1,1.14-.31,1.64c-.21,.5-.51,.93-.89,1.3s-.84,.66-1.35,.86-1.08,.3-1.69,.3Zm0-1.02c.44,0,.85-.08,1.23-.23,.38-.15,.71-.37,.98-.65,.28-.28,.5-.6,.65-.98s.23-.78,.23-1.22-.08-.85-.23-1.23c-.16-.37-.37-.7-.65-.98-.28-.28-.61-.49-.98-.65s-.79-.23-1.23-.23-.86,.08-1.24,.23-.71,.37-.99,.65c-.28,.28-.5,.6-.66,.98-.16,.37-.23,.78-.23,1.23s.08,.85,.23,1.22c.16,.37,.38,.7,.66,.98,.28,.28,.61,.49,.99,.65,.38,.15,.79,.23,1.24,.23Z"/>
        </g>
        <g>
          <path class="cls-2" d="M107.53,66.63v-4.99h1.97c.53,0,.99,.11,1.39,.32,.4,.21,.71,.51,.93,.88,.22,.38,.33,.81,.33,1.29s-.11,.91-.33,1.29c-.22,.38-.53,.67-.93,.88-.4,.21-.86,.32-1.39,.32h-1.97Zm.36-.33h1.58c.47,0,.88-.09,1.23-.28,.35-.19,.62-.44,.81-.77s.29-.7,.29-1.12-.1-.8-.29-1.12-.46-.58-.81-.77c-.35-.19-.76-.28-1.23-.28h-1.58v4.33Z"/>
          <path class="cls-2" d="M115.2,66.3h3.08v.33h-3.44v-4.99h3.34v.33h-2.97v4.33Zm-.04-2.37h2.7v.32h-2.7v-.32Z"/>
          <path class="cls-2" d="M122.35,66.66c-.37,0-.72-.06-1.05-.19s-.59-.29-.77-.49l.16-.27c.17,.18,.41,.32,.7,.45,.3,.12,.61,.18,.94,.18s.6-.04,.82-.13,.37-.21,.47-.35c.1-.15,.15-.31,.15-.49,0-.21-.06-.38-.17-.51s-.26-.23-.45-.31c-.19-.08-.39-.14-.61-.19-.22-.05-.44-.11-.66-.17-.22-.06-.43-.14-.61-.23-.19-.09-.33-.22-.45-.39-.11-.16-.17-.38-.17-.64,0-.24,.06-.46,.19-.66,.12-.2,.32-.36,.58-.49,.26-.12,.6-.19,1.01-.19,.28,0,.55,.04,.82,.12,.27,.08,.5,.19,.69,.33l-.14,.29c-.21-.14-.43-.25-.67-.32-.24-.07-.47-.1-.7-.1-.32,0-.58,.05-.79,.14-.21,.09-.36,.21-.46,.36-.1,.15-.15,.32-.15,.5,0,.21,.06,.38,.17,.51,.11,.13,.26,.23,.45,.31,.19,.08,.39,.14,.61,.19,.22,.05,.44,.11,.66,.17,.22,.06,.42,.14,.61,.23,.19,.1,.33,.22,.45,.38,.11,.16,.17,.37,.17,.63,0,.23-.06,.45-.19,.65-.13,.2-.32,.36-.59,.48-.26,.12-.6,.18-1.02,.18Z"/>
          <path class="cls-2" d="M125.97,66.63l2.3-4.99h.36l2.3,4.99h-.39l-2.17-4.76h.16l-2.16,4.76h-.39Zm.84-1.4l.12-.31h2.99l.12,.31h-3.23Z"/>
          <path class="cls-2" d="M133.25,66.63v-4.99h1.79c.42,0,.78,.07,1.08,.2,.3,.13,.53,.32,.69,.57,.16,.25,.24,.55,.24,.91s-.08,.65-.24,.89c-.16,.25-.39,.44-.69,.58-.3,.14-.66,.2-1.08,.2h-1.59l.16-.17v1.8h-.36Zm.36-1.78l-.16-.17h1.59c.54,0,.94-.12,1.22-.36s.42-.57,.42-1-.14-.77-.42-1-.69-.35-1.22-.35h-1.59l.16-.18v3.06Zm3.1,1.78l-1.3-1.81h.41l1.3,1.81h-.41Z"/>
          <path class="cls-2" d="M139.81,66.63v-4.99h1.79c.42,0,.78,.07,1.08,.2,.3,.13,.53,.32,.69,.57,.16,.25,.24,.55,.24,.91s-.08,.65-.24,.89c-.16,.25-.39,.44-.69,.58-.3,.14-.66,.2-1.08,.2h-1.59l.16-.17v1.8h-.36Zm.36-1.78l-.16-.17h1.59c.54,0,.94-.12,1.22-.36s.42-.57,.42-1-.14-.77-.42-1-.69-.35-1.22-.35h-1.59l.16-.18v3.06Zm3.1,1.78l-1.3-1.81h.41l1.3,1.81h-.41Z"/>
          <path class="cls-2" d="M148.49,66.66c-.37,0-.71-.06-1.03-.19s-.59-.3-.83-.53-.42-.5-.55-.81c-.13-.31-.19-.64-.19-1s.06-.7,.19-1,.31-.58,.55-.81,.51-.41,.83-.53,.66-.19,1.03-.19,.71,.06,1.03,.19c.32,.13,.59,.3,.82,.53,.23,.23,.41,.5,.55,.8,.13,.31,.2,.64,.2,1.01s-.07,.7-.2,1.01c-.13,.31-.31,.57-.55,.8-.23,.23-.51,.41-.82,.53-.32,.13-.66,.19-1.03,.19Zm0-.33c.32,0,.61-.05,.88-.16s.51-.26,.71-.46c.2-.2,.36-.43,.47-.7,.11-.27,.17-.56,.17-.87s-.06-.61-.17-.87c-.11-.26-.27-.5-.47-.7s-.44-.35-.71-.46-.57-.16-.88-.16-.61,.05-.88,.16c-.27,.11-.51,.26-.71,.46-.2,.2-.36,.43-.47,.7s-.17,.56-.17,.87,.06,.6,.17,.87c.11,.27,.27,.5,.47,.7,.2,.2,.44,.35,.71,.46,.27,.11,.57,.16,.88,.16Z"/>
          <path class="cls-2" d="M153.77,66.63v-4.99h.36v4.66h2.87v.33h-3.24Z"/>
          <path class="cls-2" d="M159.37,66.63v-4.99h.36v4.66h2.87v.33h-3.24Z"/>
          <path class="cls-2" d="M166.98,66.66c-.37,0-.71-.06-1.03-.19s-.59-.3-.83-.53-.42-.5-.55-.81c-.13-.31-.19-.64-.19-1s.06-.7,.19-1,.31-.58,.55-.81,.51-.41,.83-.53,.66-.19,1.03-.19,.71,.06,1.03,.19c.32,.13,.59,.3,.82,.53,.23,.23,.41,.5,.55,.8,.13,.31,.2,.64,.2,1.01s-.07,.7-.2,1.01c-.13,.31-.31,.57-.55,.8-.23,.23-.51,.41-.82,.53-.32,.13-.66,.19-1.03,.19Zm0-.33c.32,0,.61-.05,.88-.16s.51-.26,.71-.46c.2-.2,.36-.43,.47-.7,.11-.27,.17-.56,.17-.87s-.06-.61-.17-.87c-.11-.26-.27-.5-.47-.7s-.44-.35-.71-.46-.57-.16-.88-.16-.61,.05-.88,.16c-.27,.11-.51,.26-.71,.46-.2,.2-.36,.43-.47,.7s-.17,.56-.17,.87,.06,.6,.17,.87c.11,.27,.27,.5,.47,.7,.2,.2,.44,.35,.71,.46,.27,.11,.57,.16,.88,.16Z"/>
          <path class="cls-2" d="M173.58,66.66c-.37,0-.72-.06-1.05-.19-.33-.13-.59-.29-.77-.49l.16-.27c.17,.18,.41,.32,.7,.45,.3,.12,.61,.18,.94,.18s.6-.04,.82-.13c.21-.09,.37-.21,.47-.35,.1-.15,.15-.31,.15-.49,0-.21-.06-.38-.17-.51s-.26-.23-.45-.31c-.19-.08-.39-.14-.61-.19-.22-.05-.44-.11-.66-.17-.22-.06-.43-.14-.61-.23-.19-.09-.33-.22-.45-.39-.11-.16-.17-.38-.17-.64,0-.24,.06-.46,.19-.66,.12-.2,.32-.36,.58-.49,.26-.12,.6-.19,1.01-.19,.28,0,.55,.04,.82,.12,.27,.08,.5,.19,.69,.33l-.14,.29c-.21-.14-.43-.25-.67-.32s-.47-.1-.7-.1c-.32,0-.58,.05-.79,.14s-.36,.21-.46,.36c-.1,.15-.15,.32-.15,.5,0,.21,.06,.38,.17,.51s.26,.23,.45,.31c.19,.08,.39,.14,.61,.19,.22,.05,.44,.11,.66,.17s.42,.14,.61,.23c.19,.1,.33,.22,.45,.38,.11,.16,.17,.37,.17,.63,0,.23-.06,.45-.19,.65-.13,.2-.32,.36-.59,.48-.26,.12-.6,.18-1.02,.18Z"/>
          <path class="cls-2" d="M181.65,66.63h-.36v-4.99h3.34v.33h-2.97v4.66Zm-.04-2.53h2.7v.33h-2.7v-.33Z"/>
          <path class="cls-2" d="M187.21,66.63v-4.99h1.79c.42,0,.78,.07,1.08,.2s.53,.32,.69,.57c.16,.25,.24,.55,.24,.91s-.08,.65-.24,.89c-.16,.25-.39,.44-.69,.58-.3,.14-.66,.2-1.08,.2h-1.59l.16-.17v1.8h-.36Zm.36-1.78l-.16-.17h1.59c.54,0,.94-.12,1.22-.36s.42-.57,.42-1-.14-.77-.42-1-.69-.35-1.22-.35h-1.59l.16-.18v3.06Zm3.1,1.78l-1.3-1.81h.41l1.3,1.81h-.41Z"/>
          <path class="cls-2" d="M195.72,66.66c-.62,0-1.1-.18-1.46-.54-.36-.36-.53-.9-.53-1.61v-2.87h.36v2.86c0,.62,.14,1.08,.43,1.38,.29,.3,.69,.45,1.21,.45s.92-.15,1.2-.45c.29-.3,.43-.76,.43-1.38v-2.86h.36v2.87c0,.71-.18,1.25-.53,1.61-.36,.36-.85,.54-1.47,.54Z"/>
          <path class="cls-2" d="M201.71,66.63v-4.66h-1.8v-.33h3.96v.33h-1.8v4.66h-.36Z"/>
          <path class="cls-2" d="M205.97,61.23l.99-.84h.51l-1.12,.84h-.38Zm.22,5.4v-4.99h.36v4.99h-.36Z"/>
          <path class="cls-2" d="M211.83,66.66c-.37,0-.71-.06-1.03-.19s-.59-.3-.82-.53-.41-.5-.54-.8-.19-.64-.19-1.01,.06-.7,.19-1.01c.13-.31,.31-.57,.55-.8,.24-.23,.51-.4,.82-.53,.31-.13,.66-.19,1.03-.19,.35,0,.68,.06,.99,.17s.57,.29,.79,.52l-.23,.24c-.21-.21-.45-.36-.71-.45-.26-.09-.53-.14-.82-.14-.32,0-.61,.05-.89,.16s-.51,.26-.71,.46c-.2,.2-.36,.43-.47,.7-.11,.27-.17,.56-.17,.87s.06,.6,.17,.87c.11,.27,.27,.5,.47,.7,.2,.2,.44,.35,.71,.46s.57,.16,.89,.16c.29,0,.56-.05,.82-.14s.5-.25,.71-.46l.23,.24c-.22,.23-.48,.41-.79,.52-.31,.12-.64,.17-.99,.17Z"/>
          <path class="cls-2" d="M218.26,66.66c-.37,0-.71-.06-1.03-.19s-.59-.3-.83-.53-.42-.5-.55-.81c-.13-.31-.19-.64-.19-1s.06-.7,.19-1,.31-.58,.55-.81,.51-.41,.83-.53,.66-.19,1.03-.19,.71,.06,1.03,.19c.32,.13,.59,.3,.82,.53,.23,.23,.41,.5,.55,.8,.13,.31,.2,.64,.2,1.01s-.07,.7-.2,1.01c-.13,.31-.31,.57-.55,.8-.23,.23-.51,.41-.82,.53-.32,.13-.66,.19-1.03,.19Zm0-.33c.32,0,.61-.05,.88-.16s.51-.26,.71-.46c.2-.2,.36-.43,.47-.7,.11-.27,.17-.56,.17-.87s-.06-.61-.17-.87c-.11-.26-.27-.5-.47-.7s-.44-.35-.71-.46-.57-.16-.88-.16-.61,.05-.88,.16c-.27,.11-.51,.26-.71,.46-.2,.2-.36,.43-.47,.7s-.17,.56-.17,.87,.06,.6,.17,.87c.11,.27,.27,.5,.47,.7,.2,.2,.44,.35,.71,.46,.27,.11,.57,.16,.88,.16Z"/>
          <path class="cls-2" d="M223.54,66.63v-4.99h.36v4.66h2.87v.33h-3.24Z"/>
          <path class="cls-2" d="M228.3,66.63l2.3-4.99h.36l2.3,4.99h-.39l-2.17-4.76h.16l-2.16,4.76h-.39Zm.84-1.4l.12-.31h2.99l.12,.31h-3.23Z"/>
          <path class="cls-2" d="M236.9,66.66c-.37,0-.72-.06-1.05-.19-.33-.13-.59-.29-.77-.49l.16-.27c.17,.18,.41,.32,.7,.45,.3,.12,.61,.18,.94,.18s.6-.04,.82-.13c.21-.09,.37-.21,.47-.35,.1-.15,.15-.31,.15-.49,0-.21-.06-.38-.17-.51s-.26-.23-.45-.31c-.19-.08-.39-.14-.61-.19-.22-.05-.44-.11-.66-.17-.22-.06-.43-.14-.61-.23-.19-.09-.33-.22-.45-.39-.11-.16-.17-.38-.17-.64,0-.24,.06-.46,.19-.66,.12-.2,.32-.36,.58-.49,.26-.12,.6-.19,1.01-.19,.28,0,.55,.04,.82,.12,.27,.08,.5,.19,.69,.33l-.14,.29c-.21-.14-.43-.25-.67-.32s-.47-.1-.7-.1c-.32,0-.58,.05-.79,.14s-.36,.21-.46,.36c-.1,.15-.15,.32-.15,.5,0,.21,.06,.38,.17,.51s.26,.23,.45,.31c.19,.08,.39,.14,.61,.19,.22,.05,.44,.11,.66,.17s.42,.14,.61,.23c.19,.1,.33,.22,.45,.38,.11,.16,.17,.37,.17,.63,0,.23-.06,.45-.19,.65-.13,.2-.32,.36-.59,.48-.26,.12-.6,.18-1.02,.18Z"/>
        </g>
      </g>
      <g>
        <path class="cls-1" d="M27.95,56.11l.79,.28c.69,.24,1.46-.06,1.8-.71,1.24-2.35,4.26-7.82,7.23-11.03,.49-.53,.54-1.33,.11-1.9l-.17-.23c-.56-.75-1.66-.8-2.28-.1-1.84,2.05-5.35,6.18-7.55,10.15-1.48-.43-3.46-1.06-6.33-2.01-10.46-3.48-17.48-1.45-20.56-.07-.96,.43-1.29,1.63-.68,2.49l.04,.06c.46,.66,1.33,.9,2.07,.57,.83-.37,2.07-.82,3.69-1.14,2.96-.58,7.86-.82,14.35,1.34,2.85,.95,5.3,1.69,7.35,2.23,.05,.02,.09,.05,.14,.07Z"/>
        <path class="cls-1" d="M31.82,12.43c.92,.45,1.88,.63,2.93,.51-1.17-2.44-2.41-4.8-3.34-7.29l.14-.1c1.49,1.46,2.99,2.91,4.53,4.42,.08-.53,.19-1.05,.22-1.57,.14-1.98-.43-3.72-1.87-5.11-1.77-1.71-3.95-2.47-6.36-2.69-.39-.04-.42,.2-.44,.47-.2,2.35-.1,4.67,.7,6.91,.67,1.86,1.59,3.54,3.48,4.46Z"/>
        <path class="cls-1" d="M30.87,22.25c-1.98-.33-3.78,.07-5.32,1.39-1.9,1.61-2.86,3.74-3.32,6.14-.07,.39,.16,.44,.43,.49,2.34,.43,4.69,.55,7.03-.04,1.93-.49,3.71-1.26,4.82-3.08,.54-.88,.81-1.83,.8-2.9-2.57,.94-5.06,1.96-7.65,2.66-.03-.05-.06-.1-.09-.15,1.61-1.36,3.22-2.73,4.88-4.13-.52-.13-1.04-.29-1.56-.38Z"/>
        <path class="cls-1" d="M44.62,25.29c.06,.48,.09,.96,.18,1.42,.35,1.76,1.26,3.14,2.84,4.02,1.95,1.08,4.04,1.22,6.2,.84,.35-.06,.32-.27,.28-.51-.38-2.1-1.02-4.11-2.26-5.87-1.03-1.46-2.23-2.71-4.1-3.07-.91-.17-1.79-.1-2.68,.25,1.6,1.86,3.24,3.62,4.65,5.57-.03,.04-.07,.08-.1,.13-1.65-.92-3.3-1.83-5-2.78Z"/>
        <path class="cls-1" d="M47.16,16.17c3.39-1.13,4.38-4.38,4.38-4.38-4.8-.42-4.38,4.38-4.38,4.38Z"/>
        <path class="cls-1" d="M57.29,8.22c-1.51,.97-3.03,1.94-4.59,2.95,.43,.17,.84,.36,1.28,.49,1.64,.5,3.21,.36,4.66-.57,1.79-1.15,2.84-2.84,3.5-4.82,.11-.32-.09-.39-.31-.46-1.94-.63-3.91-1-5.95-.76-1.69,.2-3.28,.65-4.43,2.06-.56,.69-.89,1.45-1,2.36,2.28-.5,4.5-1.09,6.78-1.39,.02,.05,.04,.09,.06,.14Z"/>
        <path class="cls-1" d="M74.7,53.51l-.04-.06c-.43-.62-1.25-.84-1.94-.53-.78,.35-1.94,.77-3.46,1.07-2.78,.54-7.37,.77-13.45-1.26-.64-.21-1.25-.41-1.84-.6-3.04-2.21-5.67-4.65-7.71-6.77,0,0,0,0,0,0,0-.02-.02-.04-.04-.06-.09-.09-.18-.18-.27-.26-1.06-1.12-1.95-2.13-2.65-2.96-.44-.55-.86-1.1-1.29-1.66-.3-.4-.34-.71-.1-1.15,.79-1.47,1.56-2.96,1.87-4.63,.68-3.65-.08-7.06-1.67-10.35-.48-1-.47-1.17,.37-1.87,.08-.06,.16-.13,.24-.18,1.91-1.35,4.05-2.12,6.36-2.21,1.88-.08,3.77,.03,5.65,.09,1.57,.05,3.08-.21,4.5-.88,1.59-.75,2.85-1.86,3.8-3.4,.06-.1,.02-.22-.08-.28-.73-.39-1.42-.77-2.15-1.16-.09-.05-.2-.02-.26,.07-.71,1.09-1.6,1.9-2.77,2.38-1.13,.46-2.29,.59-3.57,.46-.15-.02-.23-.19-.14-.31,.65-.87,1.14-1.76,1.49-2.66-.08,0-.15,0-.23,0-.96,0-1.83-.32-2.52-.85-.43,1.17-1.25,2.14-2.42,2.89-1.45,.92-3.11,.82-4.8,1.15-.13,.02-.25-.08-.23-.21,.11-1.04,.19-2,.34-2.95,.32-1.99,1.54-3.53,3.3-4.28-.05-.21-.09-.43-.12-.65-.2-.48-.32-1.01-.34-1.55,0-.16,0-.32,.01-.47,0-.06,0-.11-.01-.17,0-.05,0-.11,0-.16-.23,.07-.45,.15-.67,.24-.88,.38-1.71,.88-2.58,1.36-.11,.06-.24,0-.28-.11-.69-2.18-1.77-4.14-3.5-5.69-1.7-1.53-3.66-2.47-5.93-2.85-.14,.12-.19,.16-.32,.28,0,.83-.01,1.59,.02,2.34,0,.14,.22,.35,.37,.38,2.89,.65,4.87,2.49,6.2,5,1.26,2.39,1.22,5.01,.69,7.6-.4,1.97-1.36,3.68-2.71,5.21-.07,.08-.19,.09-.27,.02-1.18-.99-1.67-2.37-2.06-3.74-.38-1.33-.61-2.64-.63-3.93-.79,.72-1.83,1.18-2.9,1.18-.03,0-.06,0-.09,0,.16,.52,.28,1.05,.38,1.6,.08,.44,.12,.9,.18,1.48,.01,.14-.11,.24-.24,.21-1.45-.35-2.77-.62-4.05-1.03-.69-.22-1.4-.6-1.93-1.09-1.29-1.17-1.78-2.67-1.79-4.29l.04,.09c-.21-1.62,.33-3.42,.47-3.87,.01-.02,.02-.03,.03-.05,0,0,0-.02,0-.03,0-.02,0-.03,0-.03h-.02s-.05-.07-.1-.1c-.75-.33-1.52-.66-2.34-1.01-.11-.05-.23,0-.27,.12-1.25,3.81-1.33,7.39,1.5,10.62,.11,.12,.02,.32-.14,.32-2.66,.08-4.94-.45-6.48-2.81-.06-.09-.18-.12-.27-.06-.75,.45-1.49,.89-2.23,1.34-.1,.06-.13,.19-.06,.28,1.54,2.09,4.17,3.86,6.61,4.11,1.79,.18,3.63,.04,5.44-.12,2.97-.27,5.68,.3,8.03,2.19,3.77,3.03,5.29,8.2,3.79,12.82-.13,.4-.31,.78-.51,1.24-.06,.14-.26,.16-.34,.03-.22-.34-.4-.6-.54-.88-.88-1.81-.87-3.73-.63-5.66,.05-.42,.25-.89,.12-1.26-.33-.96-.76-1.89-1.19-2.87-.07-.15-.28-.16-.35-.01,0,0,0,.01,0,.02-.16,.35-.36,.69-.46,1.06-1.13,3.88-1.09,7.69,.65,11.41,1.5,3.21,3.62,5.92,6.07,8.34,1.52,1.58,3.15,3.14,4.65,4.51-3.03-.05-6.87,.73-10.3,4l.03,.08c-.69,.74-1.25,1.61-1.65,2.57-.85,2.08-.85,4.37,0,6.46l.15,.37h.03c.69,1.39,1.79,2.45,2.74,3.17-1.43,1.13-3.38,1.45-5.1,.79-1.24-.47-2.25-1.4-2.83-2.59,.91-.51,1.51-1.66,1.51-2.99,0-1.8-1.14-3.26-2.54-3.26-1.32,0-2.41,1.27-2.53,2.95-.02,.12-.03,.25-.03,.37,0,.07,0,.15,.01,.23-.18,3.6,1.95,6.87,5.31,8.15,2.3,.88,4.86,.68,6.99-.52l.78-.48c.17-.13,.51-.41,.95-.9,1.61,1.53,2.13,3.91,1.29,5.97-.47,1.16-1.33,2.1-2.42,2.7-.55-.83-1.65-1.36-2.9-1.36-1.8,0-3.26,1.14-3.26,2.54,0,.34,.08,.67,.25,.98,.23,.56,.66,.99,1.19,1.24l-.04,.12,.54,.11c.55,.11,1.1,.16,1.64,.16,3.4,0,6.56-2.05,7.89-5.29,.96-2.35,.82-5-.37-7.23l.25,.59-.71-1.38c-.17-.24-.64-.83-1.59-1.6,.03-.05,.06-.11,.09-.16l.03-.07c.02-.06,.05-.12,.07-.18,1.31-2.16,3.96-3.08,6.32-2.18,1.32,.5,2.36,1.51,2.92,2.8-1,.45-1.7,1.67-1.7,3.08,0,1.8,1.14,3.26,2.54,3.26,1.23,0,2.28-1.12,2.5-2.67,.37-1.89,.07-3.87-.86-5.57-.94-1.73-2.47-3.06-4.31-3.76-2.04-.78-4.26-.72-6.27,.16l-.37,.16v.03c-1.68,.89-2.83,2.4-3.47,3.42-2.02-1.45-2.79-4.09-1.84-6.42,0-.01,.01-.02,.01-.03l.03,.09s.23-.69,.87-1.55c.19-.22,.4-.42,.62-.61-.02-.02-.04-.04-.05-.05,1.68-1.74,5.1-3.58,11.68-1.75,.01,0,.02,0,.03,.01,.19,.06,.39,.13,.59,.19,.24,.17,.52,.26,.81,.27,.42,.14,.86,.29,1.34,.45,9.81,3.27,16.38,1.36,19.27,.06,.9-.41,1.21-1.53,.64-2.34Z"/>
      </g>
    </g>
  </g>
</svg>