<?xml version="1.0" encoding="UTF-8"?>
<svg id="Capa_2" data-name="Capa 2" xmlns="http://www.w3.org/2000/svg" viewBox="0 0 288.89 92.87">
  <defs>
    <style>
      .cls-1 {
        fill: #fff;
      }
    </style>
  </defs>
  <g id="Capa_1-2" data-name="Capa 1">
    <g>
      <g>
        <g>
          <path class="cls-1" d="M110.99,45.45l-3.47,9.24c0,.07,0,.14-.03,.21-.02,.07-.04,.12-.08,.16v.16c-.04,.14-.07,.28-.1,.42-.04,.14-.05,.26-.05,.37,0,.88,.3,1.59,.89,2.15,.6,.56,1.28,.84,2.05,.84v.68h-10.35v-.74c.8,.04,1.49-.13,2.05-.5,.56-.37,1.03-1.22,1.42-2.55l9.19-23.95s.06-.09,.08-.16c.02-.07,.03-.14,.03-.21,.1-.32,.19-.63,.26-.95,.07-.32,.11-.6,.11-.84,0-.42-.1-.8-.29-1.13-.19-.33-.52-.5-.97-.5v-.79h11.19v.74c-.39,.04-.7,.23-.95,.58-.25,.35-.39,.74-.42,1.16-.04,.07-.05,.14-.05,.21v.21c0,.14,.02,.29,.05,.45,.03,.16,.09,.32,.16,.5,0,.07,.02,.14,.05,.21,.03,.07,.05,.14,.05,.21l8.88,24.63c.07,.18,.16,.37,.26,.58,.11,.21,.23,.44,.37,.68,.21,.35,.49,.68,.84,1,.35,.31,.75,.47,1.21,.47v.68h-11.56v-.74c.91-.32,1.58-.79,2.02-1.42,.44-.63,.66-1.3,.66-2,0-.49-.1-1.01-.29-1.55-.19-.54-.45-1.09-.76-1.65-1.05-1.68-2.71-3.22-4.96-4.62-2.26-1.4-4.75-2.14-7.48-2.21v-.05Zm5.78-1.86c1.58,.51,3.12,1.53,4.62,3.07l-5.36-15.49-4.31,11.61c1.79,.04,3.47,.31,5.04,.81Z"/>
          <path class="cls-1" d="M137.04,34.38c-1.51,.66-2.76,2.21-3.77,4.67l-.71-.38,2.03-8.72c.38,.19,.71,.33,1.01,.42,.3,.09,.59,.16,.87,.19,.35,.06,.71,.1,1.11,.12,.39,.02,.89,.02,1.48,.02l14.84-.05c.72,.03,1.35,.02,1.89-.05,.53-.06,.97-.27,1.32-.61l2.03,9-.66,.33c-.5-2.09-1.62-3.65-3.35-4.68-1.73-1.03-3.96-1.54-6.69-1.54v23.13c0,1.04,.27,1.72,.82,2.05,.55,.33,1.15,.57,1.81,.73,0,.03,0,.05,.02,.05h.07v.61h-10.74v-.66c.88-.16,1.56-.45,2.03-.87,.47-.42,.71-1.15,.71-2.19v-22.86c-2.58,.19-4.62,.61-6.13,1.27Z"/>
          <path class="cls-1" d="M178.46,33.44s.05-.02,.07-.05c.02-.03,.02-.08,.02-.14,.03-.09,.06-.2,.09-.31,.03-.11,.05-.2,.05-.26,0-.35-.15-.64-.45-.9-.3-.25-.68-.38-1.15-.38v-.71h8.62v.66c-.13,.03-.26,.06-.4,.07-.14,.02-.27,.04-.4,.07-.41,.09-.8,.24-1.18,.45-.38,.2-.69,.42-.94,.64-.13,.09-.23,.19-.31,.28-.08,.09-.13,.19-.17,.28l-6.64,9.28,9.05,13.48c.85,1.38,1.56,2.25,2.14,2.62,.58,.36,1.12,.54,1.63,.54v.61h-11.78v-.66c.06,.03,.13,.05,.19,.05h.24c.06,.03,.13,.05,.19,.05h.19c.44,0,.83-.11,1.18-.33,.35-.22,.52-.57,.52-1.04,0-.25-.06-.57-.17-.94-.11-.38-.31-.77-.59-1.18l-5.84-9.1-6.27,9.38c-.06,.13-.12,.24-.17,.33-.05,.09-.09,.19-.12,.28-.09,.19-.17,.37-.24,.54-.06,.17-.09,.32-.09,.45,0,.5,.24,.89,.71,1.15,.47,.27,1.01,.4,1.6,.4v.61h-9.24v-.66c.19,.03,.37,.03,.54,0,.17-.03,.35-.09,.54-.19,.41-.19,.86-.56,1.34-1.11,.49-.55,1.15-1.37,2-2.47l8.01-11.12-7.63-11.03c-.35-.5-.78-.91-1.3-1.23-.52-.31-1.12-.47-1.81-.47v-.71h11.4v.66c-.13,.03-.27,.06-.42,.07-.16,.02-.31,.04-.47,.07-.31,.09-.61,.24-.9,.42-.28,.19-.42,.47-.42,.85,0,.19,.05,.4,.14,.64,.09,.24,.22,.48,.38,.73l3.77,5.56,4.48-6.27Z"/>
          <path class="cls-1" d="M206.59,30.33c5.28,.35,9.19,2.04,11.73,5.09,2.54,3.05,3.82,6.38,3.82,9.99v.8c-.13,3.58-1.52,6.84-4.17,9.78-2.66,2.94-6.37,4.41-11.14,4.41h-.57c-4.99-.19-8.8-1.82-11.4-4.9-2.61-3.08-3.93-6.46-3.96-10.13v-.57c.09-3.55,1.44-6.81,4.03-9.78,2.59-2.97,6.48-4.52,11.66-4.64v-.05Zm-9.71,17.96c.91,3.11,2.21,5.46,3.89,7.05,1.68,1.59,3.45,2.51,5.3,2.76,.19,.03,.38,.06,.57,.07,.19,.02,.38,.02,.57,.02,.16,0,.31,0,.45-.02,.14-.02,.29-.02,.45-.02,.57-.09,1.14-.24,1.72-.45,.58-.2,1.14-.43,1.67-.68,1.51-.72,2.79-1.94,3.84-3.65,1.05-1.71,1.58-3.7,1.58-5.96,0-1.35-.22-2.8-.66-4.34-.44-1.54-1.12-3.09-2.03-4.67-.79-1.44-1.81-2.6-3.06-3.46-1.26-.86-2.58-1.42-3.96-1.67-.28-.06-.57-.11-.87-.14-.3-.03-.59-.05-.87-.05h-.14c-2.23,.03-4.28,.96-6.15,2.78-1.87,1.82-2.8,4.52-2.8,8.11,0,.53,.05,1.12,.14,1.77,.09,.64,.19,1.3,.28,1.96,0,.09,0,.2,.02,.31,.02,.11,.04,.23,.07,.35v-.05Z"/>
          <path class="cls-1" d="M248.35,33.77c0-.85-.23-1.4-.68-1.65-.46-.25-1.04-.44-1.77-.57-.13-.03-.24-.05-.35-.07-.11-.02-.23-.04-.35-.07v-.71h9v.66c-.69,.19-1.32,.43-1.89,.73-.57,.3-.85,.87-.85,1.72v21.4c0,1.41,.24,2.41,.73,2.99,.49,.58,1.15,.87,2,.87v.61h-8.67v-.66c.91,.03,1.61-.2,2.1-.68,.49-.49,.73-1.17,.73-2.05v-6.55c0-.82-.08-1.44-.24-1.86-.16-.42-.44-.81-.85-1.15-.16-.19-.36-.37-.61-.54-.25-.17-.52-.37-.8-.59l-13.81-11.5v21.49c0,1.16,.24,1.96,.73,2.38,.49,.42,1.03,.73,1.63,.92,.12,.03,.24,.06,.35,.09,.11,.03,.21,.06,.31,.09h.09v.61h-8.95v-.66c.88-.16,1.56-.46,2.05-.92,.49-.45,.73-1.28,.73-2.47v-21.16c0-1.16-.24-1.92-.73-2.29-.49-.36-1.17-.62-2.05-.78v-.71h11.78v.66c-.16,.06-.29,.13-.4,.19-.11,.06-.21,.14-.31,.24-.03,.03-.06,.07-.07,.12-.02,.05-.02,.09-.02,.12,0,.16,.15,.36,.45,.61,.3,.25,.64,.53,1.01,.85l9.71,7.92v-7.63Z"/>
          <path class="cls-1" d="M266.52,45.45l-3.47,9.24c0,.07,0,.14-.03,.21s-.04,.12-.08,.16v.16c-.04,.14-.07,.28-.11,.42-.04,.14-.05,.26-.05,.37,0,.88,.3,1.59,.89,2.15,.59,.56,1.28,.84,2.05,.84v.68h-10.35v-.74c.8,.04,1.49-.13,2.05-.5,.56-.37,1.03-1.22,1.42-2.55l9.19-23.95s.06-.09,.08-.16c.02-.07,.03-.14,.03-.21,.1-.32,.19-.63,.26-.95,.07-.32,.1-.6,.1-.84,0-.42-.1-.8-.29-1.13-.19-.33-.52-.5-.97-.5v-.79h11.19v.74c-.39,.04-.7,.23-.95,.58-.25,.35-.39,.74-.42,1.16-.04,.07-.05,.14-.05,.21v.21c0,.14,.02,.29,.05,.45,.03,.16,.09,.32,.16,.5,0,.07,.02,.14,.05,.21,.03,.07,.05,.14,.05,.21l8.88,24.63c.07,.18,.16,.37,.26,.58,.11,.21,.23,.44,.37,.68,.21,.35,.49,.68,.84,1,.35,.31,.75,.47,1.21,.47v.68h-11.56v-.74c.91-.32,1.58-.79,2.02-1.42,.44-.63,.66-1.3,.66-2,0-.49-.1-1.01-.29-1.55-.19-.54-.45-1.09-.76-1.65-1.05-1.68-2.71-3.22-4.96-4.62-2.26-1.4-4.75-2.14-7.48-2.21v-.05Zm5.78-1.86c1.58,.51,3.12,1.53,4.62,3.07l-5.36-15.49-4.31,11.61c1.79,.04,3.47,.31,5.04,.81Z"/>
        </g>
        <g>
          <path class="cls-1" d="M168.47,19.61c-.7,0-1.35-.11-1.94-.34-.59-.23-1.1-.55-1.53-.98-.43-.42-.77-.91-1.01-1.48-.24-.56-.36-1.18-.36-1.86s.12-1.3,.36-1.86c.24-.56,.58-1.06,1.02-1.48,.44-.42,.95-.75,1.54-.97,.59-.23,1.24-.34,1.95-.34s1.38,.12,1.98,.35,1.11,.59,1.52,1.05l-.81,.81c-.37-.36-.78-.63-1.22-.8-.44-.17-.91-.25-1.42-.25s-1,.09-1.45,.26-.83,.42-1.16,.73c-.33,.31-.58,.68-.75,1.11-.18,.43-.27,.9-.27,1.4s.09,.96,.27,1.38c.18,.43,.43,.8,.75,1.12,.33,.32,.71,.56,1.15,.73,.44,.17,.92,.26,1.44,.26,.49,0,.95-.08,1.4-.23,.45-.15,.86-.4,1.24-.76l.74,.99c-.45,.38-.98,.67-1.58,.86-.6,.2-1.22,.29-1.87,.29Zm2.2-1.33v-3.38h1.25v3.55l-1.25-.17Z"/>
          <path class="cls-1" d="M177,19.51V10.41h3.55c.8,0,1.48,.13,2.04,.38,.56,.25,1,.62,1.3,1.09,.3,.48,.46,1.04,.46,1.7s-.15,1.22-.46,1.7c-.3,.47-.74,.83-1.3,1.09-.56,.25-1.24,.38-2.04,.38h-2.83l.58-.6v3.37h-1.3Zm1.3-3.24l-.58-.64h2.8c.83,0,1.46-.18,1.89-.54,.43-.36,.64-.86,.64-1.51s-.21-1.15-.64-1.51c-.43-.36-1.06-.53-1.89-.53h-2.8l.58-.65v5.38Zm4.78,3.24l-2.31-3.3h1.39l2.34,3.3h-1.42Z"/>
          <path class="cls-1" d="M192.83,19.61c-1.2,0-2.14-.34-2.82-1.03-.69-.68-1.03-1.69-1.03-3v-5.17h1.3v5.12c0,1.01,.22,1.76,.67,2.22,.45,.47,1.08,.7,1.89,.7s1.46-.23,1.9-.7,.67-1.21,.67-2.22v-5.12h1.26v5.17c0,1.32-.34,2.32-1.02,3-.68,.68-1.62,1.03-2.83,1.03Z"/>
          <path class="cls-1" d="M201.94,19.51V10.41h3.55c.8,0,1.48,.13,2.04,.38,.56,.25,1,.62,1.3,1.09,.3,.48,.45,1.04,.45,1.7s-.15,1.22-.45,1.7c-.3,.47-.74,.84-1.3,1.09-.56,.26-1.24,.38-2.04,.38h-2.83l.59-.61v3.37h-1.3Zm1.3-3.24l-.59-.65h2.8c.83,0,1.46-.18,1.89-.53s.64-.86,.64-1.51-.21-1.15-.64-1.51-1.06-.53-1.89-.53h-2.8l.59-.65v5.38Z"/>
          <path class="cls-1" d="M218.04,19.61c-.69,0-1.34-.12-1.93-.35-.59-.23-1.11-.56-1.54-.98s-.77-.91-1.01-1.48c-.24-.56-.36-1.18-.36-1.85s.12-1.28,.36-1.85c.24-.56,.58-1.06,1.01-1.48s.94-.75,1.53-.98c.59-.23,1.24-.35,1.94-.35s1.33,.12,1.92,.34,1.1,.55,1.53,.97c.44,.42,.78,.91,1.01,1.48,.24,.56,.36,1.18,.36,1.86s-.12,1.3-.36,1.86c-.24,.56-.58,1.06-1.01,1.48s-.95,.75-1.53,.98-1.22,.34-1.92,.34Zm0-1.16c.5,0,.97-.09,1.4-.26,.43-.17,.8-.42,1.12-.73,.32-.32,.56-.69,.74-1.11s.27-.89,.27-1.39-.09-.97-.27-1.39c-.18-.42-.42-.79-.74-1.11-.32-.32-.69-.56-1.12-.73s-.89-.26-1.4-.26-.98,.09-1.41,.26-.8,.42-1.12,.73c-.32,.32-.57,.69-.75,1.11-.18,.42-.27,.89-.27,1.39s.09,.97,.27,1.39c.18,.42,.43,.8,.75,1.11,.32,.32,.7,.56,1.12,.73,.43,.17,.9,.26,1.41,.26Z"/>
        </g>
        <g>
          <path class="cls-1" d="M122.12,75.67v-5.67h2.24c.6,0,1.13,.12,1.58,.36,.45,.24,.81,.58,1.06,1,.25,.43,.38,.91,.38,1.47s-.13,1.04-.38,1.47c-.25,.43-.6,.76-1.06,1-.45,.24-.98,.36-1.58,.36h-2.24Zm.41-.37h1.8c.53,0,1-.1,1.39-.32,.39-.21,.7-.5,.91-.87s.32-.79,.32-1.28-.11-.91-.32-1.28-.52-.66-.91-.87c-.39-.21-.86-.32-1.39-.32h-1.8v4.92Z"/>
          <path class="cls-1" d="M130.84,75.3h3.5v.37h-3.91v-5.67h3.79v.37h-3.38v4.92Zm-.05-2.69h3.07v.36h-3.07v-.36Z"/>
          <path class="cls-1" d="M138.96,75.71c-.42,0-.82-.07-1.19-.21s-.67-.33-.87-.55l.19-.31c.19,.2,.46,.37,.8,.51,.34,.14,.7,.21,1.07,.21s.69-.05,.93-.15,.42-.23,.53-.4c.12-.17,.17-.35,.17-.56,0-.24-.06-.44-.19-.58s-.3-.26-.51-.35c-.21-.09-.44-.16-.69-.22-.25-.06-.5-.12-.75-.19-.25-.07-.49-.16-.7-.26-.21-.11-.38-.26-.51-.44-.13-.19-.19-.43-.19-.72,0-.27,.07-.52,.21-.74,.14-.23,.36-.41,.66-.55,.3-.14,.68-.21,1.14-.21,.31,0,.62,.05,.93,.14,.3,.09,.57,.22,.78,.37l-.15,.33c-.24-.16-.49-.28-.77-.36-.27-.08-.54-.12-.79-.12-.36,0-.66,.05-.9,.15-.24,.1-.41,.24-.53,.41-.11,.17-.17,.36-.17,.57,0,.24,.06,.44,.19,.58,.13,.15,.3,.26,.51,.35,.21,.09,.44,.16,.7,.22,.25,.06,.5,.12,.75,.19,.25,.07,.48,.16,.69,.26,.21,.11,.38,.25,.51,.44,.13,.18,.19,.42,.19,.71,0,.26-.07,.51-.22,.74-.15,.23-.37,.41-.67,.55-.3,.14-.68,.21-1.15,.21Z"/>
          <path class="cls-1" d="M143.07,75.67l2.61-5.67h.41l2.61,5.67h-.45l-2.46-5.41h.18l-2.45,5.41h-.45Zm.96-1.59l.14-.35h3.39l.14,.35h-3.67Z"/>
          <path class="cls-1" d="M151.34,75.67v-5.67h2.03c.48,0,.88,.08,1.22,.23,.34,.15,.6,.37,.79,.65,.18,.28,.28,.63,.28,1.03s-.09,.73-.28,1.02c-.18,.28-.45,.5-.79,.66-.34,.15-.75,.23-1.22,.23h-1.81l.19-.19v2.05h-.41Zm.41-2.02l-.19-.19h1.81c.61,0,1.07-.13,1.39-.4s.47-.65,.47-1.13-.16-.87-.47-1.14-.78-.4-1.39-.4h-1.81l.19-.2v3.47Zm3.52,2.02l-1.47-2.06h.47l1.47,2.06h-.47Z"/>
          <path class="cls-1" d="M158.79,75.67v-5.67h2.03c.48,0,.88,.08,1.22,.23,.34,.15,.6,.37,.79,.65,.18,.28,.28,.63,.28,1.03s-.09,.73-.28,1.02c-.18,.28-.45,.5-.79,.66-.34,.15-.75,.23-1.22,.23h-1.81l.19-.19v2.05h-.41Zm.41-2.02l-.19-.19h1.81c.61,0,1.07-.13,1.39-.4s.47-.65,.47-1.13-.16-.87-.47-1.14-.78-.4-1.39-.4h-1.81l.19-.2v3.47Zm3.52,2.02l-1.47-2.06h.47l1.47,2.06h-.47Z"/>
          <path class="cls-1" d="M168.65,75.71c-.42,0-.81-.07-1.17-.21s-.67-.35-.94-.61-.47-.57-.62-.92c-.15-.35-.22-.73-.22-1.14s.07-.79,.22-1.14,.35-.65,.62-.91,.58-.46,.94-.61,.75-.21,1.17-.21,.81,.07,1.17,.21c.36,.14,.67,.34,.94,.6,.26,.26,.47,.56,.62,.91,.15,.35,.22,.73,.22,1.15s-.07,.8-.22,1.15c-.15,.35-.35,.65-.62,.91-.26,.26-.58,.46-.94,.6-.36,.14-.75,.21-1.17,.21Zm0-.38c.36,0,.7-.06,1-.19s.57-.3,.8-.53c.23-.23,.4-.49,.53-.79,.13-.3,.19-.63,.19-.99s-.06-.69-.19-.99c-.13-.3-.3-.56-.53-.79s-.49-.4-.8-.53-.64-.19-1-.19-.7,.06-1,.19c-.31,.12-.58,.3-.81,.53-.23,.23-.41,.49-.53,.79s-.19,.63-.19,.99,.06,.69,.19,.99c.13,.3,.31,.57,.53,.79,.23,.23,.5,.4,.81,.53,.31,.12,.64,.19,1,.19Z"/>
          <path class="cls-1" d="M174.65,75.67v-5.67h.41v5.3h3.26v.37h-3.68Z"/>
          <path class="cls-1" d="M181,75.67v-5.67h.41v5.3h3.26v.37h-3.68Z"/>
          <path class="cls-1" d="M189.65,75.71c-.42,0-.81-.07-1.17-.21s-.67-.35-.94-.61-.47-.57-.62-.92c-.15-.35-.22-.73-.22-1.14s.07-.79,.22-1.14,.35-.65,.62-.91,.58-.46,.94-.61,.75-.21,1.17-.21,.81,.07,1.17,.21c.36,.14,.67,.34,.94,.6,.26,.26,.47,.56,.62,.91,.15,.35,.22,.73,.22,1.15s-.07,.8-.22,1.15c-.15,.35-.35,.65-.62,.91-.26,.26-.58,.46-.94,.6-.36,.14-.75,.21-1.17,.21Zm0-.38c.36,0,.7-.06,1-.19s.57-.3,.8-.53c.23-.23,.4-.49,.53-.79,.13-.3,.19-.63,.19-.99s-.06-.69-.19-.99c-.13-.3-.3-.56-.53-.79s-.49-.4-.8-.53-.64-.19-1-.19-.7,.06-1,.19c-.31,.12-.58,.3-.81,.53-.23,.23-.41,.49-.53,.79s-.19,.63-.19,.99,.06,.69,.19,.99c.13,.3,.31,.57,.53,.79,.23,.23,.5,.4,.81,.53,.31,.12,.64,.19,1,.19Z"/>
          <path class="cls-1" d="M197.14,75.71c-.42,0-.82-.07-1.19-.21-.38-.14-.67-.33-.87-.55l.19-.31c.19,.2,.46,.37,.8,.51,.34,.14,.7,.21,1.07,.21s.69-.05,.93-.15c.24-.1,.42-.23,.53-.4,.12-.17,.17-.35,.17-.56,0-.24-.06-.44-.19-.58s-.3-.26-.51-.35c-.21-.09-.44-.16-.69-.22-.25-.06-.5-.12-.75-.19-.25-.07-.49-.16-.7-.26-.21-.11-.38-.26-.51-.44-.13-.19-.19-.43-.19-.72,0-.27,.07-.52,.21-.74,.14-.23,.36-.41,.66-.55,.3-.14,.68-.21,1.14-.21,.31,0,.62,.05,.93,.14,.31,.09,.57,.22,.78,.37l-.15,.33c-.24-.16-.49-.28-.77-.36s-.54-.12-.79-.12c-.36,0-.66,.05-.9,.15s-.41,.24-.53,.41c-.11,.17-.17,.36-.17,.57,0,.24,.06,.44,.19,.58s.3,.26,.51,.35c.21,.09,.44,.16,.7,.22,.25,.06,.5,.12,.75,.19s.48,.16,.69,.26c.21,.11,.38,.25,.51,.44,.13,.18,.19,.42,.19,.71,0,.26-.07,.51-.22,.74-.15,.23-.37,.41-.67,.55-.3,.14-.68,.21-1.15,.21Z"/>
          <path class="cls-1" d="M206.31,75.67h-.41v-5.67h3.79v.37h-3.38v5.3Zm-.05-2.87h3.07v.37h-3.07v-.37Z"/>
          <path class="cls-1" d="M212.63,75.67v-5.67h2.03c.47,0,.88,.08,1.22,.23s.6,.37,.79,.65c.18,.28,.28,.63,.28,1.03s-.09,.73-.28,1.02c-.18,.28-.45,.5-.79,.66-.34,.15-.75,.23-1.22,.23h-1.81l.19-.19v2.05h-.41Zm.41-2.02l-.19-.19h1.81c.61,0,1.07-.13,1.39-.4s.47-.65,.47-1.13-.16-.87-.47-1.14-.78-.4-1.39-.4h-1.81l.19-.2v3.47Zm3.52,2.02l-1.47-2.06h.47l1.47,2.06h-.47Z"/>
          <path class="cls-1" d="M222.29,75.71c-.7,0-1.25-.2-1.66-.61-.4-.41-.61-1.02-.61-1.83v-3.26h.41v3.25c0,.71,.16,1.23,.49,1.57,.32,.34,.78,.51,1.38,.51s1.04-.17,1.37-.51c.32-.34,.49-.86,.49-1.57v-3.25h.41v3.26c0,.81-.2,1.42-.61,1.83-.4,.41-.96,.61-1.67,.61Z"/>
          <path class="cls-1" d="M229.09,75.67v-5.3h-2.04v-.37h4.49v.37h-2.04v5.3h-.41Z"/>
          <path class="cls-1" d="M233.93,69.54l1.13-.96h.58l-1.27,.96h-.44Zm.25,6.13v-5.67h.41v5.67h-.41Z"/>
          <path class="cls-1" d="M240.59,75.71c-.42,0-.81-.07-1.17-.21s-.67-.34-.94-.6-.47-.56-.61-.91-.22-.73-.22-1.15,.07-.8,.22-1.15c.15-.35,.35-.65,.62-.91,.27-.26,.58-.46,.94-.6,.36-.14,.74-.21,1.17-.21,.4,0,.77,.06,1.12,.19s.65,.33,.89,.59l-.26,.27c-.24-.24-.51-.41-.81-.51-.29-.1-.61-.16-.94-.16-.36,0-.7,.06-1.01,.19s-.58,.3-.81,.53c-.23,.23-.41,.49-.53,.79-.13,.3-.19,.63-.19,.99s.06,.69,.19,.99c.13,.3,.31,.57,.53,.79,.23,.23,.5,.4,.81,.53s.65,.19,1.01,.19c.33,0,.64-.05,.94-.16s.56-.28,.81-.52l.26,.27c-.25,.26-.55,.46-.89,.6-.35,.13-.72,.2-1.12,.2Z"/>
          <path class="cls-1" d="M247.89,75.71c-.42,0-.81-.07-1.17-.21s-.67-.35-.94-.61-.47-.57-.62-.92c-.15-.35-.22-.73-.22-1.14s.07-.79,.22-1.14,.35-.65,.62-.91,.58-.46,.94-.61,.75-.21,1.17-.21,.81,.07,1.17,.21c.36,.14,.67,.34,.94,.6,.26,.26,.47,.56,.62,.91,.15,.35,.22,.73,.22,1.15s-.07,.8-.22,1.15c-.15,.35-.35,.65-.62,.91-.26,.26-.58,.46-.94,.6-.36,.14-.75,.21-1.17,.21Zm0-.38c.36,0,.7-.06,1-.19s.57-.3,.8-.53c.23-.23,.4-.49,.53-.79,.13-.3,.19-.63,.19-.99s-.06-.69-.19-.99c-.13-.3-.3-.56-.53-.79s-.49-.4-.8-.53-.64-.19-1-.19-.7,.06-1,.19c-.31,.12-.58,.3-.81,.53-.23,.23-.41,.49-.53,.79s-.19,.63-.19,.99,.06,.69,.19,.99c.13,.3,.31,.57,.53,.79,.23,.23,.5,.4,.81,.53,.31,.12,.64,.19,1,.19Z"/>
          <path class="cls-1" d="M253.89,75.67v-5.67h.41v5.3h3.26v.37h-3.68Z"/>
          <path class="cls-1" d="M259.3,75.67l2.61-5.67h.41l2.61,5.67h-.45l-2.46-5.41h.18l-2.45,5.41h-.45Zm.96-1.59l.14-.35h3.39l.14,.35h-3.67Z"/>
          <path class="cls-1" d="M269.06,75.71c-.42,0-.82-.07-1.19-.21-.38-.14-.67-.33-.87-.55l.19-.31c.19,.2,.46,.37,.8,.51,.34,.14,.7,.21,1.07,.21s.69-.05,.93-.15c.24-.1,.42-.23,.53-.4,.12-.17,.17-.35,.17-.56,0-.24-.06-.44-.19-.58s-.3-.26-.51-.35c-.21-.09-.44-.16-.69-.22-.25-.06-.5-.12-.75-.19-.25-.07-.49-.16-.7-.26-.21-.11-.38-.26-.51-.44-.13-.19-.19-.43-.19-.72,0-.27,.07-.52,.21-.74,.14-.23,.36-.41,.66-.55,.3-.14,.68-.21,1.14-.21,.31,0,.62,.05,.93,.14,.31,.09,.57,.22,.78,.37l-.15,.33c-.24-.16-.49-.28-.77-.36s-.54-.12-.79-.12c-.36,0-.66,.05-.9,.15s-.41,.24-.53,.41c-.11,.17-.17,.36-.17,.57,0,.24,.06,.44,.19,.58s.3,.26,.51,.35c.21,.09,.44,.16,.7,.22,.25,.06,.5,.12,.75,.19s.48,.16,.69,.26c.21,.11,.38,.25,.51,.44,.13,.18,.19,.42,.19,.71,0,.26-.07,.51-.22,.74-.15,.23-.37,.41-.67,.55-.3,.14-.68,.21-1.15,.21Z"/>
        </g>
      </g>
      <g>
        <path class="cls-1" d="M31.74,63.72l.9,.31c.79,.27,1.65-.07,2.04-.8,1.4-2.67,4.84-8.88,8.22-12.53,.56-.6,.61-1.51,.12-2.16l-.19-.26c-.64-.85-1.89-.9-2.59-.12-2.09,2.33-6.07,7.02-8.57,11.53-1.68-.48-3.93-1.2-7.19-2.28-11.88-3.96-19.85-1.65-23.35-.08-1.09,.49-1.46,1.85-.77,2.83l.05,.07c.53,.75,1.51,1.02,2.35,.65,.94-.42,2.35-.94,4.2-1.3,3.37-.66,8.93-.93,16.3,1.53,3.23,1.08,6.02,1.92,8.34,2.53,.05,.03,.1,.06,.16,.08Z"/>
        <path class="cls-1" d="M36.14,14.12c1.05,.51,2.13,.71,3.33,.58-1.32-2.78-2.73-5.45-3.8-8.28l.16-.12c1.7,1.65,3.39,3.31,5.14,5.01,.09-.6,.21-1.19,.25-1.78,.16-2.25-.49-4.22-2.12-5.81-2.01-1.95-4.49-2.8-7.23-3.06-.45-.04-.48,.23-.5,.53-.23,2.67-.12,5.31,.8,7.85,.76,2.11,1.81,4.02,3.96,5.06Z"/>
        <path class="cls-1" d="M35.06,25.27c-2.25-.38-4.3,.08-6.05,1.58-2.15,1.83-3.25,4.25-3.77,6.98-.08,.44,.18,.5,.48,.56,2.66,.49,5.33,.63,7.98-.05,2.2-.56,4.22-1.43,5.48-3.49,.61-1,.92-2.08,.91-3.3-2.92,1.07-5.75,2.23-8.69,3.02-.03-.06-.07-.12-.1-.18,1.83-1.55,3.66-3.1,5.54-4.69-.6-.15-1.18-.33-1.77-.43Z"/>
        <path class="cls-1" d="M50.68,28.72c.07,.55,.1,1.09,.2,1.62,.39,2,1.43,3.57,3.23,4.57,2.22,1.22,4.59,1.38,7.04,.96,.4-.07,.36-.31,.31-.58-.43-2.38-1.16-4.66-2.56-6.67-1.16-1.66-2.53-3.08-4.66-3.48-1.03-.2-2.03-.12-3.05,.28,1.82,2.11,3.68,4.11,5.28,6.33-.04,.05-.08,.1-.11,.14-1.87-1.04-3.75-2.08-5.68-3.16Z"/>
        <path class="cls-1" d="M53.57,18.36c3.85-1.28,4.97-4.97,4.97-4.97-5.45-.48-4.97,4.97-4.97,4.97Z"/>
        <path class="cls-1" d="M65.06,9.34c-1.72,1.1-3.44,2.21-5.22,3.35,.49,.19,.96,.41,1.45,.56,1.86,.57,3.64,.41,5.29-.65,2.03-1.31,3.23-3.23,3.98-5.48,.12-.37-.1-.44-.35-.53-2.2-.71-4.44-1.13-6.76-.86-1.92,.23-3.73,.74-5.03,2.34-.63,.78-1.01,1.65-1.14,2.69,2.59-.57,5.11-1.24,7.7-1.58,.02,.05,.05,.11,.07,.16Z"/>
        <path class="cls-1" d="M84.84,60.78l-.05-.07c-.49-.7-1.41-.96-2.2-.61-.88,.39-2.2,.88-3.93,1.22-3.16,.62-8.37,.87-15.28-1.43-.73-.24-1.42-.47-2.09-.68-3.46-2.51-6.44-5.28-8.76-7.69,0,0,0,0,0,0-.01-.02-.03-.05-.05-.07-.1-.1-.21-.2-.31-.3-1.21-1.27-2.22-2.42-3.01-3.36-.5-.62-.98-1.25-1.46-1.88-.35-.46-.38-.8-.11-1.31,.9-1.67,1.77-3.36,2.13-5.25,.77-4.14-.09-8.02-1.9-11.75-.55-1.13-.53-1.33,.42-2.13,.09-.07,.18-.14,.27-.21,2.17-1.53,4.6-2.41,7.23-2.51,2.14-.09,4.28,.03,6.42,.1,1.78,.05,3.49-.24,5.11-1,1.8-.85,3.24-2.11,4.32-3.87,.07-.11,.03-.25-.09-.31-.83-.44-1.62-.87-2.44-1.31-.1-.06-.23-.02-.29,.08-.8,1.23-1.81,2.16-3.15,2.7-1.28,.52-2.6,.67-4.05,.52-.17-.02-.26-.22-.16-.35,.74-.99,1.3-2,1.69-3.02-.09,0-.17,0-.26,0-1.1,0-2.08-.36-2.86-.97-.49,1.33-1.41,2.44-2.74,3.29-1.64,1.05-3.53,.93-5.45,1.3-.15,.03-.28-.09-.26-.24,.13-1.18,.21-2.27,.38-3.35,.36-2.26,1.75-4.01,3.75-4.87-.06-.24-.1-.49-.13-.74-.22-.55-.36-1.15-.39-1.76,0-.18,0-.36,.01-.53,0-.06,0-.13-.01-.19,0-.06,0-.12,0-.18-.26,.08-.51,.17-.76,.27-1,.43-1.94,1-2.93,1.55-.12,.07-.28,0-.32-.13-.79-2.48-2.01-4.7-3.97-6.47-1.93-1.73-4.15-2.8-6.74-3.24-.16,.13-.21,.18-.37,.31,0,.94-.01,1.8,.02,2.66,0,.15,.25,.39,.42,.43,3.28,.74,5.53,2.83,7.04,5.67,1.44,2.71,1.38,5.69,.79,8.63-.45,2.24-1.54,4.18-3.08,5.91-.08,.09-.22,.1-.31,.02-1.35-1.13-1.89-2.7-2.34-4.25-.44-1.5-.69-3-.72-4.46-.89,.82-2.08,1.33-3.29,1.33-.03,0-.07,0-.1,0,.18,.59,.32,1.2,.44,1.81,.1,.5,.14,1.02,.21,1.68,.02,.15-.12,.28-.27,.24-1.65-.4-3.15-.71-4.6-1.17-.79-.25-1.58-.69-2.19-1.24-1.46-1.33-2.02-3.03-2.04-4.88l.05,.1c-.24-1.84,.37-3.89,.53-4.39,.01-.02,.02-.04,.04-.05,0-.01,0-.02,0-.03,0-.02,.01-.03,.01-.03h-.02s-.06-.09-.12-.11c-.85-.37-1.73-.75-2.66-1.15-.12-.05-.26,.01-.3,.13-1.42,4.33-1.51,8.39,1.7,12.07,.12,.14,.03,.36-.16,.37-3.02,.09-5.61-.51-7.36-3.19-.07-.1-.2-.13-.3-.07-.85,.51-1.69,1.01-2.53,1.52-.11,.07-.14,.22-.07,.32,1.75,2.37,4.74,4.38,7.51,4.67,2.03,.21,4.13,.05,6.18-.13,3.37-.3,6.45,.34,9.12,2.48,4.28,3.44,6.01,9.31,4.31,14.56-.15,.45-.35,.88-.58,1.41-.07,.16-.29,.18-.39,.03-.25-.39-.45-.68-.61-1-.99-2.06-.99-4.23-.72-6.43,.06-.48,.28-1.02,.14-1.43-.37-1.09-.87-2.14-1.36-3.26-.08-.17-.32-.18-.4-.01,0,0,0,.01,0,.02-.18,.4-.41,.78-.53,1.2-1.28,4.4-1.24,8.73,.74,12.95,1.71,3.65,4.11,6.72,6.9,9.47,1.72,1.8,3.58,3.57,5.28,5.12-3.44-.06-7.8,.83-11.7,4.54l.03,.09c-.78,.84-1.42,1.83-1.87,2.92-.97,2.36-.96,4.97,0,7.33l.17,.42h.04c.78,1.58,2.03,2.78,3.11,3.6-1.63,1.29-3.83,1.64-5.79,.9-1.41-.54-2.55-1.59-3.21-2.95,1.03-.58,1.71-1.89,1.71-3.4,0-2.04-1.29-3.71-2.88-3.71-1.5,0-2.73,1.44-2.87,3.36-.02,.14-.03,.28-.03,.42,0,.08,0,.17,.01,.26-.21,4.08,2.22,7.8,6.04,9.26,2.61,1,5.52,.77,7.94-.59l.88-.55c.19-.14,.58-.46,1.08-1.02,1.83,1.73,2.42,4.44,1.47,6.78-.54,1.32-1.51,2.39-2.75,3.06-.62-.94-1.87-1.55-3.29-1.55-2.04,0-3.71,1.29-3.71,2.88,0,.39,.1,.76,.28,1.11,.26,.63,.75,1.13,1.35,1.41l-.05,.13,.62,.12c.62,.12,1.25,.18,1.86,.18,3.86,0,7.46-2.33,8.96-6.01,1.09-2.67,.93-5.68-.42-8.21l.28,.68-.81-1.57c-.2-.28-.73-.95-1.8-1.82,.03-.06,.07-.12,.1-.18l.04-.08c.03-.07,.06-.14,.08-.2,1.48-2.46,4.49-3.5,7.18-2.47,1.5,.57,2.69,1.71,3.32,3.18-1.14,.51-1.93,1.89-1.93,3.5,0,2.04,1.29,3.71,2.88,3.71,1.4,0,2.59-1.27,2.84-3.03,.42-2.15,.08-4.39-.98-6.33-1.07-1.96-2.81-3.48-4.89-4.27-2.31-.88-4.84-.82-7.12,.18l-.42,.18v.04c-1.91,1.01-3.22,2.72-3.94,3.89-2.29-1.65-3.17-4.65-2.09-7.29,0-.01,.01-.02,.02-.04l.04,.11s.26-.79,.99-1.76c.22-.25,.45-.48,.7-.69-.02-.02-.04-.04-.06-.06,1.9-1.97,5.79-4.06,13.26-1.98,.01,0,.02,.01,.04,.02,.22,.07,.44,.14,.67,.22,.27,.19,.59,.29,.92,.3,.48,.16,.98,.33,1.53,.51,11.14,3.71,18.61,1.55,21.88,.07,1.02-.46,1.37-1.74,.73-2.66Z"/>
      </g>
    </g>
  </g>
</svg>