<?xml version="1.0" encoding="UTF-8"?>
<svg id="Capa_2" data-name="Capa 2" xmlns="http://www.w3.org/2000/svg" viewBox="0 0 164.04 47.83">
  <defs>
    <style>
      .cls-1 {
        fill: #585856;
      }

      .cls-2 {
        fill: #33a949;
      }
    </style>
  </defs>
  <g id="Capa_1-2" data-name="Capa 1">
    <g>
      <path class="cls-2" d="M47.83,19.28c0-4.18-3.4-7.58-7.57-7.58h-4.12V7.58c0-4.18-3.4-7.58-7.58-7.58-1.67,0-3.28,.55-4.63,1.59-1.32-1.03-2.95-1.59-4.64-1.59-4.18,0-7.58,3.4-7.58,7.58v4.12H7.58c-4.17,0-7.58,3.4-7.58,7.58,0,1.67,.55,3.28,1.59,4.63-1.03,1.33-1.59,2.95-1.59,4.64,0,4.18,3.4,7.59,7.58,7.59h4.12v4.11c0,4.18,3.4,7.58,7.58,7.58,1.67,0,3.27-.55,4.63-1.59,1.32,1.03,2.95,1.59,4.64,1.59,4.18,0,7.58-3.4,7.58-7.58v-4.11h4.12c4.18,0,7.57-3.4,7.57-7.59,0-1.67-.55-3.27-1.59-4.63,1.03-1.32,1.59-2.95,1.59-4.64m-15.27,.51c-.27-.11-.59-.05-.8,.16l-3.45,3.45c-.14,.14-.21,.32-.21,.52s.08,.39,.22,.52l3.45,3.45c.21,.21,.54,.27,.8,.16,.28-.11,.46-.38,.46-.68v-1.28h7.24c1.37,0,2.48,1.11,2.48,2.48s-1.11,2.48-2.48,2.48h-7.06c-1.19,0-2.16,.97-2.16,2.16v7.06c0,1.37-1.12,2.49-2.49,2.49s-2.48-1.12-2.48-2.49v-7.24h1.29c.3,0,.56-.18,.68-.46,.11-.27,.05-.59-.16-.8l-3.45-3.45c-.26-.27-.78-.27-1.04,0l-3.45,3.45c-.21,.21-.27,.53-.16,.8,.12,.27,.38,.46,.68,.46h1.29v7.24c0,1.37-1.11,2.49-2.48,2.49s-2.48-1.12-2.48-2.49v-7.06c0-1.19-.97-2.16-2.16-2.16H7.58c-1.37,0-2.48-1.11-2.48-2.48s1.11-2.48,2.48-2.48h7.24v1.28c0,.3,.18,.57,.45,.68,.26,.11,.6,.05,.8-.16l3.44-3.45c.14-.14,.22-.33,.22-.52s-.08-.38-.22-.52l-3.44-3.45c-.21-.2-.53-.27-.8-.16-.28,.11-.45,.38-.45,.68v1.29H7.58c-1.37,0-2.48-1.12-2.48-2.48s1.11-2.49,2.48-2.49h7.06c1.19,0,2.16-.97,2.16-2.16V7.58c0-1.37,1.11-2.48,2.48-2.48s2.48,1.11,2.48,2.48v7.25h-1.29c-.3,0-.56,.18-.68,.46-.11,.27-.05,.58,.16,.8l3.45,3.45c.27,.28,.77,.28,1.04,0l3.45-3.45c.21-.21,.27-.52,.16-.8-.12-.28-.38-.46-.68-.46h-1.29V7.58c0-1.37,1.11-2.48,2.48-2.48s2.49,1.11,2.49,2.48v7.06c0,1.19,.96,2.16,2.16,2.16h7.06c1.37,0,2.48,1.11,2.48,2.49s-1.11,2.48-2.48,2.48h-7.24v-1.29c0-.3-.18-.57-.46-.68"/>
      <path class="cls-1" d="M59.83,16.73c.22,.38,.47,.85,.74,1.4,.27,.55,.55,1.13,.83,1.74,.28,.61,.56,1.23,.84,1.85,.28,.63,.53,1.21,.76,1.74,.23-.53,.48-1.11,.75-1.74,.27-.63,.55-1.25,.83-1.85,.28-.61,.56-1.19,.83-1.74,.27-.55,.52-1.02,.74-1.4h1.71c.09,.76,.18,1.58,.26,2.44,.08,.86,.16,1.74,.22,2.64,.07,.9,.13,1.8,.18,2.71,.06,.91,.11,1.8,.15,2.66h-1.87c-.04-1.22-.09-2.47-.15-3.76-.06-1.29-.14-2.53-.25-3.74-.11,.23-.24,.51-.39,.83-.15,.32-.31,.67-.48,1.05-.17,.38-.34,.77-.52,1.17-.18,.4-.35,.79-.51,1.17-.17,.38-.32,.73-.46,1.06-.14,.33-.26,.61-.36,.84h-1.42c-.1-.23-.22-.51-.36-.85-.14-.33-.29-.69-.46-1.06s-.34-.77-.51-1.17c-.18-.4-.35-.79-.52-1.16-.17-.37-.33-.72-.48-1.05-.15-.33-.28-.6-.39-.82-.11,1.21-.2,2.45-.25,3.74-.06,1.29-.11,2.54-.15,3.76h-1.87c.04-.86,.09-1.76,.15-2.68,.06-.92,.12-1.84,.18-2.75,.07-.91,.14-1.79,.22-2.65,.08-.85,.17-1.64,.26-2.37h1.76Z"/>
      <path class="cls-1" d="M69.75,23.27c0-.69,.1-1.3,.31-1.83,.21-.52,.48-.96,.82-1.3,.34-.35,.73-.61,1.18-.79,.44-.18,.89-.26,1.36-.26,1.09,0,1.93,.34,2.54,1.01,.61,.67,.91,1.68,.91,3.02,0,.1,0,.21,0,.34,0,.13-.01,.24-.02,.34h-5.2c.05,.63,.27,1.12,.67,1.47,.4,.35,.97,.52,1.73,.52,.44,0,.85-.04,1.21-.12,.37-.08,.66-.17,.87-.26l.24,1.49c-.1,.05-.24,.1-.41,.16-.18,.06-.38,.1-.6,.15-.23,.05-.47,.08-.73,.11-.26,.03-.53,.05-.8,.05-.69,0-1.3-.1-1.81-.31s-.93-.49-1.27-.86-.58-.8-.74-1.3c-.16-.5-.24-1.04-.24-1.64m5.3-.81c0-.25-.04-.49-.11-.72-.07-.23-.17-.42-.31-.59-.14-.17-.3-.3-.5-.39-.2-.1-.43-.14-.7-.14s-.53,.05-.74,.16c-.21,.11-.39,.24-.53,.41-.15,.17-.26,.37-.34,.59-.08,.22-.14,.45-.17,.68h3.39Z"/>
      <path class="cls-1" d="M82.69,20.93c-.15-.05-.36-.1-.63-.16-.27-.05-.58-.08-.93-.08-.2,0-.42,.02-.64,.06-.23,.04-.38,.08-.47,.11v6.32h-1.82v-7.51c.35-.13,.79-.25,1.32-.37,.53-.12,1.11-.17,1.76-.17,.12,0,.26,0,.42,.02,.16,.02,.32,.04,.48,.06,.16,.03,.32,.05,.47,.09,.15,.04,.27,.07,.36,.1l-.32,1.54Z"/>
      <path class="cls-1" d="M83.23,23.24c0-.58,.09-1.13,.27-1.64,.18-.51,.44-.95,.78-1.32,.34-.37,.75-.66,1.23-.88,.48-.21,1.02-.32,1.63-.32,.74,0,1.45,.14,2.11,.41l-.39,1.49c-.21-.09-.45-.16-.72-.23-.27-.06-.55-.09-.85-.09-.71,0-1.26,.22-1.63,.67-.37,.45-.56,1.08-.56,1.89s.18,1.41,.53,1.86c.35,.46,.94,.69,1.78,.69,.31,0,.62-.03,.92-.09,.3-.06,.56-.13,.78-.23l.26,1.51c-.2,.1-.51,.19-.91,.27-.41,.08-.83,.12-1.26,.12-.67,0-1.26-.1-1.76-.31-.5-.21-.91-.49-1.24-.86-.33-.37-.57-.8-.73-1.31s-.24-1.06-.24-1.65"/>
      <path class="cls-1" d="M92.81,19.09c.6,0,1.11,.08,1.52,.23,.41,.15,.74,.36,.99,.63,.25,.27,.42,.6,.53,.99,.11,.39,.16,.81,.16,1.27v4.78c-.28,.06-.71,.13-1.27,.22-.57,.09-1.21,.13-1.92,.13-.47,0-.91-.05-1.3-.14-.39-.09-.73-.24-1-.44-.28-.2-.49-.46-.65-.78-.16-.32-.23-.72-.23-1.19s.09-.84,.26-1.15c.18-.31,.41-.57,.72-.76,.3-.2,.65-.34,1.05-.42,.4-.09,.81-.13,1.25-.13,.2,0,.41,.01,.63,.04,.22,.03,.46,.07,.71,.13v-.3c0-.21-.02-.41-.07-.6-.05-.19-.14-.36-.26-.51-.13-.15-.29-.26-.5-.34-.21-.08-.46-.12-.78-.12-.42,0-.81,.03-1.16,.09-.35,.06-.64,.13-.86,.21l-.23-1.48c.23-.08,.57-.16,1.01-.24,.44-.08,.91-.12,1.42-.12m.15,6.8c.56,0,.99-.03,1.28-.09v-2.02c-.1-.03-.25-.06-.44-.09-.19-.03-.4-.04-.63-.04-.2,0-.4,.01-.61,.04-.21,.03-.39,.09-.56,.17-.17,.08-.3,.19-.4,.34-.1,.15-.15,.33-.15,.55,0,.43,.14,.73,.41,.9,.27,.17,.64,.25,1.1,.25"/>
      <path class="cls-1" d="M104.3,26.94c-.36,.11-.82,.21-1.37,.3-.55,.09-1.12,.14-1.73,.14s-1.18-.09-1.67-.29c-.49-.19-.91-.46-1.26-.82-.35-.36-.61-.79-.8-1.3-.19-.51-.28-1.08-.28-1.71s.08-1.19,.23-1.7c.16-.51,.38-.94,.69-1.3s.67-.64,1.1-.84c.43-.2,.93-.29,1.49-.29,.38,0,.72,.04,1.01,.14,.29,.09,.54,.19,.75,.3v-3.79l1.82-.3v11.46Zm-5.23-3.73c0,.8,.19,1.44,.57,1.89,.38,.46,.91,.69,1.58,.69,.29,0,.54-.01,.75-.04,.21-.02,.38-.05,.51-.08v-4.52c-.16-.11-.38-.21-.64-.31-.27-.09-.55-.14-.85-.14-.66,0-1.15,.23-1.46,.68-.31,.45-.46,1.07-.46,1.84"/>
      <path class="cls-1" d="M113.16,23.23c0,.62-.09,1.19-.27,1.71-.18,.51-.44,.95-.77,1.31-.33,.36-.73,.64-1.2,.85-.47,.2-.98,.3-1.54,.3s-1.08-.1-1.54-.3c-.46-.2-.86-.48-1.19-.85s-.59-.8-.78-1.31c-.19-.51-.28-1.08-.28-1.71s.09-1.19,.28-1.7c.19-.51,.45-.94,.78-1.3,.34-.36,.74-.64,1.2-.84,.46-.2,.97-.29,1.52-.29s1.06,.1,1.53,.29c.47,.2,.87,.48,1.2,.84,.33,.36,.59,.8,.78,1.3,.19,.51,.28,1.07,.28,1.7m-1.87,0c0-.78-.17-1.4-.51-1.86-.34-.46-.81-.69-1.41-.69s-1.07,.23-1.41,.69c-.34,.46-.51,1.08-.51,1.86s.17,1.42,.51,1.89c.34,.46,.81,.69,1.41,.69s1.07-.23,1.41-.69c.34-.46,.51-1.09,.51-1.89"/>
      <path class="cls-1" d="M122.09,27.41c-.78,0-1.49-.12-2.11-.36-.62-.24-1.15-.59-1.58-1.06-.43-.47-.76-1.04-.99-1.71-.23-.67-.35-1.45-.35-2.32s.13-1.65,.4-2.32c.27-.67,.63-1.24,1.09-1.71,.46-.47,1.01-.82,1.63-1.06,.62-.24,1.29-.36,2.01-.36,.43,0,.83,.03,1.18,.1,.35,.07,.66,.14,.92,.22,.26,.08,.48,.17,.65,.26,.17,.09,.29,.16,.36,.2l-.56,1.55c-.24-.15-.59-.29-1.03-.43-.45-.14-.93-.2-1.46-.2-.45,0-.87,.08-1.27,.23-.39,.16-.73,.39-1.02,.7-.29,.31-.51,.7-.67,1.18-.16,.47-.24,1.02-.24,1.64,0,.55,.06,1.06,.19,1.52,.13,.46,.32,.86,.58,1.2,.26,.34,.59,.6,1,.78,.4,.19,.88,.28,1.45,.28,.67,0,1.22-.07,1.64-.2,.42-.14,.75-.26,.98-.38l.51,1.55c-.12,.08-.28,.16-.49,.24-.21,.08-.45,.16-.73,.23-.28,.08-.6,.14-.95,.18-.35,.05-.73,.07-1.13,.07"/>
      <path class="cls-1" d="M125.74,23.27c0-.69,.1-1.3,.31-1.83,.21-.52,.48-.96,.82-1.3,.34-.35,.73-.61,1.18-.79,.44-.18,.9-.26,1.36-.26,1.09,0,1.93,.34,2.54,1.01,.61,.67,.91,1.68,.91,3.02,0,.1,0,.21,0,.34,0,.13-.01,.24-.02,.34h-5.21c.05,.63,.27,1.12,.67,1.47,.4,.35,.97,.52,1.73,.52,.44,0,.85-.04,1.21-.12,.37-.08,.66-.17,.87-.26l.24,1.49c-.1,.05-.24,.1-.42,.16-.18,.06-.38,.1-.6,.15-.23,.05-.47,.08-.73,.11-.26,.03-.53,.05-.8,.05-.69,0-1.3-.1-1.81-.31s-.93-.49-1.27-.86-.58-.8-.74-1.3c-.16-.5-.24-1.04-.24-1.64m5.29-.81c0-.25-.04-.49-.11-.72-.07-.23-.17-.42-.31-.59-.14-.17-.3-.3-.5-.39-.2-.1-.43-.14-.7-.14s-.53,.05-.74,.16c-.21,.11-.39,.24-.54,.41-.15,.17-.26,.37-.34,.59-.08,.22-.13,.45-.17,.68h3.39Z"/>
      <path class="cls-1" d="M134.19,19.55c.35-.1,.81-.2,1.37-.29,.56-.09,1.19-.14,1.87-.14,.64,0,1.18,.09,1.61,.26,.43,.18,.78,.42,1.03,.74,.26,.32,.44,.7,.54,1.15,.11,.45,.16,.94,.16,1.47v4.43h-1.82v-4.15c0-.42-.03-.78-.08-1.08-.06-.3-.15-.54-.27-.72-.13-.19-.3-.32-.51-.41-.22-.09-.48-.13-.79-.13-.23,0-.47,.01-.72,.04-.25,.03-.44,.06-.56,.08v6.37h-1.82v-7.63Z"/>
      <path class="cls-1" d="M142.32,17.21l1.82-.3v2.38h2.81v1.52h-2.81v3.21c0,.63,.1,1.09,.3,1.36,.2,.27,.54,.41,1.03,.41,.33,0,.63-.03,.88-.1,.26-.07,.46-.14,.61-.2l.3,1.45c-.21,.09-.49,.18-.83,.28-.34,.1-.74,.14-1.21,.14-.56,0-1.03-.08-1.41-.23-.38-.15-.68-.37-.9-.66-.22-.29-.38-.63-.47-1.04-.09-.41-.14-.87-.14-1.4v-6.83Z"/>
      <path class="cls-1" d="M152.6,20.93c-.15-.05-.36-.1-.63-.16-.27-.05-.58-.08-.93-.08-.2,0-.41,.02-.64,.06-.23,.04-.38,.08-.48,.11v6.32h-1.82v-7.51c.35-.13,.79-.25,1.32-.37,.53-.12,1.11-.17,1.76-.17,.12,0,.26,0,.42,.02,.16,.02,.32,.04,.48,.06,.16,.03,.32,.05,.47,.09,.15,.04,.27,.07,.36,.1l-.32,1.54Z"/>
      <path class="cls-1" d="M156.21,19.09c.6,0,1.11,.08,1.52,.23,.41,.15,.74,.36,.99,.63,.25,.27,.42,.6,.53,.99,.11,.39,.16,.81,.16,1.27v4.78c-.28,.06-.71,.13-1.27,.22-.57,.09-1.21,.13-1.92,.13-.47,0-.91-.05-1.3-.14-.39-.09-.73-.24-1-.44-.28-.2-.49-.46-.65-.78-.16-.32-.23-.72-.23-1.19s.09-.84,.26-1.15c.18-.31,.41-.57,.72-.76,.3-.2,.65-.34,1.05-.42,.4-.09,.81-.13,1.25-.13,.2,0,.41,.01,.63,.04,.22,.03,.46,.07,.71,.13v-.3c0-.21-.02-.41-.07-.6-.05-.19-.14-.36-.26-.51-.13-.15-.29-.26-.5-.34-.21-.08-.46-.12-.78-.12-.42,0-.81,.03-1.16,.09-.35,.06-.64,.13-.86,.21l-.23-1.48c.23-.08,.57-.16,1.01-.24,.44-.08,.91-.12,1.42-.12m.15,6.8c.56,0,.99-.03,1.28-.09v-2.02c-.1-.03-.25-.06-.44-.09-.19-.03-.4-.04-.63-.04-.2,0-.4,.01-.61,.04-.21,.03-.39,.09-.56,.17-.17,.08-.3,.19-.4,.34-.1,.15-.15,.33-.15,.55,0,.43,.14,.73,.41,.9,.27,.17,.64,.25,1.1,.25"/>
      <path class="cls-1" d="M163.78,27.33c-.54,0-.99-.07-1.35-.18-.36-.11-.64-.27-.85-.47-.21-.21-.36-.46-.44-.77-.09-.31-.13-.66-.13-1.05V15.78l1.83-.3v9.04c0,.22,.02,.41,.05,.56,.03,.15,.1,.28,.19,.39,.09,.1,.21,.19,.37,.24,.15,.05,.35,.1,.6,.13l-.26,1.51Z"/>
      <path class="cls-1" d="M64.12,42.97c-.36,.11-.82,.21-1.36,.3-.55,.09-1.12,.14-1.73,.14s-1.18-.09-1.68-.29c-.49-.19-.91-.47-1.26-.82-.35-.36-.61-.79-.8-1.3-.19-.51-.28-1.08-.28-1.71s.08-1.19,.23-1.7c.16-.51,.38-.94,.69-1.3,.3-.36,.67-.64,1.1-.84,.43-.2,.93-.29,1.49-.29,.38,0,.72,.04,1.01,.14,.29,.09,.54,.19,.75,.3v-3.79l1.82-.3v11.46Zm-5.23-3.73c0,.81,.19,1.44,.57,1.89,.38,.46,.91,.69,1.58,.69,.29,0,.54-.01,.75-.04,.2-.02,.37-.05,.5-.08v-4.53c-.16-.11-.38-.21-.64-.31-.27-.09-.55-.14-.85-.14-.66,0-1.15,.23-1.45,.68-.31,.45-.46,1.07-.46,1.84"/>
      <path class="cls-1" d="M65.4,39.3c0-.69,.1-1.3,.31-1.83,.21-.52,.48-.96,.82-1.3,.34-.35,.73-.61,1.18-.78,.44-.18,.89-.26,1.36-.26,1.09,0,1.93,.34,2.54,1.01,.61,.67,.91,1.68,.91,3.02,0,.1,0,.21,0,.34,0,.13-.01,.24-.02,.34h-5.2c.05,.63,.27,1.12,.67,1.47,.4,.35,.97,.52,1.73,.52,.44,0,.85-.04,1.21-.12,.37-.08,.66-.17,.87-.26l.24,1.49c-.1,.05-.24,.1-.41,.16-.18,.05-.38,.11-.6,.15-.23,.04-.47,.08-.73,.11-.26,.03-.53,.05-.8,.05-.69,0-1.3-.1-1.81-.31-.51-.21-.93-.49-1.27-.86s-.58-.8-.74-1.3c-.16-.5-.24-1.04-.24-1.64m5.3-.81c0-.25-.04-.49-.11-.72-.07-.23-.17-.42-.31-.59-.14-.16-.3-.29-.5-.39-.2-.1-.43-.14-.7-.14s-.53,.05-.74,.16c-.21,.11-.39,.24-.53,.42-.15,.17-.26,.37-.34,.59s-.14,.45-.17,.68h3.39Z"/>
      <path class="cls-1" d="M80,43.33c-.55,0-1.11-.02-1.67-.05-.56-.04-1.06-.11-1.48-.22v-10.15c.22-.04,.46-.08,.71-.11,.25-.03,.51-.06,.77-.08,.26-.02,.52-.04,.78-.05,.26,0,.5-.01,.73-.01,.63,0,1.22,.05,1.76,.14,.54,.1,1.01,.25,1.41,.48,.4,.22,.71,.51,.93,.88,.22,.36,.33,.81,.33,1.34,0,.49-.12,.92-.35,1.27-.24,.35-.57,.63-.99,.85,.63,.21,1.1,.52,1.4,.93,.3,.41,.45,.93,.45,1.57,0,1.08-.39,1.88-1.18,2.42-.78,.54-1.99,.81-3.6,.81m-1.28-6.32h1.34c.72,0,1.29-.1,1.71-.31,.41-.21,.62-.58,.62-1.11,0-.5-.21-.86-.64-1.07-.43-.21-.98-.32-1.67-.32-.29,0-.55,0-.78,.01-.23,.01-.42,.03-.58,.05v2.74Zm0,1.49v3.18c.21,.02,.44,.03,.68,.04,.24,.01,.46,.02,.66,.02,.39,0,.76-.03,1.09-.08,.34-.05,.63-.14,.88-.26,.25-.13,.44-.29,.59-.51,.15-.21,.22-.48,.22-.82,0-.59-.22-1.01-.65-1.24-.43-.23-1.03-.35-1.79-.35h-1.67Z"/>
      <path class="cls-1" d="M92.54,42.97c-.35,.09-.81,.18-1.37,.28-.56,.1-1.18,.14-1.86,.14-.63,0-1.16-.09-1.59-.27-.43-.18-.77-.43-1.02-.75-.26-.32-.44-.71-.55-1.15-.11-.45-.17-.94-.17-1.47v-4.42h1.82v4.13c0,.85,.12,1.45,.37,1.81s.68,.54,1.29,.54c.22,0,.46-.01,.7-.03,.25-.02,.43-.05,.55-.08v-6.38h1.83v7.65Z"/>
      <path class="cls-1" d="M93.82,39.3c0-.69,.1-1.3,.31-1.83,.21-.52,.48-.96,.82-1.3,.34-.35,.73-.61,1.18-.78,.44-.18,.9-.26,1.36-.26,1.09,0,1.93,.34,2.54,1.01,.61,.67,.91,1.68,.91,3.02,0,.1,0,.21,0,.34,0,.13-.01,.24-.02,.34h-5.21c.05,.63,.27,1.12,.67,1.47,.4,.35,.97,.52,1.73,.52,.44,0,.85-.04,1.21-.12,.37-.08,.66-.17,.87-.26l.24,1.49c-.1,.05-.24,.1-.42,.16-.18,.05-.38,.11-.6,.15-.23,.04-.47,.08-.73,.11-.26,.03-.53,.05-.8,.05-.69,0-1.3-.1-1.81-.31-.51-.21-.93-.49-1.27-.86s-.58-.8-.74-1.3c-.16-.5-.24-1.04-.24-1.64m5.29-.81c0-.25-.04-.49-.11-.72-.07-.23-.17-.42-.31-.59-.14-.16-.3-.29-.5-.39-.2-.1-.43-.14-.7-.14s-.53,.05-.74,.16c-.21,.11-.39,.24-.54,.42-.15,.17-.26,.37-.34,.59-.08,.22-.13,.45-.17,.68h3.39Z"/>
      <path class="cls-1" d="M102.27,35.57c.35-.1,.81-.19,1.37-.29,.56-.09,1.19-.14,1.87-.14,.64,0,1.18,.09,1.61,.27,.43,.17,.78,.42,1.03,.74,.26,.32,.44,.7,.54,1.15,.11,.45,.16,.94,.16,1.47v4.43h-1.82v-4.15c0-.42-.03-.78-.08-1.08-.06-.3-.15-.54-.27-.72-.13-.19-.3-.32-.51-.41-.22-.09-.48-.13-.79-.13-.23,0-.47,.02-.72,.04-.25,.03-.44,.06-.56,.08v6.37h-1.82v-7.63Z"/>
      <path class="cls-1" d="M117.62,39.26c0,.62-.09,1.19-.27,1.7-.18,.51-.44,.95-.77,1.31-.33,.36-.73,.64-1.2,.84-.47,.2-.98,.3-1.54,.3s-1.08-.1-1.54-.3c-.46-.2-.86-.48-1.19-.84-.33-.36-.59-.8-.78-1.31-.19-.51-.28-1.08-.28-1.7s.09-1.19,.28-1.7c.19-.51,.45-.94,.78-1.3,.34-.36,.74-.64,1.2-.84,.46-.2,.97-.29,1.52-.29s1.06,.1,1.53,.29c.47,.2,.87,.48,1.2,.84,.33,.36,.59,.8,.78,1.3,.19,.51,.28,1.07,.28,1.7m-1.87,0c0-.78-.17-1.4-.51-1.86-.34-.46-.81-.68-1.41-.68s-1.07,.23-1.41,.68c-.34,.46-.51,1.08-.51,1.86s.17,1.42,.51,1.89c.34,.46,.81,.69,1.41,.69s1.07-.23,1.41-.69c.34-.46,.51-1.09,.51-1.89"/>
      <path class="cls-1" d="M120.88,41.89c.48,0,.83-.06,1.06-.17,.22-.12,.33-.31,.33-.6,0-.26-.12-.48-.35-.65-.24-.17-.63-.36-1.17-.56-.33-.12-.64-.25-.91-.39-.28-.14-.51-.29-.72-.47-.2-.18-.36-.4-.48-.66-.11-.26-.17-.57-.17-.94,0-.72,.27-1.29,.8-1.71,.53-.42,1.26-.63,2.17-.63,.46,0,.9,.04,1.33,.13,.42,.09,.74,.17,.95,.25l-.33,1.48c-.2-.09-.46-.17-.77-.25-.31-.08-.67-.11-1.09-.11-.37,0-.67,.06-.9,.19-.23,.13-.35,.32-.35,.58,0,.13,.02,.25,.07,.35,.04,.1,.12,.19,.23,.28,.11,.09,.26,.17,.44,.26,.18,.09,.4,.17,.66,.27,.43,.16,.8,.32,1.1,.48,.3,.16,.55,.33,.75,.53,.2,.2,.34,.42,.43,.67,.09,.25,.14,.55,.14,.91,0,.75-.28,1.33-.84,1.71-.56,.39-1.36,.58-2.39,.58-.69,0-1.25-.06-1.67-.17-.42-.11-.72-.21-.89-.28l.32-1.52c.27,.11,.6,.22,.97,.32,.38,.1,.81,.15,1.29,.15"/>
      <path class="cls-1" d="M135.15,43.21c-.14-.41-.29-.82-.44-1.22-.15-.4-.3-.81-.44-1.24h-4.42c-.14,.42-.29,.84-.43,1.24-.15,.41-.29,.81-.43,1.21h-1.98c.39-1.12,.76-2.15,1.11-3.09,.35-.95,.7-1.84,1.03-2.69,.34-.84,.67-1.65,1-2.41,.33-.76,.67-1.52,1.02-2.26h1.82c.35,.74,.69,1.5,1.02,2.26,.33,.76,.67,1.57,1,2.41,.34,.85,.68,1.74,1.04,2.69,.36,.95,.73,1.97,1.12,3.09h-2.05Zm-3.08-8.43c-.23,.53-.5,1.18-.79,1.95-.3,.76-.6,1.59-.93,2.49h3.44c-.32-.9-.63-1.73-.93-2.5-.3-.78-.56-1.42-.78-1.93"/>
      <path class="cls-1" d="M139.86,33.01c0,.34-.11,.61-.33,.81-.22,.2-.48,.3-.78,.3s-.58-.1-.8-.3c-.22-.2-.33-.47-.33-.81s.11-.63,.33-.83c.22-.2,.49-.3,.8-.3s.56,.1,.78,.3c.22,.2,.33,.48,.33,.83m-.2,10.2h-1.82v-7.89h1.82v7.89Z"/>
      <path class="cls-1" d="M145.88,36.96c-.15-.05-.36-.1-.63-.16-.27-.05-.58-.08-.93-.08-.2,0-.41,.02-.64,.06-.23,.04-.38,.08-.48,.11v6.32h-1.82v-7.51c.35-.13,.79-.25,1.32-.37,.53-.12,1.11-.17,1.76-.17,.12,0,.26,0,.42,.02,.16,.02,.32,.04,.48,.06,.16,.03,.32,.05,.47,.09,.15,.04,.27,.07,.36,.1l-.32,1.54Z"/>
      <path class="cls-1" d="M146.42,39.3c0-.69,.1-1.3,.31-1.83,.21-.52,.48-.96,.82-1.3,.34-.35,.73-.61,1.18-.78,.44-.18,.9-.26,1.36-.26,1.09,0,1.93,.34,2.54,1.01,.61,.67,.91,1.68,.91,3.02,0,.1,0,.21,0,.34,0,.13-.01,.24-.02,.34h-5.21c.05,.63,.27,1.12,.67,1.47,.4,.35,.97,.52,1.73,.52,.44,0,.85-.04,1.21-.12,.37-.08,.66-.17,.87-.26l.24,1.49c-.1,.05-.24,.1-.42,.16-.18,.05-.38,.11-.6,.15-.23,.04-.47,.08-.73,.11-.26,.03-.53,.05-.8,.05-.69,0-1.3-.1-1.81-.31-.51-.21-.93-.49-1.27-.86s-.58-.8-.74-1.3c-.16-.5-.24-1.04-.24-1.64m5.29-.81c0-.25-.04-.49-.11-.72-.07-.23-.17-.42-.31-.59-.14-.16-.3-.29-.5-.39-.2-.1-.43-.14-.7-.14s-.53,.05-.74,.16c-.21,.11-.39,.24-.54,.42-.15,.17-.26,.37-.34,.59-.08,.22-.13,.45-.17,.68h3.39Z"/>
      <path class="cls-1" d="M156.84,41.89c.48,0,.83-.06,1.06-.17,.22-.12,.33-.31,.33-.6,0-.26-.12-.48-.35-.65-.24-.17-.63-.36-1.17-.56-.33-.12-.64-.25-.91-.39-.28-.14-.51-.29-.72-.47-.2-.18-.36-.4-.48-.66-.11-.26-.17-.57-.17-.94,0-.72,.27-1.29,.8-1.71,.53-.42,1.26-.63,2.17-.63,.46,0,.9,.04,1.33,.13,.42,.09,.74,.17,.95,.25l-.33,1.48c-.2-.09-.46-.17-.77-.25-.31-.08-.67-.11-1.09-.11-.37,0-.67,.06-.9,.19-.23,.13-.35,.32-.35,.58,0,.13,.02,.25,.07,.35,.04,.1,.12,.19,.23,.28,.11,.09,.26,.17,.44,.26,.18,.09,.4,.17,.66,.27,.43,.16,.8,.32,1.1,.48,.3,.16,.55,.33,.75,.53,.2,.2,.34,.42,.43,.67,.09,.25,.14,.55,.14,.91,0,.75-.28,1.33-.84,1.71-.56,.39-1.36,.58-2.39,.58-.69,0-1.25-.06-1.67-.17-.42-.11-.72-.21-.89-.28l.32-1.52c.27,.11,.6,.22,.97,.32,.38,.1,.81,.15,1.29,.15"/>
      <path class="cls-1" d="M59.68,5.74c-1.17,0-2.1,.91-2.1,2.06s.92,2.07,2.1,2.07c.59,0,1.19-.27,1.63-.7l.59,.65c-.6,.59-1.44,.96-2.27,.96-1.72,0-3.05-1.3-3.05-2.98s1.35-2.95,3.08-2.95c.83,0,1.66,.34,2.23,.9l-.58,.72c-.43-.46-1.04-.75-1.63-.75"/>
      <path class="cls-1" d="M66.88,8.52c0,1.34-.95,2.26-2.32,2.26s-2.33-.92-2.33-2.26,.95-2.26,2.33-2.26,2.32,.91,2.32,2.26m-3.69,0c0,.86,.56,1.45,1.37,1.45s1.36-.59,1.36-1.45-.56-1.44-1.36-1.44-1.37,.59-1.37,1.44"/>
      <path class="cls-1" d="M70.31,6.26v.92c-.9-.05-1.47,.48-1.54,1.24v2.33h-.96V6.29h.96v.89c.3-.6,.84-.92,1.54-.92"/>
      <path class="cls-1" d="M75.72,8.54c0,1.33-.84,2.25-2.11,2.25-.71,0-1.25-.28-1.58-.8v2.4h-.96V6.29h.96v.77c.33-.52,.86-.8,1.56-.8,1.27,0,2.13,.92,2.13,2.28m-.97-.03c0-.83-.56-1.44-1.36-1.44s-1.36,.6-1.36,1.44,.56,1.46,1.36,1.46,1.36-.6,1.36-1.46"/>
      <path class="cls-1" d="M80.88,8.52c0,1.34-.95,2.26-2.32,2.26s-2.33-.92-2.33-2.26,.95-2.26,2.33-2.26,2.32,.91,2.32,2.26m-3.69,0c0,.86,.56,1.45,1.37,1.45s1.36-.59,1.36-1.45-.56-1.44-1.36-1.44-1.37,.59-1.37,1.44"/>
      <path class="cls-1" d="M84.31,6.26v.92c-.9-.05-1.47,.48-1.54,1.24v2.33h-.96V6.29h.96v.89c.3-.6,.84-.92,1.54-.92"/>
      <path class="cls-1" d="M87.52,10.75v-.54c-.32,.4-.83,.59-1.48,.59-.96,0-1.57-.6-1.57-1.38s.61-1.33,1.68-1.34h1.35v-.13c0-.56-.36-.9-1.06-.9-.43,0-.87,.15-1.32,.45l-.39-.67c.62-.37,1.07-.56,1.92-.56,1.15,0,1.79,.59,1.8,1.57v2.93s-.94,0-.94,0Zm0-1.57v-.41h-1.21c-.63,0-.92,.17-.92,.59,0,.4,.33,.66,.86,.66,.69,0,1.22-.36,1.27-.85"/>
      <path class="cls-1" d="M91.55,7.1c-.77,0-1.33,.58-1.33,1.43s.55,1.42,1.33,1.42c.56,0,1.01-.18,1.32-.54l.54,.54c-.4,.53-1.05,.83-1.89,.83-1.32,0-2.25-.91-2.25-2.26s.92-2.27,2.25-2.27c.8,0,1.43,.26,1.85,.73l-.53,.62c-.31-.32-.74-.51-1.27-.5"/>
      <path class="cls-1" d="M95.37,5.02c0,.33-.24,.58-.56,.58s-.56-.24-.56-.58,.24-.59,.56-.59,.56,.24,.56,.59m-.08,5.73h-.96V6.29h.96v4.46Z"/>
      <path class="cls-1" d="M100.86,8.52c0,1.34-.95,2.26-2.32,2.26s-2.33-.92-2.33-2.26,.95-2.26,2.33-2.26,2.32,.91,2.32,2.26m-3.69,0c0,.86,.56,1.45,1.37,1.45s1.36-.59,1.36-1.45-.56-1.44-1.36-1.44-1.37,.59-1.37,1.44m2.68-3.7l-1.02,.82h-.86l.89-1.24,.99,.42Z"/>
      <path class="cls-1" d="M106.05,7.98v2.78h-.96v-2.51c0-.67-.4-1.08-1.07-1.08-.74,0-1.2,.52-1.27,1.22v2.37h-.97V6.29h.97v.86c.32-.62,.89-.89,1.64-.89,1.04,0,1.66,.65,1.66,1.72"/>
      <path class="cls-1" d="M113.59,4.53v6.22h-.96v-.76c-.32,.52-.86,.8-1.57,.8-1.28,0-2.14-.93-2.14-2.29s.86-2.25,2.12-2.25c.72,0,1.26,.29,1.58,.81v-2.53h.96Zm-.96,4.01c0-.86-.56-1.47-1.37-1.47s-1.37,.61-1.38,1.47c0,.85,.56,1.45,1.38,1.45s1.37-.6,1.37-1.45"/>
      <path class="cls-1" d="M118.9,8.89h-3.37c.15,.69,.68,1.11,1.38,1.11,.49,0,.93-.18,1.26-.52l.51,.54c-.44,.48-1.07,.76-1.84,.76-1.38,0-2.28-.91-2.28-2.26s.93-2.26,2.26-2.27c1.57,0,2.21,1.02,2.09,2.63m-.84-.7c-.03-.72-.51-1.16-1.24-1.16s-1.21,.45-1.31,1.16h2.55Z"/>
      <rect class="cls-1" x="119.87" y="4.53" width=".96" height="6.22"/>
    </g>
  </g>
</svg>