<?xml version="1.0" encoding="UTF-8"?>
<svg id="Capa_2" data-name="Capa 2" xmlns="http://www.w3.org/2000/svg" viewBox="0 0 261.87 114.66">
  <defs>
    <style>
      .cls-1 {
        fill: #3e8c4c;
      }

      .cls-2 {
        fill: #161616;
      }
    </style>
  </defs>
  <g id="Capa_1-2" data-name="Capa 1">
    <g>
      <g>
        <path class="cls-2" d="M0,76.81c.31-13.85,3.88-25.4,9.93-36.21,7.01-12.51,16.28-23.01,28.4-30.8C49.21,2.81,60.93-1.58,74.15,.53c13.53,2.16,22.11,11.81,25.2,24.43,.35,1.44-.14,2.38-1.78,2.07-2.2-.41-4.4-.87-6.54-1.53-.64-.2-1.26-1.04-1.53-1.73-5.18-13.14-17.67-16.59-30.14-12.94-16.47,4.82-28.02,15.98-37.4,29.74-5.15,7.55-8.91,15.81-10.68,24.73-1.94,9.83-2.32,19.77,4.24,28.38,5.77,7.57,13.85,9.37,22.77,7.8,13.46-2.36,23.88-10.01,32.91-19.77,8.7-9.41,15.06-20.22,18.39-32.62,1.09-4.05,1.4-8.33,1.81-12.53,.19-1.96,.86-2.72,2.78-2.35,.82,.16,1.63,.32,2.45,.47q4.42,.81,3.92,5.48c-2.37,22.12-12.75,40.02-29.09,54.7-7.37,6.62-15.72,11.71-25.27,14.54-10.37,3.07-20.64,3.44-30.36-2.32-8.34-4.94-12.74-12.61-14.71-21.81-.69-3.23-.88-6.56-1.12-8.5Z"/>
        <path class="cls-2" d="M187.55,58.69c-8.3,7.92-16.79,15.64-24.85,23.8-8.15,8.25-13.83,18.32-19.3,28.6-2.3-1.06-4.22-2.01-6.2-2.83-1.37-.57-1.72-1.36-1.14-2.72,7.11-16.69,14.16-33.4,21.31-50.07,5.42-12.63,10.97-25.2,16.43-37.81,1.46-3.38,1.41-3.4,4.82-1.92,4.97,2.16,4.78,2.08,2.54,7-5.24,11.54-10.32,23.17-15.39,34.79-2.01,4.6-3.82,9.28-5.37,14.1,4.86-4.62,9.66-9.29,14.59-13.83,4.7-4.33,9.52-8.52,14.31-12.75,2.04-1.8,4.25-3.13,7.16-2.9,4.24,.33,6.75,3.6,5.36,7.59-1.93,5.55-4.26,10.96-6.28,16.48-5.28,14.38-10.53,28.78-15.67,43.21-.77,2.16-1.84,2.89-4.02,2.5-4.9-.89-6.28,.21-4.22-5.81,2.89-8.46,5.59-16.99,8.55-25.43,2.33-6.64,4.92-13.19,7.38-19.79,.22-.59,.29-1.24,.43-1.87-.15-.11-.3-.23-.44-.34Z"/>
        <path class="cls-2" d="M109.87,59.85c-1.67,.11-2.99,.37-4.24,.2-.72-.1-1.75-.82-1.93-1.46-.47-1.74-.54-3.59-.82-5.39-.29-1.87,.65-2.55,2.35-2.69,2.57-.21,5.17-.29,7.67-.84,1.15-.25,2.46-1.29,3.05-2.34,2.99-5.35,5.81-10.79,8.58-16.26,.89-1.75,1.72-2.12,3.44-.98,6.36,4.21,6.12,2.08,2.47,9.14-1.44,2.78-2.91,5.55-4.59,8.74,1.07,.06,1.76,.19,2.43,.11,6.43-.75,12.86-1.5,19.28-2.33,1.37-.18,1.92,.23,2.18,1.6,1.4,7.16,1.45,7.31-5.72,8.32-7.07,1-14.19,1.69-21.29,2.42-1.57,.16-2.57,.62-3.21,2.18-4.72,11.49-9.51,22.94-14.26,34.41-.14,.35-.14,.76-.32,1.81,1.25-.74,2.07-1.14,2.8-1.67,6.93-5,13.88-9.98,20.75-15.06,1.76-1.3,2.68-1.15,3.85,.79,3.14,5.22,2.99,4.84-1.82,8.37-8.15,5.98-15.98,12.39-23.9,18.68-2.27,1.8-4.47,3.73-6.52,5.77-1.48,1.47-2.72,1.73-4.53,.55-5.19-3.39-5.14-1.59-2.93-7.73,5.32-14.8,11-29.46,16.53-44.18,.22-.58,.39-1.18,.72-2.16Z"/>
        <path class="cls-2" d="M223.49,112c-7.76-.39-8.25-.8-5.97-7.04,4.62-12.68,9.24-25.38,14.42-37.84,6.58-15.83,13.69-31.45,20.64-47.13,2.14-4.83,1.46-4.31,5.91-2.1,4.07,2.02,4.09,2.04,2.04,6.16-12.03,24.14-21.85,49.21-31.08,74.52-1.42,3.89-2.73,7.82-4.26,11.67-.34,.85-1.36,1.43-1.7,1.77Z"/>
        <path class="cls-2" d="M192.46,105.86c1.68-4.22,3.07-7.86,4.56-11.45,5.58-13.44,11.18-26.87,16.81-40.28,.86-2.06,1.96-4.02,2.87-6.05,.72-1.62,1.72-2.14,3.32-1.15,.63,.39,1.3,.74,1.98,1.04,4.78,2.12,3.91,1.69,2.08,6.09-6.93,16.73-13.9,33.44-20.72,50.21-2.37,5.84-2.21,5.94-8.34,3.35-.96-.41-1.76-1.21-2.55-1.77Z"/>
        <path class="cls-2" d="M235.4,27.77c-1.13,2.07-2.05,3.82-3.04,5.52-.12,.2-.66,.37-.87,.27-2.16-1-4.31-2.02-6.39-3.16-.23-.12-.24-1.09-.03-1.51,3.38-6.61,1.83-5.72,7.97-2.78,.81,.39,1.5,1.04,2.36,1.65Z"/>
      </g>
      <path class="cls-1" d="M113.29,17.27l-.89,1.79c-1.91,3.82-4.39,6.25-7.39,7.22-4.23,1.38-8.64-.3-9.9-.85-7.43-5.8-15.12-8.29-22.84-7.39-12.05,1.4-19.42,10.69-19.72,11.09l-1.23,1.57,7.74,6.07,1.24-1.54c.05-.07,5.33-6.51,13.16-7.39,5.14-.6,10.5,1.32,15.94,5.67l.22,.17,.57,.34c.52,.27,5.23,2.66,11.32,2.66h0c2.26,0,4.44-.33,6.48-.99,5.63-1.81,10.08-5.92,13.23-12.22l.89-1.79-8.83-4.41Z"/>
    </g>
  </g>
</svg>